<?xml version="1.0" standalone="no"?>
<!DOCTYPE svg PUBLIC "-//W3C//DTD SVG 20010904//EN"
 "http://www.w3.org/TR/2001/REC-SVG-20010904/DTD/svg10.dtd">
<svg version="1.0" xmlns="http://www.w3.org/2000/svg"
 width="3000.000000pt" height="1905.000000pt" viewBox="0 0 3000.000000 1905.000000"
 preserveAspectRatio="xMidYMid meet">

<g transform="translate(0.000000,1905.000000) scale(0.100000,-0.100000)"
fill="#000000" stroke="none">
<path d="M14940 16874 c-25 -2 -110 -9 -190 -15 -327 -24 -777 -105 -1168
-210 -865 -232 -1717 -687 -2422 -1293 -153 -131 -463 -440 -600 -596 -905
-1035 -1430 -2287 -1541 -3670 -16 -200 -16 -710 0 -910 155 -1941 1158 -3664
2756 -4737 746 -501 1665 -855 2560 -987 356 -52 482 -61 915 -61 422 0 553 9
880 56 908 131 1786 464 2560 973 162 107 418 296 555 411 154 128 285 249
285 261 0 12 -266 806 -322 962 l-30 83 -172 -174 c-432 -439 -871 -758 -1406
-1026 -494 -246 -969 -401 -1510 -490 -1072 -178 -2169 -13 -3165 475 -720
352 -1340 862 -1854 1524 l-81 105 1117 6 c1076 5 1123 6 1248 26 132 22 295
60 374 88 53 18 51 18 51 0 0 -13 79 -15 653 -15 l652 0 245 1285 c135 707
247 1285 250 1285 3 0 244 -496 534 -1102 291 -607 549 -1137 574 -1178 91
-149 217 -254 368 -306 68 -24 95 -28 199 -28 149 -1 229 21 339 94 86 58 139
114 205 216 25 40 285 569 576 1177 292 608 533 1103 538 1100 4 -2 7 -13 7
-23 0 -11 10 -28 21 -39 18 -16 21 -27 16 -58 -7 -39 10 -113 25 -113 4 0 8 5
8 10 0 6 5 10 11 10 6 0 9 -14 7 -32 -2 -20 -8 -32 -15 -30 -17 3 -16 -19 2
-45 8 -12 12 -28 9 -37 -10 -26 6 -39 26 -21 28 26 59 10 81 -42 10 -24 19
-53 19 -62 0 -10 3 -21 7 -25 4 -4 6 -36 5 -71 -3 -56 -1 -65 17 -77 12 -7 21
-23 21 -37 l0 -25 -20 22 c-12 12 -29 22 -40 22 -27 0 -36 37 -14 61 16 18 16
19 -2 19 -10 0 -26 -5 -34 -10 -12 -8 -13 -13 -2 -30 6 -11 12 -29 12 -41 0
-11 5 -30 12 -42 6 -12 12 -42 13 -65 1 -24 8 -47 14 -52 16 -9 33 -84 21 -88
-17 -6 -11 -22 8 -22 25 0 48 -28 55 -65 3 -16 13 -66 22 -109 16 -74 16 -80
1 -92 -14 -10 -14 -14 -4 -25 14 -15 60 -141 63 -171 2 -28 15 -34 15 -7 0 54
57 86 84 47 14 -20 14 -23 0 -31 -14 -8 -13 -10 3 -22 17 -13 17 -15 -5 -60
-15 -32 -28 -45 -40 -43 -9 1 -27 -5 -40 -14 -23 -15 -23 -18 -11 -76 9 -45
18 -62 32 -66 10 -2 21 -14 24 -25 3 -11 9 -18 14 -16 4 3 4 18 -1 33 -4 15
-11 40 -14 55 -6 25 -5 27 13 18 11 -6 22 -11 25 -11 3 0 3 29 1 65 -5 63 -4
66 21 75 32 13 74 13 74 1 0 -10 -43 -47 -60 -53 -17 -6 17 -81 40 -90 18 -7
20 -11 10 -23 -10 -11 -8 -20 8 -40 11 -14 23 -39 27 -55 3 -15 13 -31 22 -34
22 -9 27 -1 14 22 -6 12 -11 34 -11 51 0 47 -16 76 -50 93 l-31 15 26 17 c36
24 53 14 57 -31 2 -28 8 -39 22 -41 14 -3 18 1 14 15 -4 16 2 19 49 21 49 3
54 1 63 -23 15 -40 12 -61 -14 -92 l-24 -28 -25 23 c-28 26 -43 16 -31 -21 12
-36 10 -100 -3 -104 -7 -3 -13 8 -15 24 -2 15 -7 27 -13 26 -14 -4 -19 -73 -6
-86 15 -15 14 -34 -6 -79 -11 -24 -24 -38 -35 -38 -37 0 -31 -29 16 -75 26
-25 51 -45 55 -45 5 0 12 -15 16 -32 7 -31 8 -29 15 27 5 36 4 65 -2 72 -5 7
-8 22 -6 35 4 21 6 20 27 -15 18 -29 26 -35 36 -27 10 8 15 6 20 -10 8 -24 31
-21 27 4 -4 21 7 21 24 -1 22 -29 17 -46 -11 -41 -17 4 -25 1 -25 -8 0 -8 4
-14 9 -14 15 0 19 -46 6 -76 l-12 -29 -7 39 c-4 22 -15 57 -23 79 -21 51 -35
30 -27 -38 8 -62 20 -85 43 -85 16 0 18 -6 14 -44 -5 -43 -5 -43 28 -48 60 -9
70 6 48 70 -8 24 -7 37 6 61 8 17 19 31 23 31 10 0 42 -153 42 -197 0 -18 -4
-33 -8 -33 -5 0 -16 -6 -26 -13 -17 -12 -17 -17 -5 -51 12 -34 12 -39 -5 -51
-22 -17 -14 -51 14 -60 29 -9 41 2 30 29 -11 30 -3 38 22 25 15 -8 19 -18 15
-37 -14 -67 -14 -66 37 -92 45 -23 63 -45 65 -76 1 -7 -19 -5 -56 7 -89 30
-98 24 -68 -48 8 -19 15 -46 15 -58 0 -13 8 -33 19 -46 l18 -23 7 22 c4 12 2
38 -4 57 -6 19 -10 41 -7 48 3 7 7 4 12 -8 3 -11 15 -40 25 -65 10 -25 21 -53
24 -64 5 -15 9 -16 21 -6 20 17 19 40 -1 40 -13 0 -15 7 -10 31 5 24 1 35 -17
49 -18 15 -20 21 -9 31 10 11 15 10 26 -1 29 -32 126 -278 126 -322 0 -23 39
-98 51 -98 5 0 9 11 9 25 0 14 -4 25 -9 25 -7 0 -51 140 -51 164 0 5 7 2 16
-5 9 -7 25 -18 36 -24 12 -5 29 -31 39 -58 18 -46 18 -47 -1 -47 -14 0 -20 -7
-20 -21 0 -16 4 -19 18 -14 9 4 25 10 36 13 14 4 17 12 13 37 -8 48 7 64 28
29 9 -16 13 -20 10 -9 -4 11 -9 37 -12 58 -3 21 -10 40 -14 43 -12 7 -11 64 1
64 5 0 12 -17 15 -37 8 -51 22 -83 36 -83 8 0 9 11 4 33 -4 17 -13 65 -20 105
-8 44 -20 79 -30 86 -12 8 -17 30 -18 79 -2 55 -7 70 -24 82 -29 21 -52 93
-46 147 5 43 -8 88 -26 88 -4 0 -12 -14 -17 -31 -18 -62 -30 -43 -60 99 -18
86 -11 105 22 61 18 -24 21 -36 13 -46 -9 -9 -7 -19 5 -38 9 -14 18 -25 20
-25 7 0 -7 146 -15 154 -5 6 -9 25 -9 43 0 33 -33 107 -54 120 -6 5 -33 8 -60
9 -55 2 -58 5 -70 86 -6 41 -5 47 8 42 9 -3 16 -17 16 -29 0 -34 18 -77 30
-70 5 3 10 17 10 31 0 33 19 30 31 -6 7 -20 18 -30 31 -30 15 0 19 5 15 18
-32 102 -54 199 -47 205 4 5 16 7 26 5 15 -3 19 -12 17 -42 -2 -21 4 -48 12
-59 8 -12 15 -33 15 -47 0 -14 12 -52 25 -85 14 -33 25 -76 25 -95 0 -36 57
-225 83 -276 8 -16 17 -57 20 -92 3 -34 14 -80 25 -101 12 -22 18 -41 16 -44
-13 -12 57 -230 82 -258 13 -15 13 -17 -1 -23 -15 -5 -15 -8 -1 -28 9 -12 16
-32 16 -44 0 -27 10 -36 26 -23 11 9 11 16 -2 40 -9 19 -13 42 -9 62 5 23 -5
65 -35 152 -63 182 -150 500 -150 550 0 17 -6 39 -13 50 -8 11 -19 40 -25 65
-10 39 -9 47 5 58 10 7 23 10 30 8 16 -6 17 18 2 46 l-11 20 -14 -21 c-9 -12
-19 -21 -24 -21 -16 0 -49 85 -55 140 -3 30 -14 82 -24 115 -11 33 -39 132
-64 220 -24 87 -49 161 -55 163 -6 2 -8 -5 -5 -17 3 -12 0 -28 -7 -35 -9 -12
-7 -21 8 -43 11 -15 23 -46 27 -68 4 -21 13 -52 21 -67 14 -27 14 -28 -11 -28
-30 0 -39 18 -57 117 -6 38 -19 79 -27 93 l-16 24 -5 -33 -5 -33 -28 22 c-31
25 -48 19 -29 -10 16 -27 15 -60 -2 -60 -8 0 -16 10 -18 23 -5 35 -46 23 -100
-30 -31 -31 -52 -44 -63 -39 -18 6 -12 26 8 26 8 0 11 15 8 46 -3 46 -3 47 23
40 23 -6 26 -3 26 20 0 17 6 28 19 31 11 3 17 11 15 18 -11 29 16 23 32 -6 16
-31 16 -32 -5 -26 -25 6 -58 -20 -43 -35 15 -15 66 5 71 28 2 10 14 29 27 41
13 12 24 29 24 37 0 26 20 28 39 4 24 -29 38 -17 22 18 -10 23 -9 29 8 45 10
10 21 23 23 30 7 22 35 2 41 -30 4 -19 13 -31 23 -31 10 0 14 5 10 15 -3 9 3
20 14 27 11 7 20 20 20 30 0 9 4 19 9 23 15 9 25 -84 13 -122 -10 -32 -8 -36
24 -68 19 -19 34 -41 34 -49 0 -8 10 -22 22 -30 19 -14 20 -18 8 -40 -11 -21
-11 -31 0 -58 7 -18 20 -41 29 -51 10 -12 15 -41 16 -93 0 -46 5 -78 13 -83 6
-4 13 -22 14 -41 2 -19 11 -42 21 -50 13 -11 19 -32 22 -70 5 -84 23 -146 71
-245 53 -109 63 -145 40 -145 -9 0 -16 -8 -16 -20 0 -15 -9 -22 -30 -26 -51
-11 -56 -27 -32 -103 25 -76 55 -126 91 -150 l24 -15 -7 49 c-5 28 -14 68 -22
90 -11 34 -11 42 1 54 13 13 17 12 35 -4 23 -21 23 -21 11 22 -11 39 2 98 24
107 8 3 15 10 15 15 0 6 -6 8 -12 6 -7 -3 -19 -1 -25 3 -15 9 -45 101 -37 113
3 5 -4 21 -15 36 -12 16 -24 49 -27 74 -6 42 -4 48 15 54 19 6 21 11 15 38 -6
30 -15 42 -38 50 -4 1 -12 47 -17 101 -10 103 -31 155 -54 136 -10 -8 -15 0
-24 34 -15 61 -15 65 14 78 22 10 24 13 10 21 -9 5 -21 20 -26 35 -8 21 -12
23 -19 12 -16 -25 -12 24 4 56 13 25 13 31 -2 56 -9 16 -22 26 -28 24 -7 -3
-15 6 -18 20 -4 14 -10 22 -15 20 -5 -3 -11 5 -13 19 -3 13 -1 22 3 19 5 -3 9
0 9 7 0 8 5 7 17 -2 15 -12 16 -12 10 3 -3 9 -9 33 -13 52 -5 28 -11 36 -28
36 -26 0 -63 54 -45 66 7 4 9 23 6 50 -4 39 -3 42 13 34 25 -13 28 -6 22 53
-6 61 -25 95 -55 99 -21 3 -22 8 -23 113 -1 66 -7 130 -16 160 -11 36 -12 55
-4 67 8 13 6 22 -9 38 -12 13 -20 38 -22 63 -1 23 -5 56 -8 74 -6 25 -3 33 13
42 11 6 28 8 36 5 13 -5 16 2 16 34 0 44 11 60 28 39 12 -16 35 -145 27 -157
-4 -6 -13 -10 -21 -10 -10 0 -13 -12 -11 -50 2 -50 10 -63 21 -35 7 19 46 20
46 0 0 -8 -9 -19 -20 -25 -11 -6 -20 -19 -20 -29 0 -14 6 -17 25 -13 22 4 25
1 25 -27 0 -32 -8 -39 -27 -20 -8 8 -8 -1 0 -29 9 -35 14 -40 36 -39 20 2 27
-3 29 -21 3 -18 -1 -22 -19 -20 -20 3 -22 -1 -23 -79 -1 -61 2 -84 12 -88 37
-14 41 3 16 55 -12 24 -14 40 -8 59 12 32 38 34 42 4 2 -13 7 -23 12 -23 5 0
7 -13 4 -30 -4 -18 -1 -36 6 -45 6 -8 17 -36 24 -62 7 -26 17 -48 23 -48 17 0
27 -13 38 -51 7 -24 14 -31 23 -25 10 6 11 18 3 52 -5 24 -13 65 -16 92 -4 30
-11 47 -20 47 -17 0 -50 53 -63 103 -8 28 -7 37 2 37 10 0 41 -83 38 -102 -1
-3 5 -9 13 -12 19 -7 19 -8 -2 86 -9 45 -22 78 -29 78 -15 0 -24 33 -24 94 0
27 -4 63 -10 80 -5 17 -12 51 -15 76 -4 34 -15 55 -44 86 -34 35 -39 45 -36
82 2 23 -1 42 -6 42 -24 0 -39 62 -39 165 0 59 -5 115 -11 126 -7 15 -7 24 1
34 13 16 -27 188 -42 179 -11 -7 -58 42 -58 60 0 6 -3 21 -6 34 -5 16 -2 22 9
22 9 0 17 -13 21 -34 4 -19 14 -40 22 -47 14 -11 15 -8 8 27 -4 21 -10 41 -15
44 -11 7 -30 154 -20 158 8 3 -285 1329 -320 1447 -99 330 -348 536 -654 538
-58 1 -109 -5 -145 -16 -137 -41 -271 -155 -384 -325 -78 -117 -119 -201 -777
-1599 l-504 -1072 -21 42 c-12 23 -281 589 -597 1258 -317 669 -599 1255 -626
1302 -181 306 -398 443 -644 407 -260 -38 -450 -196 -557 -463 -17 -42 -47
-148 -66 -235 -19 -86 -37 -163 -40 -171 -2 -8 -28 22 -63 75 -166 251 -404
455 -691 593 -154 74 -262 111 -415 146 -272 61 -213 58 -1638 62 -828 3
-1308 0 -1305 -6 1 -5 160 -284 353 -620 l350 -611 1081 0 c1198 0 1131 4
1212 -66 24 -20 55 -62 74 -101 44 -90 51 -208 18 -307 -27 -83 -89 -154 -162
-187 l-53 -24 -938 -3 c-736 -2 -938 -5 -934 -15 3 -6 156 -284 340 -617 l334
-605 624 -5 c616 -5 625 -5 664 -27 179 -97 229 -360 102 -540 -39 -56 -89
-89 -162 -108 -51 -13 -170 -15 -850 -15 l-790 -1 -439 -619 c-242 -341 -442
-620 -445 -620 -9 0 -143 204 -234 355 -163 271 -367 716 -472 1029 -442 1327
-339 2760 288 4012 265 529 566 945 986 1364 434 433 852 732 1396 1000 922
454 1939 625 2955 499 998 -124 1956 -539 2725 -1181 928 -774 1561 -1851
1795 -3051 40 -206 68 -428 84 -674 l14 -198 107 -395 c133 -494 188 -686 276
-968 61 -197 253 -749 263 -760 6 -6 79 223 125 393 104 385 172 792 201 1205
13 186 13 655 0 835 -97 1341 -592 2568 -1456 3606 -161 194 -553 587 -744
746 -408 340 -788 587 -1265 823 -710 352 -1444 557 -2250 631 -118 10 -737
20 -825 13z m4027 -5706 c15 -19 31 -97 31 -145 -1 -45 18 -103 33 -103 5 0 6
27 2 60 -3 33 -2 60 3 60 5 0 10 -31 12 -68 l3 -68 -29 -2 c-33 -2 -38 5 -53
83 -12 60 -12 72 -3 108 5 23 3 29 -15 34 -14 3 -21 13 -21 29 0 26 21 32 37
12z m794 -220 c10 -13 18 -28 19 -34 0 -16 -36 -24 -49 -11 -17 17 -13 67 7
67 2 0 12 -10 23 -22z m-710 -87 c6 22 7 23 13 4 4 -11 12 -28 17 -37 15 -30
11 -43 -9 -25 -35 32 -44 22 -36 -42 4 -36 2 -61 -4 -65 -13 -8 -24 38 -16 69
4 15 2 25 -5 25 -7 0 -11 21 -11 53 l1 52 22 -29 21 -30 7 25z m749 -15 c29
-55 -26 -77 -58 -23 -15 24 -15 29 -2 37 25 16 46 11 60 -14z m-667 -88 c2 -7
-2 -20 -10 -30 -12 -13 -12 -20 -1 -37 9 -15 10 -23 1 -32 -27 -27 -66 18 -45
52 7 10 12 28 12 39 0 22 35 29 43 8z m247 -13 c0 -8 -4 -15 -10 -15 -5 0 -10
7 -10 15 0 8 5 15 10 15 6 0 10 -7 10 -15z m390 -4 c0 -6 -4 -13 -10 -16 -5
-3 -10 1 -10 9 0 9 5 16 10 16 6 0 10 -4 10 -9z m71 -81 c11 -40 17 -75 14
-79 -10 -9 -36 31 -30 46 2 8 -3 29 -12 47 -9 19 -13 42 -9 52 9 24 14 16 37
-66z m-477 44 c9 -8 16 -29 16 -45 0 -24 4 -29 24 -29 18 0 25 -7 29 -30 5
-21 11 -28 21 -24 11 4 17 -3 21 -23 4 -15 13 -45 21 -65 12 -32 12 -36 -1
-32 -14 6 -17 13 -30 68 -4 21 -9 26 -17 18 -8 -8 -18 -4 -38 17 -25 26 -28
27 -46 12 -15 -12 -19 -29 -19 -73 0 -54 -2 -58 -23 -58 -29 0 -38 23 -24 66
7 22 7 36 0 40 -18 11 -32 -16 -31 -57 2 -33 -2 -42 -17 -46 -25 -7 -28 -64
-5 -83 8 -7 15 -27 15 -45 0 -46 -48 -60 -64 -19 -9 22 -25 7 -19 -16 3 -12
-1 -28 -9 -38 -8 -9 -20 -30 -27 -46 -19 -45 -34 -18 -35 66 -1 60 -5 76 -21
89 -17 14 -18 20 -7 43 6 14 9 32 6 40 -3 7 2 16 10 19 11 4 13 15 9 42 -5 34
-4 37 18 33 13 -1 29 -13 35 -26 18 -37 27 -39 21 -5 -4 19 -2 35 4 39 14 8
29 -14 29 -43 0 -13 4 -23 9 -23 16 0 23 38 12 59 -12 22 0 36 24 27 12 -4 15
7 16 57 l1 62 16 -50 c19 -61 18 -59 38 -51 14 5 13 8 -6 24 -18 15 -20 21
-11 45 6 16 11 39 11 53 0 28 21 32 44 8z m-273 -64 c40 0 40 -35 -1 -58 -22
-13 -30 -25 -31 -47 -1 -29 -1 -29 -8 -5 -4 14 -11 54 -14 90 -6 61 -5 64 10
43 10 -15 26 -23 44 -23z m-274 -2 c-3 -8 -6 -5 -6 6 -1 11 2 17 5 13 3 -3 4
-12 1 -19z m53 -147 c12 -24 2 -60 -11 -39 -9 14 -12 58 -4 58 2 0 9 -9 15
-19z m560 -37 c0 -8 -7 -14 -16 -14 -12 0 -14 -7 -9 -29 3 -16 6 -49 6 -73 0
-58 7 -78 24 -72 10 4 12 15 8 35 -5 25 -3 29 17 29 18 0 22 -4 18 -25 -5 -23
-2 -25 28 -25 22 0 34 -5 34 -13 0 -23 -12 -28 -25 -10 -11 14 -13 13 -19 -10
-3 -14 -15 -29 -26 -32 -24 -8 -25 -18 -3 -52 17 -25 17 -26 -15 -53 -39 -32
-41 -62 -7 -102 17 -20 25 -42 25 -68 0 -39 13 -59 25 -40 9 15 25 2 25 -19 0
-10 9 -26 20 -36 21 -19 26 -50 10 -60 -16 -10 -11 -47 9 -69 11 -12 22 -33
26 -47 6 -23 3 -27 -23 -32 -39 -8 -44 -27 -27 -94 17 -64 19 -67 39 -60 25
10 51 58 55 101 1 5 8 3 17 -5 10 -8 14 -22 10 -39 -6 -31 17 -70 40 -70 10 0
14 -8 13 -22 -2 -13 3 -44 10 -69 11 -39 10 -53 -2 -88 l-14 -43 -11 44 c-6
23 -18 75 -28 113 -9 39 -21 74 -25 80 -12 12 -11 -16 0 -34 6 -10 5 -24 -4
-41 -8 -15 -11 -37 -8 -49 4 -15 -2 -27 -20 -41 -14 -11 -29 -29 -32 -40 -14
-43 -26 -16 -25 58 1 119 0 131 -11 137 -5 4 -13 -4 -18 -17 l-9 -23 -10 25
c-6 15 -6 34 0 49 5 16 5 28 -2 35 -17 17 -11 65 11 96 22 30 20 60 -5 60 -7
0 -16 -10 -20 -22 -4 -18 -8 -20 -18 -10 -8 8 -13 37 -12 77 0 62 -1 65 -28
74 -36 13 -52 49 -31 73 14 15 15 42 12 183 -1 48 8 139 15 156 6 13 -3 23
-35 40 -49 28 -59 45 -30 54 25 8 26 20 6 59 -20 38 -19 44 8 48 16 2 23 11
25 31 3 23 6 26 18 16 8 -6 14 -18 14 -25z m560 -69 c0 -8 -4 -15 -10 -15 -5
0 -10 7 -10 15 0 8 5 15 10 15 6 0 10 -7 10 -15z m-123 -52 c10 -29 7 -53 -7
-53 -11 0 -28 52 -23 68 7 20 20 14 30 -15z m99 -29 c14 -42 9 -66 -15 -62
-24 5 -37 52 -22 84 14 31 20 27 37 -22z m-173 15 c4 -15 2 -19 -10 -15 -8 3
-17 6 -19 6 -2 0 -4 7 -4 15 0 23 27 18 33 -6z m245 -61 c5 -7 13 -39 17 -72
6 -45 15 -66 38 -93 29 -33 30 -36 14 -48 -11 -8 -15 -19 -11 -30 9 -21 -15
-38 -33 -23 -7 6 -13 17 -13 24 0 18 -14 18 -30 -1 -22 -26 -50 -19 -50 13 0
15 5 33 11 39 8 8 5 14 -11 23 -19 10 -22 9 -27 -9 -5 -22 -18 -27 -27 -13
-10 17 7 52 25 52 12 0 21 11 27 33 l9 32 13 -52 c8 -29 19 -53 25 -53 16 0
39 51 26 59 -7 4 -31 103 -31 128 0 8 19 2 28 -9z m-954 -91 c9 -38 16 -81 16
-97 0 -16 5 -32 10 -35 6 -4 8 -10 5 -15 -3 -4 2 -21 10 -36 8 -16 15 -39 15
-51 0 -12 5 -25 10 -28 18 -11 11 -45 -9 -45 -25 0 -76 46 -61 55 5 3 14 4 19
0 5 -3 13 -1 16 5 9 14 -4 72 -15 65 -7 -4 -11 18 -23 125 -2 20 -10 45 -17
56 -11 18 -7 84 5 73 2 -2 11 -35 19 -72z m102 -62 c3 -19 12 -39 20 -46 8 -7
11 -21 7 -40 -5 -25 -2 -31 16 -36 16 -4 20 -10 15 -22 -4 -9 -9 -33 -12 -53
-4 -39 -21 -49 -41 -25 -20 25 -39 120 -28 145 8 16 7 26 -1 34 -7 7 -12 26
-12 43 0 57 25 57 36 0z m83 -11 c1 -10 9 -26 17 -35 13 -14 12 -18 -1 -29
-21 -17 -31 -5 -40 49 -6 34 -4 42 6 39 8 -3 16 -13 18 -24z m93 -24 c1 -27 2
-60 2 -72 1 -32 -17 -32 -31 -1 -17 38 -5 123 17 123 5 0 11 -22 12 -50z m483
28 c6 -29 9 -76 6 -108 -2 -22 -4 -20 -17 15 -24 62 -28 115 -10 115 9 0 18
-10 21 -22z m-55 -44 c0 -8 -4 -14 -10 -14 -5 0 -10 9 -10 21 0 11 5 17 10 14
6 -3 10 -13 10 -21z m175 -73 c3 -5 1 -12 -5 -16 -5 -3 -10 1 -10 9 0 18 6 21
15 7z m-906 -39 c0 -24 -1 -25 -9 -7 -12 28 -12 47 0 40 6 -3 10 -18 9 -33z
m539 10 c2 -15 -2 -22 -12 -22 -9 0 -16 4 -16 9 0 5 -3 17 -6 26 -5 13 -2 16
12 13 11 -2 20 -13 22 -26z m452 -66 c0 -46 -21 -17 -26 35 -5 43 -5 43 10 19
8 -14 15 -38 16 -54z m17 52 c-3 -8 -6 -5 -6 6 -1 11 2 17 5 13 3 -3 4 -12 1
-19z m-699 -21 c3 -13 -3 -17 -27 -17 -34 0 -36 -2 -20 -32 8 -14 8 -27 1 -43
-7 -15 -7 -26 0 -33 5 -5 8 -18 6 -28 -3 -15 -9 -12 -28 18 -49 74 -61 36 -30
-91 14 -53 25 -116 26 -141 1 -25 7 -65 14 -90 6 -25 14 -64 17 -87 4 -38 3
-43 -15 -43 -14 0 -21 9 -25 29 -3 16 -9 40 -13 55 -5 20 -2 26 11 26 20 0 13
30 -17 72 -11 17 -16 33 -11 40 12 20 3 51 -19 69 -16 12 -23 34 -30 90 -16
134 -17 124 22 126 19 1 41 2 48 2 7 1 12 17 12 45 0 38 3 45 23 49 36 7 52 3
55 -16z m613 13 c21 -12 26 -45 8 -56 -14 -8 -26 5 -34 39 -8 30 -4 32 26 17z
m-105 -35 c3 -19 4 -41 1 -49 -3 -8 10 -45 29 -82 19 -36 34 -73 34 -82 0 -8
9 -29 20 -47 17 -27 18 -37 9 -64 -9 -25 -8 -36 5 -56 9 -13 16 -33 16 -45 0
-11 5 -20 10 -20 19 0 10 -32 -10 -37 -11 -3 -20 -12 -20 -19 0 -19 -10 -18
-26 4 -13 16 -15 16 -34 -7 -11 -13 -20 -31 -20 -41 0 -10 -7 -23 -15 -30 -8
-6 -13 -21 -12 -32 4 -40 -21 -29 -28 12 -5 30 -11 40 -23 38 -9 -2 -18 5 -20
15 -6 31 47 20 62 -13 3 -8 4 20 1 63 -5 65 -3 77 10 77 8 0 15 7 15 15 0 9
11 20 24 24 40 16 45 61 7 61 -15 0 -19 8 -19 40 -1 50 -7 60 -37 60 -30 0
-42 23 -44 88 -1 27 -5 32 -26 32 -18 0 -25 5 -25 20 0 24 15 27 24 4 4 -10
15 -14 33 -12 26 3 27 5 24 50 -1 26 0 52 4 58 12 19 24 10 31 -25z m-269
-121 c3 -21 15 -51 25 -65 14 -18 17 -34 13 -52 -8 -30 -35 -37 -36 -9 -2 45
-21 136 -31 149 -12 15 0 39 13 26 6 -6 13 -27 16 -49z m-187 -41 c13 -44 12
-47 -9 -64 -21 -17 -87 -36 -96 -28 -2 2 -5 24 -7 49 -3 43 -2 45 25 48 15 2
27 9 27 17 0 12 12 18 41 24 4 0 12 -20 19 -46z m-242 -2 c-2 -13 -7 -18 -15
-13 -7 4 -10 17 -6 31 7 28 26 13 21 -18z m682 -91 c0 -5 -5 -10 -11 -10 -5 0
-7 5 -4 10 3 6 8 10 11 10 2 0 4 -4 4 -10z m185 -140 c-5 -8 -11 -8 -17 -2 -6
6 -7 16 -3 22 5 8 11 8 17 2 6 -6 7 -16 3 -22z m-223 -44 c3 -15 0 -27 -8 -30
-18 -7 -27 10 -19 34 9 27 22 25 27 -4z m-612 -25 c0 -10 -8 -25 -17 -32 -10
-7 -15 -10 -11 -5 4 4 3 19 -2 32 -8 20 -6 24 10 24 13 0 20 -7 20 -19z m10
-61 c0 -5 -4 -10 -10 -10 -5 0 -10 5 -10 10 0 6 5 10 10 10 6 0 10 -4 10 -10z
m200 -14 c0 -18 -16 -29 -30 -21 -13 8 -1 35 16 35 8 0 14 -6 14 -14z m-191
-80 c14 -56 14 -56 -3 -56 -8 0 -16 14 -18 33 -3 17 -8 40 -13 50 -5 12 -3 17
8 17 9 0 19 -17 26 -44z m171 -13 c0 -10 -20 -40 -20 -31 0 3 -3 13 -6 22 -4
11 -1 16 10 16 9 0 16 -3 16 -7z m282 -38 c10 -4 32 0 49 9 25 12 31 13 35 1
7 -18 40 -25 53 -12 8 8 6 16 -6 29 -15 17 -15 18 1 18 20 0 36 -39 36 -88 l0
-37 -23 29 c-30 37 -47 27 -47 -28 0 -23 -3 -45 -6 -49 -14 -13 -34 7 -34 34
0 45 -27 49 -62 10 -28 -31 -30 -51 -4 -51 8 0 16 -12 18 -27 3 -16 9 -36 13
-46 6 -14 2 -20 -14 -24 -12 -3 -21 -13 -21 -24 0 -10 -10 -23 -21 -30 -20
-10 -21 -9 -16 11 3 12 1 30 -6 40 -8 14 -8 28 0 54 9 29 8 38 -7 53 -24 26
-36 52 -44 93 -4 21 -3 31 3 25 5 -6 11 -19 13 -30 5 -27 30 -30 46 -5 9 15 9
24 1 39 -7 10 -9 26 -5 37 8 18 9 18 18 -3 6 -13 19 -25 30 -28z m346 17 c3
-17 -2 -22 -17 -22 -29 0 -26 -11 10 -40 26 -22 31 -34 36 -88 l6 -62 -32 16
c-29 14 -32 20 -29 52 4 44 -20 64 -53 44 -18 -11 -24 -11 -40 4 -10 9 -19 28
-19 42 0 22 3 24 40 20 38 -3 40 -2 40 23 0 43 52 53 58 11z m-527 -36 c13
-14 11 -26 -5 -26 -8 0 -16 13 -18 30 -5 33 5 54 10 23 2 -10 8 -22 13 -27z
m-54 -35 c4 -14 7 -44 7 -66 1 -35 -2 -40 -21 -40 -13 0 -23 -4 -23 -8 0 -4 0
-11 0 -17 0 -5 11 -10 25 -10 30 0 33 -20 5 -27 -22 -6 -22 -6 -14 -27 3 -9
13 -16 21 -16 10 0 14 -7 10 -20 -3 -11 -1 -23 4 -26 14 -9 10 -34 -6 -34 -8
0 -19 9 -25 19 -8 16 -17 19 -48 14 -47 -7 -51 -11 -28 -29 19 -14 19 -14 -2
-14 -11 0 -28 9 -36 21 -8 12 -19 19 -24 15 -5 -3 -14 6 -21 20 -9 20 -8 30 4
47 8 12 15 29 15 39 0 12 13 21 41 28 39 11 40 12 33 43 -22 88 3 142 32 72
18 -45 31 -39 15 6 -15 44 -14 48 9 42 11 -3 23 -17 27 -32z m-177 -62 c0 -11
-4 -17 -10 -14 -5 3 -10 15 -10 26 0 11 5 17 10 14 6 -3 10 -15 10 -26z m700
-24 c0 -8 -7 -15 -15 -15 -16 0 -20 12 -8 23 11 12 23 8 23 -8z m-90 -67 c0
-16 -3 -17 -20 -8 -20 11 -27 40 -13 54 10 10 33 -23 33 -46z m-125 12 c-3 -5
-11 -10 -16 -10 -6 0 -7 5 -4 10 3 6 11 10 16 10 6 0 7 -4 4 -10z m-187 -58
c-2 -8 -8 -17 -14 -19 -13 -4 -27 24 -19 37 9 14 36 -1 33 -18z m272 -21 c0
-16 -6 -34 -13 -40 -11 -8 -16 -3 -24 24 -9 29 -8 37 5 44 23 13 32 5 32 -28z
m-316 -27 c9 -24 7 -62 -3 -69 -15 -9 -32 32 -25 60 7 28 19 32 28 9z m106
-19 c0 -16 23 -18 55 -6 22 9 45 -4 45 -26 0 -22 -43 -33 -57 -14 -9 12 -16
14 -30 5 -18 -11 -22 -57 -9 -109 4 -15 1 -25 -9 -29 -8 -3 -15 -12 -15 -19 0
-10 -16 -16 -47 -20 -27 -3 -49 -4 -51 -3 -7 7 12 95 19 90 16 -9 49 7 49 24
0 8 10 27 23 40 15 17 18 26 10 29 -14 5 -18 35 -6 46 11 12 23 8 23 -8z
m-166 -107 c22 -31 21 -60 -1 -56 -12 2 -17 11 -15 26 2 13 -2 30 -8 38 -8 9
-9 14 -2 14 6 0 18 -10 26 -22z m141 -158 c0 -17 -3 -30 -7 -30 -12 0 -30 41
-24 56 9 24 31 5 31 -26z m415 -186 c0 -13 -4 -24 -9 -24 -11 0 -21 25 -21 52
0 17 3 18 15 8 8 -7 15 -23 15 -36z m-120 -98 c-7 -7 -10 1 -9 25 0 32 1 33
10 10 6 -16 6 -28 -1 -35z m-30 8 c0 -13 -4 -24 -10 -24 -5 0 -10 14 -10 31 0
17 4 28 10 24 6 -3 10 -17 10 -31z m-111 -18 c8 -20 11 -40 7 -43 -12 -12 -40
12 -48 42 -15 58 19 59 41 1z m68 -34 c6 -23 8 -42 5 -42 -11 0 -42 56 -42 75
0 31 24 9 37 -33z m-203 -77 c3 -9 0 -15 -9 -15 -8 0 -15 7 -15 15 0 8 4 15 9
15 5 0 11 -7 15 -15z m747 -56 c9 -17 8 -23 -2 -30 -17 -10 -55 24 -45 40 11
18 34 13 47 -10z m-471 -121 c0 -25 -3 -29 -10 -18 -13 20 -13 50 0 50 6 0 10
-15 10 -32z m154 15 c8 -19 -8 -38 -23 -29 -16 10 -13 46 3 46 8 0 17 -8 20
-17z m-114 -19 c0 -8 -4 -12 -10 -9 -5 3 -10 10 -10 16 0 5 5 9 10 9 6 0 10
-7 10 -16z m65 -44 c4 -16 11 -32 16 -35 12 -8 12 -42 0 -49 -5 -3 -15 21 -24
54 -8 33 -11 60 -7 60 5 0 11 -13 15 -30z m-86 -33 c0 -27 -2 -29 -9 -12 -12
28 -12 57 0 50 6 -3 10 -21 9 -38z m19 -62 c7 -14 12 -34 12 -45 0 -10 4 -21
9 -24 4 -3 11 -24 15 -47 5 -28 12 -43 26 -46 35 -9 68 -133 35 -133 -23 0
-43 39 -57 110 -10 51 -18 67 -35 75 -19 8 -23 18 -23 57 0 25 -3 53 -6 62
-10 27 12 18 24 -9z m57 -16 c4 -11 14 -18 27 -16 16 2 23 -7 34 -43 16 -52
12 -60 -17 -34 -11 10 -28 19 -37 19 -12 0 -20 15 -28 52 -9 42 -9 51 2 46 7
-3 16 -13 19 -24z m-103 -211 c-6 -6 -15 -7 -21 -4 -16 10 -13 36 4 42 8 4 16
16 17 28 1 11 3 4 5 -18 3 -21 0 -43 -5 -48z m196 -160 c26 -52 31 -76 18 -88
-11 -8 -16 -4 -25 21 -6 17 -8 35 -6 39 3 5 1 11 -5 15 -12 7 -13 35 -2 35 5
0 14 -10 20 -22z m25 -128 c3 -11 1 -18 -4 -14 -5 3 -9 12 -9 20 0 20 7 17 13
-6z m26 -110 l-1 -25 -8 25 c-4 14 -8 32 -9 40 -1 13 0 13 9 0 5 -8 9 -26 9
-40z"/>
<path d="M19132 10429 c-18 -7 -23 -15 -20 -36 3 -25 7 -28 33 -25 38 5 46 12
39 39 -7 27 -22 33 -52 22z"/>
<path d="M20168 10064 c-5 -4 -8 -16 -8 -26 0 -24 31 -96 36 -83 6 16 -20 117
-28 109z"/>
<path d="M19045 9805 c-3 -8 -7 -21 -9 -28 -2 -8 0 -20 4 -28 5 -8 5 -19 -1
-26 -13 -15 9 -83 27 -83 6 0 17 14 24 31 11 25 11 38 1 66 -7 19 -10 37 -7
40 7 8 -13 43 -25 43 -5 0 -12 -7 -14 -15z"/>
<path d="M20305 9098 c1 -24 5 -50 8 -58 3 -8 8 -33 12 -55 15 -92 25 -116 48
-113 24 3 36 36 17 48 -6 4 -14 26 -17 49 l-6 42 27 -11 c25 -9 27 -8 24 12
-2 16 -10 23 -25 24 -34 2 -52 22 -55 62 -2 24 -8 38 -19 40 -13 2 -16 -5 -14
-40z"/>
<path d="M20180 9075 c-7 -8 -9 -15 -4 -15 5 0 1 -5 -9 -11 -18 -10 -15 -52 5
-74 13 -14 29 15 23 43 -3 12 -1 22 5 22 12 0 13 37 1 44 -5 3 -14 -1 -21 -9z"/>
<path d="M20421 8964 c0 -11 3 -14 6 -6 3 7 2 16 -1 19 -3 4 -6 -2 -5 -13z"/>
<path d="M20020 8791 c0 -6 5 -13 10 -16 6 -3 10 1 10 9 0 9 -4 16 -10 16 -5
0 -10 -4 -10 -9z"/>
<path d="M20456 8755 c8 -37 14 -45 14 -19 0 10 -5 26 -10 34 -8 11 -9 7 -4
-15z"/>
<path d="M20065 8730 c-4 -6 -3 -16 3 -22 13 -13 23 4 13 21 -7 10 -10 10 -16
1z"/>
<path d="M20113 8559 c-9 -11 -8 -19 3 -33 17 -24 18 -60 2 -85 -12 -19 -5
-51 11 -51 17 0 20 46 8 114 -10 53 -15 65 -24 55z"/>
<path d="M19407 8513 c-7 -12 11 -53 23 -53 5 0 10 14 10 30 0 28 -21 42 -33
23z"/>
<path d="M20470 8477 c0 -13 7 -30 15 -37 13 -11 15 -9 15 13 0 13 -7 30 -15
37 -13 11 -15 9 -15 -13z"/>
<path d="M19372 8428 c-7 -7 -12 -21 -12 -32 0 -17 -2 -18 -10 -6 -9 13 -10
13 -10 0 0 -36 16 -40 38 -10 12 16 22 34 22 39 0 16 -16 21 -28 9z"/>
<path d="M19495 8400 c11 -53 27 -73 21 -26 -3 22 -10 44 -17 50 -8 8 -9 2 -4
-24z"/>
<path d="M20490 8402 c0 -11 9 -27 20 -37 24 -22 25 -14 5 25 -18 34 -25 38
-25 12z"/>
<path d="M20201 8315 c0 -11 4 -27 9 -35 9 -13 10 -13 9 0 0 8 -4 24 -9 35
l-9 20 0 -20z"/>
<path d="M20527 8323 c-5 -7 -1 -45 7 -85 17 -82 55 -194 55 -163 0 11 -4 29
-8 40 -5 11 -4 25 1 32 6 7 1 32 -12 70 -12 32 -24 71 -28 88 -5 19 -10 26
-15 18z"/>
<path d="M20200 8096 c0 -3 5 -17 10 -32 13 -33 36 -19 25 15 -5 17 -35 31
-35 17z"/>
<path d="M19421 8034 c0 -11 3 -14 6 -6 3 7 2 16 -1 19 -3 4 -6 -2 -5 -13z"/>
<path d="M19540 8006 c0 -19 5 -26 20 -26 16 0 18 4 11 22 -12 32 -31 34 -31
4z"/>
<path d="M20240 7965 c0 -17 47 -51 57 -41 3 3 1 17 -5 31 -13 27 -52 35 -52
10z"/>
<path d="M19446 7915 c9 -38 12 -41 26 -27 10 10 7 17 -11 35 l-22 22 7 -30z"/>
<path d="M19530 7910 c0 -5 5 -10 10 -10 6 0 10 5 10 10 0 6 -4 10 -10 10 -5
0 -10 -4 -10 -10z"/>
<path d="M19536 7779 c4 -13 7 -41 6 -61 0 -21 3 -38 9 -38 9 0 13 16 9 35 -1
6 -3 25 -4 44 0 19 -7 36 -15 39 -10 3 -11 -2 -5 -19z"/>
<path d="M20476 7633 c3 -13 11 -56 18 -95 10 -54 15 -68 21 -54 9 20 -5 84
-30 138 -8 18 -12 23 -9 11z"/>
<path d="M20514 7431 c3 -18 6 -40 6 -47 0 -8 5 -14 10 -14 16 0 12 54 -6 76
-15 18 -15 17 -10 -15z"/>
<path d="M20400 7437 c0 -8 14 -33 30 -55 17 -23 30 -51 30 -62 0 -23 13 -26
28 -7 7 8 7 18 2 27 -6 8 -10 33 -10 55 0 24 -3 35 -8 27 -7 -9 -13 -8 -27 8
-21 23 -45 26 -45 7z"/>
<path d="M20533 7325 c3 -11 9 -37 13 -57 3 -21 10 -36 14 -33 8 5 -14 93 -26
104 -4 3 -4 -3 -1 -14z"/>
<path d="M19910 7233 c0 -3 11 -25 24 -48 16 -26 23 -50 19 -63 -3 -12 -1 -22
5 -22 6 0 14 -9 17 -20 8 -26 22 -26 30 1 4 13 1 27 -10 39 -10 11 -14 26 -10
42 5 20 2 26 -14 31 -13 3 -21 13 -21 26 0 14 -6 21 -20 21 -11 0 -20 -3 -20
-7z"/>
<path d="M20052 7118 c-18 -18 -15 -42 8 -63 20 -18 20 -17 19 11 -1 46 -12
67 -27 52z"/>
<path d="M20412 7093 c5 -25 28 -28 28 -4 0 12 -6 21 -16 21 -9 0 -14 -7 -12
-17z"/>
<path d="M20265 6999 c-11 -33 9 -45 41 -24 20 13 28 14 34 5 4 -7 16 -10 26
-8 14 4 8 10 -26 26 -57 27 -67 27 -75 1z"/>
<path d="M20090 6981 c0 -11 5 -23 10 -26 6 -3 10 3 10 14 0 11 -4 23 -10 26
-5 3 -10 -3 -10 -14z"/>
<path d="M9869 3420 c-212 -34 -405 -214 -448 -418 -38 -182 13 -348 148 -482
124 -123 237 -170 411 -170 98 0 180 16 257 50 l43 19 0 80 0 80 -64 -30
c-206 -96 -414 -64 -555 86 -77 83 -106 165 -99 281 9 142 113 284 245 335
118 45 263 36 414 -25 l59 -24 0 79 0 79 -33 14 c-99 41 -274 62 -378 46z"/>
<path d="M14769 3385 c-12 -27 -116 -259 -231 -515 -116 -256 -212 -471 -215
-477 -4 -10 14 -13 69 -13 l73 0 56 128 56 127 217 0 218 0 56 -127 57 -128
73 0 c39 0 72 2 72 4 0 6 -448 994 -465 1026 l-14 25 -22 -50z m105 -448 c42
-93 76 -170 76 -173 0 -2 -70 -4 -156 -4 -152 0 -155 1 -149 20 4 11 34 80 67
153 33 72 64 143 69 156 5 13 11 22 13 20 2 -2 38 -80 80 -172z"/>
<path d="M13033 3392 l-153 -3 0 -504 0 -505 280 0 280 0 0 70 0 70 -215 0
-215 0 2 173 3 172 213 3 212 2 0 65 0 65 -212 2 -213 3 0 125 0 125 213 3
212 2 0 70 0 69 -127 -2 c-71 -1 -197 -3 -280 -5z"/>
<path d="M16070 3329 l0 -69 108 -1 c59 -1 113 -1 120 0 9 2 12 -92 12 -439
l0 -440 70 0 70 0 0 440 0 440 120 0 120 0 0 69 0 70 -310 0 -310 -1 0 -69z"/>
<path d="M11280 2886 l0 -506 70 0 70 0 0 211 c0 180 2 210 15 207 8 -2 76
-95 152 -208 l138 -205 83 -3 83 -3 -145 215 c-80 118 -146 217 -146 220 0 3
8 6 18 6 30 0 136 56 170 90 58 57 77 105 77 195 0 69 -4 86 -27 126 -34 58
-76 94 -148 128 -52 24 -66 26 -232 29 l-178 4 0 -506z m300 373 c88 -19 140
-80 140 -164 0 -86 -43 -133 -146 -160 -32 -8 -80 -15 -106 -15 l-48 0 0 175
0 175 55 0 c29 0 77 -5 105 -11z"/>
<path d="M17660 2885 l0 -505 70 0 70 0 0 505 0 505 -70 0 -70 0 0 -505z"/>
<path d="M18764 3358 c63 -149 439 -995 444 -1000 4 -4 110 223 236 505 126
282 231 516 234 520 2 4 -31 7 -73 5 l-76 -3 -147 -330 c-81 -181 -152 -341
-158 -354 -9 -20 -29 20 -168 333 l-158 356 -74 0 -74 0 14 -32z"/>
<path d="M20620 2885 l0 -505 280 0 280 0 0 70 0 70 -210 0 -210 0 0 175 0
175 210 0 210 0 0 65 0 65 -210 0 -210 0 0 130 0 130 210 0 210 0 0 65 0 65
-280 0 -280 0 0 -505z"/>
</g>
</svg>
