<?xml version="1.0" encoding="UTF-8"?><svg id="a" xmlns="http://www.w3.org/2000/svg" xmlns:xlink="http://www.w3.org/1999/xlink" viewBox="0 0 2159.02 2100"><defs><style>.c{fill:#537f62;}.d{fill:#d85644;}.e{fill:#868583;}.f{fill:#fff;}.g{fill:#c44639;}.h{fill:#e5bb98;}.i{fill:#dda050;}.j{fill:#a8cce6;}.k{fill:#e8cfca;}.l{fill:#3a4e70;}.m{fill:#f2c19c;}.n{fill:#434340;}.o,.p{fill:#578265;}.q{fill:#74a085;}.r{fill:#c4a8a1;}.s{fill:#2d2d29;}.t{fill:#efb259;}.u{clip-path:url(#b);}.v{fill:#d8bfb8;}.w{opacity:.47;}.x{fill:#e89a85;}.y{fill:#507f63;}.a`{fill:#fea78b;}.aa{fill:none;}.ab{fill:#e4654c;}.ac{fill:#566b91;}.ad{fill:#e8e3e2;opacity:.64;}.ae{fill:#ad8366;}.p{opacity:.68;}.af{fill:#485a80;}.ag{fill:#d3a584;}.ah{fill:#e8f1f7;}.ai{fill:#648e73;}.aj{fill:#e1e6ea;}</style><clipPath id="b"><path class="aa" d="M1731.9,1209.72c.8,48.1,2.64,96.17,3.64,144.26,1,48.03,.55,96.4-7.41,143.9-13.38,79.77-50.25,156.57-120.51,200.73-33.69,21.17-71.62,34.49-109.92,44.57-40.72,10.72-82.32,18.6-123.69,26.33-46.55,8.69-93.32,14.79-140.73,15.21-47.89,.43-95.7-3.72-143.19-9.58-93.72-11.56-438.93-43.47-530.64-132.6-52.07-50.6-81.1-97.58-89.92-207.94-2.99-26.84,2.8-176.32-1.93-244.31-6.59-94.7-6.06-189.81,9.21-283.69,7.36-45.27,16.68-90.45,18.33-136.42,1.72-47.93-4.47-95.78-2.26-143.7,2.17-47.16,12.05-93.51,22.56-139.4,4.58-20,10.62-38.63,21.08-56.43,10.24-17.42,23.16-33.21,37.79-47.12,27.23-25.89,59.78-43.56,95.87-53.62,33.88-9.44,69.2-13.31,104.27-14.37,29.58-.9,59.26,.23,88.68,3.39,28.77,3.09,56.8,10.28,85.58,13.32,46.91,4.96,94.19,3.71,141.28,4.18,43.11,.43,86.22,1.33,129.27,3.68,80.71,4.41,160.64,15.24,239.61,32.49,30.1,6.57,60.14,13.72,89.92,21.66,26.84,7.16,56.62,13.14,77.99,31.98,15.06,13.28,26.61,29.94,37.14,46.9,11.33,18.25,21.65,37.14,30.94,56.51,18.89,39.39,33.46,80.84,43.49,123.36,10.03,42.51,15.48,86.1,16.09,129.78,.66,47.25-4.71,94.27-10.04,141.13-5.33,46.85-9.58,93.69-11.41,140.83-1.88,48.3-1.87,96.65-1.07,144.97Z"/></clipPath></defs><rect class="f" x="59.02" width="2100" height="2100"/><g class="u"><path class="ad" d="M1861.33,158.46h-6.8v470.59c-51.17-21.07-102.33-42.14-153.5-63.21V158.46h-6.8v404.57c-22.7-9.35-45.41-18.7-68.11-28.05-28.46-11.72-56.93-23.44-85.39-35.16V158.46h-6.8V497.02c-48.76-20.08-97.52-40.16-146.28-60.24V158.46h-6.8V433.98c-36.16-14.89-72.31-29.78-108.47-44.67-18.64-7.68-37.29-15.35-55.93-23.03V158.46h-6.8v205.02c-59.17-24.37-118.34-48.73-177.51-73.1V158.46h-6.8v129.12c-27.62-11.37-55.23-22.74-82.85-34.12-30.83-12.7-61.66-25.39-92.49-38.09v-56.92h-6.8v54.11c-43.8-18.04-87.61-36.08-131.41-54.11h-20.69c50.7,20.88,101.4,41.76,152.1,62.63v214.85c-55.54-22.87-111.07-45.74-166.61-68.61V158.46h-6.8v206.07c-2.04-.84-4.09-1.68-6.13-2.52l-137.82-56.75V158.46h-6.8v143.99c-18.65-7.68-37.3-15.36-55.96-23.04-31.69-13.05-63.26-26.74-95.13-39.17-1.38-.54-2.75-1.13-4.12-1.7-4.14-1.71-5.93,6.08-1.81,7.77,21.71,8.94,43.42,17.88,65.12,26.82,30.63,12.61,61.26,25.23,91.89,37.84v198.21c-18.65-7.68-37.3-15.36-55.96-23.04-31.69-13.05-63.26-26.74-95.13-39.17-1.38-.54-2.75-1.13-4.12-1.7-4.14-1.71-5.93,6.08-1.81,7.77,21.71,8.94,43.42,17.88,65.12,26.82,30.63,12.61,61.26,25.23,91.89,37.84v214.06c-18.65-7.68-37.3-15.36-55.96-23.04-31.69-13.05-63.26-26.74-95.13-39.17-1.38-.54-2.75-1.13-4.12-1.7-4.14-1.71-5.93,6.08-1.81,7.77,21.71,8.94,43.42,17.88,65.12,26.82,30.63,12.61,61.26,25.23,91.89,37.84v188.98c-18.65-7.68-37.3-15.36-55.96-23.04-31.69-13.05-63.26-26.74-95.13-39.17-1.38-.54-2.75-1.13-4.12-1.7-4.14-1.71-5.93,6.08-1.81,7.77,21.71,8.94,43.42,17.88,65.12,26.82,30.63,12.61,61.26,25.23,91.89,37.84v811.28c0,11.71-.07,23.42-.11,35.14,1.58,.1,3.15,.2,4.73,.3,.73,.05,1.45,.09,2.18,.13V940.59c26.18,10.78,52.37,21.56,78.55,32.35,21.8,8.98,43.6,17.95,65.4,26.93v749.2c0,14.76-.11,29.53-.13,44.3,2.31,.14,4.63,.26,6.94,.4V1002.67c55.54,22.87,111.07,45.74,166.61,68.61v677.79c0,17.88-.15,35.78-.14,53.68,2.31,.11,4.63,.23,6.94,.34v-729.01c5.52,2.27,11.03,4.54,16.55,6.82,52.93,21.8,105.86,43.59,158.79,65.39v602.79c0,20.52-.2,41.06-.12,61.58,2.31,.09,4.62,.19,6.92,.28v-661.84c51.43,21.18,102.87,42.36,154.3,63.54l23.2,9.56v526.89c0,23.15-.26,46.32-.07,69.47,2.29,.11,4.58,.22,6.88,.34v-593.89c54.8,22.57,109.6,45.13,164.4,67.7v456.39c0,25.59-.32,51.21,0,76.8,0,.75,0,1.5,0,2.26,2.27,.14,4.54,.28,6.8,.42v-533.06c48.76,20.08,97.52,40.16,146.28,60.24v393.35c0,25.59-.32,51.21,0,76.8,.01,1.12,0,2.24,0,3.36,0,5.19,6.8,5.2,6.8,0v-470.7c51.17,21.07,102.34,42.14,153.51,63.21v327.33c0,25.59-.32,51.21,0,76.8,.01,1.12,0,2.24,0,3.36,0,5.19,6.8,5.2,6.8,0v-404.69c51.17,21.07,102.33,42.14,153.5,63.21v366.41c2.27,.08,4.54,.17,6.8,.25v-363.86c9.75,4.02,19.51,8.03,29.26,12.05l44.49,18.32v-8.52c-24.58-10.12-49.17-20.25-73.75-30.37v-188.98c9.75,4.02,19.51,8.03,29.26,12.05,14.83,6.11,29.66,12.21,44.49,18.32v-8.52c-24.58-10.12-49.17-20.25-73.75-30.37v-214.06c9.75,4.02,19.51,8.03,29.26,12.05,14.83,6.11,29.66,12.21,44.49,18.32v-8.52c-24.58-10.12-49.17-20.25-73.75-30.37v-198.21c9.75,4.02,19.51,8.03,29.26,12.05,14.83,6.11,29.66,12.21,44.49,18.32v-8.52c-24.58-10.12-49.17-20.25-73.75-30.37v-214.85c9.75,4.02,19.51,8.03,29.26,12.05,14.83,6.11,29.66,12.21,44.49,18.32v-8.52c-24.58-10.12-49.17-20.25-73.75-30.37V158.46ZM669.75,991.35c-2.04-.84-4.09-1.68-6.13-2.52l-137.82-56.75v-188.98c26.18,10.78,52.37,21.56,78.55,32.35,21.8,8.98,43.6,17.95,65.4,26.93v188.98Zm0-197.5c-2.04-.84-4.09-1.68-6.13-2.52l-137.82-56.75v-214.06c26.18,10.78,52.37,21.56,78.55,32.35,21.8,8.98,43.6,17.95,65.4,26.93v214.06Zm0-222.58c-2.04-.84-4.09-1.68-6.13-2.52l-137.82-56.75v-198.21c26.18,10.78,52.37,21.56,78.55,32.35,21.8,8.98,43.6,17.95,65.4,26.93v198.21Zm173.41,491.5c-55.54-22.87-111.07-45.74-166.61-68.61v-188.98c55.54,22.87,111.07,45.74,166.61,68.61v188.98Zm0-197.5c-55.54-22.87-111.07-45.74-166.61-68.61v-214.06c55.54,22.87,111.07,45.74,166.61,68.61v214.06Zm0-222.58c-55.54-22.87-111.07-45.74-166.61-68.61v-198.21c55.54,22.87,111.07,45.74,166.61,68.61v198.21Zm182.14,495.09c-27.62-11.37-55.23-22.74-82.85-34.12-30.83-12.7-61.66-25.39-92.49-38.09v-188.98c5.52,2.27,11.03,4.54,16.55,6.82,52.93,21.8,105.86,43.59,158.79,65.39v188.98Zm0-197.5c-27.62-11.37-55.23-22.74-82.85-34.12-30.83-12.7-61.66-25.39-92.49-38.09v-214.06c5.52,2.27,11.03,4.54,16.55,6.82,52.93,21.8,105.86,43.59,158.79,65.39v214.06Zm0-222.58c-27.62-11.37-55.23-22.74-82.85-34.12-30.83-12.7-61.66-25.39-92.49-38.09v-198.21c5.52,2.27,11.03,4.54,16.55,6.82,52.93,21.8,105.86,43.59,158.79,65.39v198.21Zm0-206.73c-27.62-11.37-55.23-22.74-82.85-34.12-30.83-12.7-61.66-25.39-92.49-38.09V223.9c5.52,2.27,11.03,4.54,16.55,6.82,52.93,21.8,105.86,43.59,158.79,65.39v214.85Zm184.31,702.71c-59.17-24.37-118.34-48.73-177.51-73.1v-188.98c51.43,21.18,102.87,42.36,154.3,63.54,7.73,3.19,15.47,6.37,23.2,9.56v188.98Zm0-197.5c-59.17-24.37-118.34-48.73-177.51-73.1v-214.06c51.43,21.18,102.87,42.36,154.3,63.54,7.73,3.19,15.47,6.37,23.2,9.56v214.06Zm0-222.58c-59.17-24.37-118.34-48.73-177.51-73.1v-198.21c51.43,21.18,102.87,42.36,154.3,63.54,7.73,3.19,15.47,6.37,23.2,9.56v198.21Zm0-206.73c-59.17-24.37-118.34-48.73-177.51-73.1v-214.85c51.43,21.18,102.87,42.36,154.3,63.54,7.73,3.19,15.47,6.37,23.2,9.56v214.85Zm171.21,697.32c-36.16-14.89-72.31-29.78-108.47-44.67-18.64-7.68-37.29-15.35-55.93-23.03v-188.98c54.8,22.57,109.6,45.13,164.4,67.7v188.98Zm0-197.5c-36.16-14.89-72.31-29.78-108.47-44.67-18.64-7.68-37.29-15.35-55.93-23.03v-214.06c54.8,22.57,109.6,45.13,164.4,67.7v214.06Zm0-222.58c-36.16-14.89-72.31-29.78-108.47-44.67-18.64-7.68-37.29-15.35-55.93-23.03v-198.21c54.8,22.57,109.6,45.13,164.4,67.7v198.21Zm0-206.73c-36.16-14.89-72.31-29.78-108.47-44.67-18.64-7.68-37.29-15.35-55.93-23.03v-214.85c54.8,22.57,109.6,45.13,164.4,67.7v214.85Zm153.09,689.86c-48.76-20.08-97.52-40.16-146.28-60.24v-188.98c48.76,20.08,97.52,40.16,146.28,60.24v188.98Zm0-197.5c-48.76-20.08-97.52-40.16-146.28-60.24v-214.06c48.76,20.08,97.52,40.16,146.28,60.24v214.06Zm0-222.58c-48.76-20.08-97.52-40.16-146.28-60.24v-198.21c48.76,20.08,97.52,40.16,146.28,60.24v198.21Zm0-206.73c-48.76-20.08-97.52-40.16-146.28-60.24v-214.85c48.76,20.08,97.52,40.16,146.28,60.24v214.85Zm160.31,692.83c-22.7-9.35-45.41-18.7-68.11-28.05-28.46-11.72-56.93-23.44-85.39-35.16v-188.98c51.17,21.07,102.34,42.14,153.51,63.21v188.98Zm0-197.5c-22.7-9.35-45.41-18.7-68.11-28.05-28.46-11.72-56.93-23.44-85.39-35.16v-214.06c51.17,21.07,102.34,42.14,153.51,63.21v214.06Zm0-222.58c-22.7-9.35-45.41-18.7-68.11-28.05-28.46-11.72-56.93-23.44-85.39-35.16v-198.21c51.17,21.07,102.34,42.14,153.51,63.21v198.21Zm0-206.73c-22.7-9.35-45.41-18.7-68.11-28.05-28.46-11.72-56.93-23.44-85.39-35.16v-214.85c51.17,21.07,102.34,42.14,153.51,63.21v214.85Zm160.3,692.83c-51.17-21.07-102.33-42.14-153.5-63.21v-188.98c51.17,21.07,102.33,42.14,153.5,63.21v188.98Zm0-197.5c-51.17-21.07-102.33-42.14-153.5-63.21v-214.06c51.17,21.07,102.33,42.14,153.5,63.21v214.06Zm0-222.58c-51.17-21.07-102.33-42.14-153.5-63.21v-198.21c51.17,21.07,102.33,42.14,153.5,63.21v198.21Zm0-206.73c-51.17-21.07-102.33-42.14-153.5-63.21v-214.85c51.17,21.07,102.33,42.14,153.5,63.21v214.85Z"/><g><path class="r" d="M783.4,1140.19c-28.57-17.78-58.4-33.52-89.22-47.02-8.97-3.93-18.01-7.68-27.12-11.26-2.83-1.11-6.27,.99-7.31,3.59-1.16,2.88-.15,6.09,2.54,7.74,11.26,6.92,22.52,13.84,33.78,20.76-8.88-3.74-17.75-7.48-26.63-11.22-9.4-3.96-18.8-7.92-28.2-11.87-2.8-1.18-6.29,1.04-7.31,3.59-1.12,2.78-.22,6.22,2.54,7.74,10.2,5.61,20.28,11.44,30.25,17.44-6.57-2.81-13.17-5.55-19.82-8.18-2.91-1.15-5.66,.63-7.02,3.14-3.36-1.6-6.72-3.2-10.09-4.78-2.93-1.37-6.82-.92-8.48,2.22-1.45,2.75-.91,7.01,2.22,8.48,13.3,6.23,26.52,12.61,39.66,19.15,6.9,5.52,13.8,11.04,20.7,16.56-11.69-6.09-23.37-12.19-35.06-18.28-8.76-4.57-17.53-9.14-26.29-13.71-2.73-1.42-6.1-.94-7.99,1.6-.55,.74-.94,1.68-1.14,2.66-8-4.53-19.1-10.27-27-2.22-2.27,2.32-2.48,6.48,0,8.76,2.45,2.25,6.34,2.47,8.76,0,.07-.07,.14-.14,.21-.22,.19-.06,.39-.13,.54-.18,.27,.02,.57-.02,.82-.01,.1,0,.18,0,.26,0-.15-.01-.29-.04-.28-.06,0-.02,.17,.01,.42,.07,.42,.02,.26,.02,.03,0,.72,.17,2.08,.54,2.24,.59,.35,.11,.69,.25,1.03,.36,.06,.02,.1,.03,.14,.05,.78,.37,1.56,.74,2.32,1.15,1.88,1.01,3.73,2.1,5.59,3.15,7.92,4.49,15.81,9.03,23.68,13.6,11.24,6.53,22.43,13.16,33.58,19.84,3.03,2.36,6.06,4.71,9.09,7.07-21.05-9.5-41.87-19.48-62.46-29.94-9.92-5.04-19.78-10.2-29.59-15.46-2.71-1.45-6.12-.92-7.99,1.6-1.24,1.66-1.6,3.88-.96,5.81-10.97-5.07-22.02-9.98-33.15-14.7-2.98-1.26-6.78-.99-8.48,2.22-1.4,2.65-.96,7.13,2.22,8.48,23.01,9.76,45.7,20.27,68.01,31.55,.5,.25,1,.51,1.5,.76,3.94,3.45,7.9,6.88,11.88,10.28-18.75-9.76-37.49-19.52-56.24-29.28-10.5-5.47-21.01-10.94-31.51-16.4-6.1-3.18-12.66,4.61-7.51,9.73,6.55,6.52,13.26,12.87,20.11,19.07-9.22-4.8-18.63-9.22-28.21-13.27-5.34-2.25-10.73-4.4-16.17-6.41-3.48-1.29-7.18-.93-9.92,1.81-1.69,1.7-2.7,4.4-1.95,6.76,.96,2.99,3.48,4.62,6.54,4.77,1.15,.06,2.28-.31,3.26-.93,.08,.03,.15,.06,.23,.09,2.19,.82,4.36,1.66,6.53,2.51,2.09,.83,4.17,1.67,6.25,2.54,.1,.04,.19,.08,.29,.12,.13,.05,.29,.12,.38,.16h.01l.03,.02h-.03c.47,.19,.94,.39,1.41,.59,1.11,.48,2.22,.96,3.33,1.45,4.24,1.87,8.45,3.83,12.62,5.86,.23,1.04,.79,2.07,1.75,3,7.85,7.58,15.71,15.16,23.56,22.74-13.11-7.65-26.21-15.3-39.32-22.94-8.02-4.68-16.03-9.35-24.05-14.03-2.65-1.55-6.17-.85-7.99,1.6-.7,.93-1.08,1.93-1.21,2.93-8.11-3.79-16.28-7.47-24.5-11.01-1.59-.69-3.03-1.11-4.77-.62-1.44,.4-3,1.51-3.7,2.85-1.21,2.3-1.04,5.9,1.06,7.74-7.97-2.03-16.18-3.15-24.41-3.18-3.24-.01-6.35,2.86-6.2,6.2,.04,.8,.22,1.56,.5,2.26-4.89-3.14-9.81-6.24-14.78-9.26-5.37-3.27-11.51,3.18-8.48,8.48,.44,.76,.89,1.51,1.33,2.27-.17-.09-.35-.19-.52-.29-2.85-1.54-6.88-.8-8.48,2.22-1.53,2.89-.82,6.83,2.22,8.48,7.15,3.86,14.26,7.8,21.35,11.77,3.51,4.79,7.19,9.46,11.02,13.99-7.85-5.3-15.62-10.71-23.3-16.25-7.57-5.46-15.05-11.04-22.45-16.73-2.14-1.64-5.74-.8-7.51,.97-1.63,1.63-2.2,4.2-1.47,6.38-1.5,1.93-2.22,5.02-.66,7.11,1.07,1.43,2.15,2.87,3.22,4.3,1.01,1.34,2.02,2.39,3.7,2.85,.79,.22,1.72,.25,2.61,.12,3.76,5.68,7.68,11.25,11.75,16.72-11.7-8.3-23.39-16.6-35.09-24.9-2.49-1.77-6.29-.68-7.99,1.6-1.32,1.76-1.55,3.79-.92,5.67-6.28-4.1-12.54-8.24-18.76-12.44-2.56-1.73-6.22-.7-7.99,1.6-1.85,2.39-1.74,5.97,.48,8.14,4.39,4.28,8.83,8.52,13.28,12.74-1.6,.22-3.13,1.02-4.12,2.35-1.71,2.29-1.91,6.11,.48,8.14,7.6,6.42,15.38,12.63,23.32,18.63-4.29-2.6-8.56-5.23-12.82-7.88-9.85-6.15-19.62-12.43-29.3-18.85-2.58-1.71-6.21-.71-7.99,1.6-1.79,2.31-1.83,6.08,.48,8.14,14.38,12.79,28.76,25.58,43.14,38.36,5.89,5.24,11.73,10.55,17.63,15.8-.58-.28-1.16-.54-1.74-.82-16.07-7.73-31.9-15.95-47.5-24.6-4.53-2.64-9.06-5.29-13.59-7.93-7.38-4.31-14.77-8.62-22.15-12.93-2.8-1.63-6.91-.74-8.48,2.22-1.6,3.03-.73,6.66,2.22,8.48,11.31,6.95,22.78,13.64,34.37,20.1,15.66,9.16,31.32,18.31,47.02,27.4,5.25,3.04,11.52,5.79,17.59,5.31,3.05,1.4,6.1,2.8,9.16,4.16,10.81,4.8,21.7,9.4,32.68,13.81,2.86,1.15,6.23-1.02,7.31-3.59,1.09-2.58,.28-6.48-2.54-7.74-7.66-3.42-14.82-7.81-21.6-12.74-.85-.62-1.69-1.24-2.53-1.88-.28-.21-.56-.43-.84-.64-.1-.08-.72-.56-.82-.63-1.66-1.3-3.3-2.62-4.92-3.97-3.25-2.69-6.44-5.45-9.6-8.24-4.1-3.61-8.18-7.24-12.26-10.87,14.7,8.56,29.56,16.83,44.6,24.77,10.27,5.42,20.62,10.7,31.04,15.83,2.9,1.43,6.84,.88,8.48-2.22,.14-.26,.25-.53,.36-.79,3.22,1.07,6.46,2.04,9.74,2.91,2.96,.78,6.16-.74,7.31-3.59,1.04-2.59,.33-6.48-2.54-7.74-12.54-5.5-24.86-11.5-36.92-17.96,1.4-2.23,1.51-5.17-.92-7.33-1.48-1.32-2.95-2.66-4.42-3.99,18.28,10.41,36.76,20.46,55.45,30.13,15.17,7.85,30.46,15.45,45.87,22.81,2.82,1.34,6.01,.98,7.99-1.6,1.73-2.23,1.92-6.18-.48-8.14-3.01-2.45-6.02-4.9-9.03-7.34,2.61,.9,6.05-.46,7.3-2.83,1.71-3.23,.57-6.42-2.22-8.48-13.51-9.96-27.15-19.75-40.9-29.37,.83-2.7-.41-5.55-2.8-7.16-14.05-9.51-27.27-20.67-39.19-33.02,4.31,2.54,8.62,5.09,12.91,7.67,14.78,8.9,29.4,18.05,43.88,27.42,1.55,1.38,3.12,2.74,4.66,4.14,1.24,1.12,2.81,1.73,4.38,1.75,3.59,2.36,7.19,4.71,10.77,7.1,11.79,7.87,23.48,15.9,35.06,24.08,2.66,1.88,7.01,.56,8.48-2.22,1.68-3.18,.61-6.48-2.22-8.48-1.75-1.23-3.51-2.44-5.26-3.67,.34-.13,.67-.29,.99-.5,2.62-1.69,4.22-5.65,2.22-8.48-5.54-7.84-11.1-15.69-16.86-23.39,3.84,2.54,7.68,5.09,11.5,7.67,5.83,3.93,12.68-4.99,7.51-9.73-10.85-9.96-21.38-20.24-31.63-30.81,18.31,10.09,36.29,20.8,53.87,32.11,11.87,7.65,23.57,15.57,35.08,23.75,2.65,1.88,7.01,.56,8.48-2.22,1.69-3.19,.61-6.47-2.22-8.48-8.03-5.71-16.15-11.29-24.36-16.74,1.4-2.22,1.53-5.19-.83-7.47-9.49-9.17-18.99-18.33-28.48-27.5,1.96,1.05,3.92,2.1,5.88,3.15,3.33,2.3,6.63,4.64,9.88,7.05,.97,.72,1.94,1.44,2.91,2.17,.55,.42,1.1,.84,1.65,1.26,.16,.12,.54,.42,.77,.59,1.99,1.55,3.97,3.11,5.93,4.69,4.03,3.26,7.99,6.61,11.88,10.04,2.43,2.14,6.4,2.57,8.76,0,2.15-2.34,2.6-6.48,0-8.76-.18-.16-.37-.31-.55-.47,.24-.27,.46-.56,.65-.89,1.79-3.06,.55-6.59-2.22-8.48-17.34-11.78-34.03-24.48-49.99-38.05,23.24,12.1,46.48,24.2,69.72,36.3,10.5,5.47,21.01,10.94,31.51,16.4,2.97,1.54,6.73,.76,8.48-2.22,1.87-3.19,.44-6.44-2.22-8.48-3.71-2.84-7.4-5.71-11.07-8.59,2.73,1.58,5.45,3.18,8.16,4.79,12.12,7.18,24.1,14.59,35.93,22.22,2.73,1.76,6.96,.65,8.48-2.22,1.63-3.08,.69-6.6-2.22-8.48-15.63-10.07-31.51-19.76-47.63-29.04,6.92,3.16,13.87,6.29,20.84,9.35,10.55,4.63,21.15,9.13,31.8,13.52,2.49,1.03,5.74-.69,7-2.85,1.27-2.17,1.17-5.85-.97-7.51-2.65-2.06-5.31-4.12-7.96-6.19,1.49-3,.6-6.52-2.29-8.32-7.58-4.71-15.18-9.37-22.8-14,6.6,3.44,13.19,6.88,19.79,10.32,8.76,4.57,17.53,9.14,26.29,13.71,2.73,1.42,6.1,.94,7.99-1.6,1.68-2.25,1.96-6.18-.48-8.14-7.46-5.97-14.92-11.94-22.39-17.9,1.94,1.05,3.89,2.09,5.82,3.14,9.48,5.16,18.91,10.41,28.29,15.74,2.82,1.6,6.9,.76,8.48-2.22,1.55-2.94,.79-6.77-2.22-8.48-2.12-1.2-4.24-2.39-6.36-3.58,.64-.47,1.2-1.07,1.62-1.79,1.86-3.19,.45-6.44-2.22-8.48-13.12-10-26.52-19.63-40.17-28.89,8.58,3.61,17.16,7.23,25.74,10.84,9.4,3.96,18.8,7.92,28.2,11.87,2.8,1.18,6.29-1.04,7.31-3.59,.6-1.49,.61-3.07,.11-4.48,1.08,.66,2.16,1.3,3.24,1.97,2.84,1.77,6.82,.61,8.48-2.22,1.73-2.96,.63-6.71-2.22-8.48Zm-291.23,5.47l.03,.02c-.4-.09-.81-.15-1.24-.17,.4,.05,.81,.1,1.21,.15Zm-.62,10.38s-.02,0,0,0h0Zm-127.36,118.42h-.04c.11-.06,.26-.05,.38-.01-.14,0-.26,0-.34,.01Zm133.68,1.66c-1.53-.04-3.04,.47-4.22,1.76-.62,.67-1.1,1.53-1.41,2.46-16.11-8.15-32.08-16.58-47.91-25.28-5.16-2.84-10.29-5.71-15.41-8.6,.48-2.01-.02-4.18-1.58-5.76-9.43-9.57-18.28-19.66-26.55-30.2,8.49,5.38,16.95,10.82,25.36,16.33,19.66,12.89,39.1,26.13,58.29,39.71,4.49,3.18,8.96,6.38,13.42,9.6Zm.91-85.38c-4.08-3.41-8.31-6.62-12.69-9.6,2.46,1.2,4.91,2.41,7.36,3.63,1.77,2,3.54,3.99,5.33,5.97Zm-69.17-18.62c.91,.08,1.93,.09,2.86,.26,.11,.04,.27,.08,.4,.1,.33,.05,.65,.1,.98,.15,.73,.11,1.46,.24,2.19,.37,4.7,.85,9.33,2.06,13.86,3.56-.19,1.34,.02,2.72,.8,3.77,6.27,8.47,12.55,16.94,18.82,25.42-14.02-10.94-28.44-21.36-43.23-31.22-1.4-.93-2.82-1.83-4.23-2.75,2.52,.02,5.04,.13,7.56,.36Zm78.54,65.09c-9.86-13.31-19.72-26.63-29.58-39.94,8.59,5.05,17.12,10.19,25.59,15.42,6.87,7.06,13.27,14.56,19.35,22.31,.44,.57,.89,1.13,1.33,1.7,.27,.35,.54,.7,.8,1.05,.97,1.27,1.94,2.55,2.9,3.83,1.87,2.49,3.71,5,5.54,7.52,2.53,3.49,5.02,6.99,7.51,10.51-11.05-7.61-22.2-15.07-33.44-22.39Z"/><path class="r" d="M507.52,1162.23c-.21-.09-.29-.12,.4,.17h0c-.13-.06-.26-.11-.39-.17Z"/><path class="r" d="M597.01,1134.68c.06,0,.11,0,.17,.01h-.17Z"/></g><g><ellipse class="e" cx="1434.45" cy="682.02" rx="82.45" ry="127.83"/><path class="ah" d="M1503.38,682.01c0,9.26-.69,18.24-2.01,26.84-7.42,48.67-34.57,84.75-66.92,84.75-5.2,0-10.26-.93-15.13-2.7-10.68-3.87-20.42-11.76-28.6-22.63-4.39-5.84-8.33-12.54-11.7-19.95-2.04-4.45-3.88-9.15-5.48-14.07-2.22-6.74-4.02-13.89-5.34-21.36h0c-1.74-9.81-2.68-20.17-2.68-30.88,0-9.51,.73-18.74,2.12-27.55h0c7.58-48.3,34.61-84.04,66.81-84.04,5.04,0,9.95,.88,14.68,2.54h0c12.18,4.28,23.16,13.78,32.02,26.97,3.49,5.22,6.65,11.01,9.42,17.28,1.99,4.51,3.78,9.26,5.34,14.22,2.55,8.1,4.51,16.78,5.78,25.88,1.11,7.95,1.7,16.21,1.7,24.7Z"/><path class="aj" d="M1481.16,599.94l-112.96,112.95c-1.74-9.81-2.68-20.16-2.68-30.88,0-9.51,.73-18.74,2.12-27.55h0l81.49-81.5h0c12.18,4.28,23.16,13.78,32.02,26.97Z"/><path class="aj" d="M1495.91,631.44l-116.89,116.89c-2.04-4.45-3.88-9.15-5.48-14.07l117.03-117.04c1.99,4.51,3.78,9.26,5.34,14.22Z"/><path class="aj" d="M1503.38,682.01c0,9.26-.69,18.24-2.01,26.84l-82.05,82.05c-10.68-3.87-20.42-11.76-28.6-22.63l110.96-110.96c1.11,7.95,1.7,16.21,1.7,24.7Z"/></g><g><polygon class="v" points="1174.6 1966.87 0 1376.5 790.17 1134.96 2086.69 1656.46 1174.6 1966.87"/><rect class="k" x="1032.81" y="1748.86" width="942.53" height="9.08" transform="translate(-484.8 578.23) rotate(-18.8)"/><rect class="k" x="918" y="1694.03" width="926.87" height="9.08" transform="translate(-473.67 535.78) rotate(-18.8)"/><rect class="k" x="806.53" y="1640.55" width="910.58" height="9.08" transform="translate(-462.81 494.37) rotate(-18.8)"/><rect class="k" x="703.12" y="1591.22" width="900.26" height="9.08" transform="translate(-447.36 449.25) rotate(-18.53)"/><rect class="k" x="604.1" y="1544.83" width="885.36" height="9.08" transform="translate(-443.44 419.97) rotate(-18.8)"/><rect class="k" x="503.43" y="1496.36" width="870.93" height="9.08" transform="translate(-433.58 382.63) rotate(-18.8)"/><rect class="k" x="81.79" y="1299.68" width="838.76" height="9.08" transform="translate(-359.46 203.55) rotate(-17)"/><rect class="k" x="186.51" y="1347.84" width="849.2" height="9.08" transform="translate(-368.74 237.8) rotate(-17)"/><rect class="k" x="284.87" y="1397.73" width="868.51" height="9.08" transform="translate(-378.6 271.56) rotate(-17)"/><rect class="k" x="397.22" y="1445.14" width="855.22" height="9.08" transform="translate(-423.51 343.53) rotate(-18.82)"/></g><g><g><polygon class="s" points="1020.86 1391.74 680.71 1510.73 681.11 1500.72 1021.27 1381.74 1020.86 1391.74"/><polygon class="n" points="1021.27 1381.74 992.15 1368.49 645.09 1487.63 681.11 1500.72 1021.27 1381.74"/><polygon class="s" points="1433.62 1591.43 1093.46 1710.41 1093.86 1700.41 1434.02 1581.43 1433.62 1591.43"/><polygon class="s" points="680.71 1510.73 681.11 1500.72 645.09 1487.63 644.65 1498.44 680.71 1510.73"/><path class="s" d="M855.12,1426.26h0c-5.19,1.96-10.74-1.88-10.74-7.43v-182.78c0-3.31,2.05-6.27,5.14-7.43h0c5.19-1.96,10.74,1.88,10.74,7.43v182.78c0,3.31-2.05,6.27-5.14,7.43Z"/><polygon class="n" points="1434.02 1581.43 1404.91 1568.18 1057.84 1687.32 1093.86 1700.41 1434.02 1581.43"/><path class="n" d="M862.62,1254.62l-15.42,5.3c-5.16,1.77-10.52-2.06-10.52-7.51v-182.95c0-3.39,2.15-6.41,5.36-7.51l15.42-5.3c5.16-1.77,10.52,2.06,10.52,7.51v182.95c0,3.39-2.15,6.41-5.36,7.51Z"/><path class="s" d="M869.57,1060.47l-29.33,10.09c-5.16,1.77-10.52-2.06-10.52-7.51v-182.95c0-3.39,2.15-6.41,5.36-7.51l29.33-10.09c5.16-1.77,10.52,2.06,10.52,7.51v182.95c0,3.39-2.15,6.41-5.36,7.51Z"/><polygon class="s" points="1093.46 1710.41 1093.86 1700.41 1057.84 1687.32 1057.4 1698.13 1093.46 1710.41"/><path class="s" d="M1267.88,1625.95h0c-5.19,1.96-10.74-1.88-10.74-7.43v-182.78c0-3.31,2.05-6.27,5.14-7.43h0c5.19-1.96,10.74,1.88,10.74,7.43v182.78c0,3.31-2.05,6.27-5.14,7.43Z"/><polygon class="h" points="1142.58 1100.83 719.69 903.56 928.84 827.51 1397.79 1015.73 1142.58 1100.83"/><path class="n" d="M1275.37,1454.31l-15.42,5.3c-5.16,1.77-10.52-2.06-10.52-7.51v-182.95c0-3.39,2.15-6.41,5.36-7.51l15.42-5.3c5.16-1.77,10.52,2.06,10.52,7.51v182.95c0,3.39-2.15,6.41-5.36,7.51Z"/><path class="s" d="M1282.33,1260.16l-29.33,10.09c-5.16,1.77-10.52-2.06-10.52-7.51v-182.95c0-3.39,2.15-6.41,5.36-7.51l29.33-10.09c5.16-1.77,10.52,2.06,10.52,7.51v182.95c0,3.39-2.15,6.41-5.36,7.51Z"/><polygon class="ae" points="1397.79 1015.73 1397.79 1029.33 1142.58 1117.19 1142.58 1100.83 1397.79 1015.73"/><polygon class="ag" points="1142.58 1117.19 719.69 915.92 719.69 903.56 1142.58 1100.83 1142.58 1117.19"/></g><g><polygon class="n" points="1099.06 1030.17 856.12 922.33 931.13 893.01 1182.27 998.87 1099.06 1030.17"/><polygon class="s" points="1182.27 998.87 1182.27 1010.37 1099.06 1040.61 1099.06 1030.17 1182.27 998.87"/><polygon class="s" points="1099.06 1040.61 856.12 932.71 856.12 922.33 1099.06 1030.17 1099.06 1040.61"/><path d="M1157.73,1000.85l.47-1.1-11.1-4.72,10.6-3.99-.42-1.12-11.77,4.43-11.36-4.83,10.45-3.94-.42-1.12-11.62,4.38-11.37-4.83,10.31-3.89-.42-1.12-11.48,4.34-11.37-4.83,10.16-3.85-.42-1.12-11.33,4.29-11.37-4.84,10.01-3.8-.43-1.12-11.18,4.24-11.37-4.84,9.87-3.75-.43-1.12-11.03,4.2-11.37-4.84,9.72-3.71-.43-1.12-10.88,4.15-11.37-4.84,9.57-3.66-.43-1.12-10.73,4.1-11.37-4.84,9.43-3.61-.43-1.12-10.58,4.06-11.38-4.84,9.28-3.57-.43-1.12-10.44,4.01-11.38-4.84,9.14-3.52-.43-1.12-10.29,3.96-11.38-4.84,8.99-3.47-.43-1.12-10.14,3.91-11.38-4.84,8.85-3.42-.43-1.12-9.99,3.87-11.38-4.84,8.7-3.37-.43-1.12-9.85,3.82-11.38-4.84,8.56-3.33-.43-1.11-9.7,3.77-11.39-4.84,8.41-3.28-.43-1.11-9.55,3.72-11.39-4.84,8.27-3.23-.43-1.11-9.41,3.68-10.19-4.33-.47,1.1,9.06,3.85-10.12,3.95-10.18-4.37-.47,1.1,9.06,3.89-10.12,3.96-10.17-4.41-.48,1.1,9.06,3.93-10.13,3.96-10.16-4.45-.48,1.1,9.06,3.97-10.14,3.96-10.15-4.49-.48,1.09,9.06,4.01-11.39,4.45,.43,1.11,12.49-4.88,11.1,4.91-11.39,4.44,.43,1.11,12.5-4.87,11.1,4.91-11.4,4.43,.43,1.11,12.51-4.86,11.09,4.91-11.4,4.42,.43,1.12,12.52-4.85,11.09,4.9-11.41,4.41,.43,1.12,12.52-4.85,11.09,4.9-11.41,4.4,.43,1.12,12.53-4.84,11.09,4.9-11.42,4.4,.43,1.12,12.54-4.83,11.09,4.9-11.42,4.39,.43,1.12,12.54-4.82,11.09,4.9-11.42,4.38,.43,1.12,12.55-4.81,11.09,4.9-11.43,4.37,.43,1.12,12.56-4.8,11.09,4.9-11.43,4.36,.43,1.12,12.56-4.79,11.08,4.9-11.44,4.35,.43,1.12,12.57-4.78,11.08,4.9-11.44,4.34,.43,1.12,12.57-4.77,11.08,4.9-11.44,4.33,.42,1.12,12.58-4.76,11.08,4.9-11.45,4.33,.42,1.12,12.58-4.76,11.08,4.9-11.45,4.32,.42,1.12,12.59-4.75,11.08,4.9-11.45,4.31,.42,1.12,12.59-4.74,11.36,5.02,.48-1.09-10.25-4.53,11.39-4.29,11.58,5.07,.48-1.1-10.46-4.58,11.39-4.28,11.8,5.12,.48-1.1-10.67-4.63,11.38-4.28,12.03,5.16,.47-1.1-10.88-4.67,11.37-4.28,12.25,5.21Zm-26.8-11.4l-11.28,4.25-11.29-4.85,11.21-4.24,11.36,4.83Zm-49.79-1.98l-11.23-4.87,11.07-4.2,11.3,4.85-11.14,4.22Zm12.72-3.54l11.29,4.85-11.21,4.24-11.22-4.87,11.14-4.22Zm-25.52-2.01l-11.23-4.87,10.99-4.18,11.3,4.85-11.06,4.2Zm-12.8-5.55l-11.23-4.87,10.91-4.16,11.3,4.85-10.98,4.18Zm-12.8-5.55l-11.23-4.87,10.83-4.14,11.3,4.85-10.9,4.16Zm-12.8-5.55l-11.23-4.87,10.76-4.12,11.3,4.85-10.83,4.14Zm-12.8-5.55l-11.23-4.87,10.68-4.1,11.3,4.85-10.75,4.12Zm-12.8-5.55l-11.23-4.87,10.6-4.08,11.3,4.85-10.67,4.1Zm-12.8-5.55l-11.24-4.87,10.52-4.06,11.31,4.86-10.59,4.08Zm-12.8-5.55l-11.24-4.87,10.44-4.04,11.31,4.86-10.51,4.06Zm-12.8-5.55l-11.24-4.87,10.37-4.02,11.31,4.86-10.44,4.04Zm-12.8-5.55l-11.24-4.87,10.29-4,11.31,4.86-10.36,4.02Zm-12.8-5.55l-11.24-4.87,10.21-3.98,11.31,4.86-10.28,4Zm-1.59,.62l-10.29,4-11.17-4.89,10.22-3.98,11.24,4.87Zm1.56,.68l11.24,4.87-10.36,4.02-11.17-4.89,10.29-4Zm12.8,5.55l11.24,4.87-10.44,4.04-11.17-4.89,10.37-4.02Zm12.8,5.55l11.24,4.87-10.52,4.06-11.17-4.89,10.45-4.04Zm12.8,5.55l11.23,4.87-10.6,4.08-11.16-4.89,10.53-4.06Zm12.8,5.55l11.23,4.87-10.68,4.1-11.16-4.89,10.6-4.08Zm12.8,5.55l11.23,4.87-10.75,4.12-11.16-4.89,10.68-4.1Zm12.8,5.55l11.23,4.87-10.83,4.14-11.16-4.89,10.76-4.12Zm12.8,5.55l11.23,4.87-10.91,4.16-11.16-4.89,10.84-4.14Zm12.8,5.55l11.23,4.87-10.99,4.18-11.16-4.89,10.92-4.16Zm12.8,5.55l11.23,4.87-11.07,4.2-11.16-4.88,11-4.18Zm12.8,5.55l11.22,4.87-11.14,4.22-11.16-4.88,11.07-4.2Zm12.8,5.55l11.22,4.87-11.22,4.24-11.15-4.88,11.15-4.22Zm12.8,5.55l11.22,4.87-11.3,4.26-11.15-4.88,11.23-4.24Zm1.61-.61l11.22-4.24,11.29,4.85-11.29,4.26-11.22-4.87Zm22.46-9.76l-11.21,4.23-11.3-4.85,11.14-4.22,11.37,4.83Zm-12.96-5.51l-11.13,4.21-11.3-4.85,11.06-4.2,11.37,4.83Zm-12.96-5.51l-11.05,4.19-11.3-4.85,10.98-4.18,11.37,4.84Zm-12.96-5.51l-10.97,4.17-11.3-4.85,10.9-4.16,11.37,4.84Zm-12.96-5.51l-10.89,4.15-11.3-4.85,10.83-4.14,11.37,4.84Zm-12.96-5.51l-10.82,4.13-11.3-4.85,10.75-4.12,11.37,4.84Zm-12.96-5.51l-10.74,4.12-11.31-4.85,10.67-4.1,11.37,4.84Zm-12.96-5.51l-10.66,4.09-11.31-4.85,10.59-4.08,11.38,4.84Zm-12.96-5.51l-10.58,4.07-11.31-4.86,10.51-4.06,11.38,4.84Zm-12.96-5.51l-10.51,4.05-11.31-4.86,10.44-4.04,11.38,4.84Zm-12.96-5.51l-10.43,4.03-11.31-4.86,10.36-4.02,11.38,4.84Zm-12.96-5.51l-10.35,4.01-11.31-4.86,10.28-4,11.38,4.84Zm-12.96-5.51l-10.27,3.99-11.31-4.86,10.2-3.98,11.38,4.84Zm-24.34-10.35l11.39,4.84-10.2,3.97-11.32-4.86,10.13-3.96Zm-11.71,4.58l11.31,4.86-10.2,3.98-11.24-4.88,10.13-3.96Zm-11.71,4.58l11.24,4.87-10.21,3.98-11.17-4.89,10.14-3.96Zm-21.86,8.54l10.15-3.97,11.17,4.89-10.21,3.98-11.1-4.91Zm12.64,5.59l10.22-3.99,11.17,4.89-10.29,4-11.1-4.91Zm12.64,5.59l10.3-4.01,11.17,4.89-10.37,4.02-11.1-4.91Zm12.64,5.59l10.38-4.03,11.17,4.89-10.45,4.04-11.09-4.91Zm12.64,5.59l10.46-4.05,11.16,4.89-10.53,4.06-11.09-4.91Zm12.64,5.59l10.53-4.07,11.16,4.89-10.6,4.08-11.09-4.9Zm12.64,5.59l10.61-4.09,11.16,4.89-10.68,4.1-11.09-4.9Zm12.64,5.59l10.69-4.11,11.16,4.89-10.76,4.12-11.09-4.9Zm12.64,5.59l10.77-4.13,11.16,4.89-10.84,4.14-11.09-4.9Zm12.64,5.59l10.85-4.15,11.16,4.89-10.92,4.16-11.09-4.9Zm12.64,5.59l10.92-4.17,11.16,4.88-10.99,4.18-11.09-4.9Zm12.64,5.59l11-4.19,11.15,4.88-11.07,4.2-11.08-4.9Zm12.64,5.59l11.08-4.21,11.15,4.88-11.15,4.22-11.08-4.9Zm12.64,5.59l11.16-4.23,11.15,4.88-11.23,4.24-11.08-4.9Zm12.64,5.59l11.24-4.25,11.15,4.88-11.31,4.26-11.08-4.9Zm23.72,10.49l-11.08-4.9,11.31-4.27,11.15,4.88-11.38,4.28Zm12.99-4.89l-11.15-4.88,11.31-4.26,11.22,4.87-11.38,4.28Zm12.99-4.89l-11.22-4.87,11.3-4.26,11.29,4.85-11.37,4.28Zm12.99-4.89l-11.29-4.85,11.29-4.26,11.36,4.83-11.36,4.27Z"/></g><g><path class="s" d="M1176.71,1046.14c3.13,7.22,19.85,9.76,41.03,.6,24.92-10.78,27.99-21.9,24.86-29.13-3.13-7.22-20.41-6.69-38.61,1.18-18.19,7.88-30.41,20.12-27.28,27.34Z"/><path class="n" d="M1176.71,1046.14c3.13,7.22,19.78,2.35,37.97-5.53,18.19-7.88,30.48-16.76,27.35-23.98-3.13-7.22-26.06-14.12-44.25-6.25-18.19,7.88-24.2,28.54-21.07,35.76Z"/><path class="s" d="M1241.54,1015.73c-.75-1.14-1.96-2.25-3.55-3.28-2.16-.33-4.36-.48-6.49-.54-8.14-.23-16.27,1.28-23.89,4.11-1.61,.6-.91,3.2,.72,2.6,7.41-2.76,15.25-4.23,23.17-4.01,3.05,.09,6.24,.32,9.2,1.16,.32,.09,.61,.07,.85-.03Z"/></g><g><polygon points="1118.39 905.92 1109.66 897.74 1229.02 770.31 1120.61 658.95 1129.18 650.61 1245.56 770.15 1118.39 905.92"/><polygon class="s" points="903.62 495.35 917.31 494.15 1160.32 571.4 1160.32 751.42 1151.16 757.4 903.62 495.35"/><circle class="n" cx="1231.31" cy="770.23" r="19.55" transform="translate(200.79 1793.65) rotate(-76.83)"/><circle class="s" cx="1231.31" cy="770.23" r="14.05" transform="translate(273.01 1861.58) rotate(-80.74)"/><polygon class="n" points="1151.16 757.4 903.62 677.69 903.62 495.35 1151.16 575.06 1151.16 757.4"/><polygon class="j" points="1142.58 743.58 912.21 669.67 912.21 507.97 1142.58 583.08 1142.58 743.58"/><polygon class="ah" points="1093.38 693.27 961.4 650.93 961.4 558.29 1093.38 601.31 1093.38 693.27"/><path d="M1159.26,919.99l-25.62,10.18c-9.78,3.89-20.69,3.81-30.42-.22l-48.03-19.9c-5.53-2.29-4.63-9.18-4.06-12.13l29.39-9.54,78.75,25.62v5.98Z"/><path class="s" d="M1159.26,914.01l-25.62,10.18c-9.78,3.89-20.69,3.81-30.42-.22l-48.03-19.9c-5.53-2.29-5.39-10.16,.21-12.26l25.11-9.41,78.75,31.61Z"/><path class="ab" d="M1095.82,603.28c0,4-3.24,7.24-7.24,7.24s-7.24-3.24-7.24-7.24,3.24-7.24,7.24-7.24,7.24,3.24,7.24,7.24Z"/><path class="aj" d="M1080.26,615.86c-3.59-1.15-7.19-2.31-10.78-3.46-8.63-2.77-17.26-5.54-25.89-8.31-10.44-3.35-20.88-6.7-31.31-10.06-8.99-2.89-17.98-5.77-26.96-8.66-4.38-1.41-8.76-3.05-13.21-4.24-.06-.02-.13-.04-.19-.06-1.85-.59-3.92,.69-4.41,2.51-.53,1.94,.65,3.82,2.51,4.41,3.59,1.15,7.19,2.31,10.78,3.46,8.63,2.77,17.26,5.54,25.89,8.31,10.44,3.35,20.88,6.7,31.31,10.06,8.99,2.89,17.98,5.77,26.96,8.66,4.38,1.41,8.76,3.05,13.21,4.24,.06,.02,.13,.04,.19,.06,1.84,.59,3.92-.69,4.41-2.51,.53-1.94-.65-3.82-2.51-4.41Z"/><path class="aj" d="M1080.26,639.71c-3.59-1.15-7.19-2.31-10.78-3.46-8.63-2.77-17.26-5.54-25.89-8.31-10.44-3.35-20.88-6.7-31.31-10.06-8.99-2.89-17.98-5.77-26.96-8.66-4.38-1.41-8.76-3.05-13.21-4.24-.06-.02-.13-.04-.19-.06-1.85-.59-3.92,.69-4.41,2.51-.53,1.94,.65,3.82,2.51,4.41,3.59,1.15,7.19,2.31,10.78,3.46,8.63,2.77,17.26,5.54,25.89,8.31,10.44,3.35,20.88,6.7,31.31,10.06,8.99,2.89,17.98,5.77,26.96,8.66,4.38,1.41,8.76,3.05,13.21,4.24,.06,.02,.13,.04,.19,.06,1.84,.59,3.92-.69,4.41-2.51,.53-1.94-.65-3.82-2.51-4.41Z"/><path class="aj" d="M1080.26,662.83c-3.59-1.15-7.19-2.31-10.78-3.46-8.63-2.77-17.26-5.54-25.89-8.31-10.44-3.35-20.88-6.7-31.31-10.06-8.99-2.89-17.98-5.77-26.96-8.66-4.38-1.41-8.76-3.05-13.21-4.24-.06-.02-.13-.04-.19-.06-1.85-.59-3.92,.69-4.41,2.51-.53,1.94,.65,3.82,2.51,4.41,3.59,1.15,7.19,2.31,10.78,3.46,8.63,2.77,17.26,5.54,25.89,8.31,10.44,3.35,20.88,6.7,31.31,10.06,8.99,2.89,17.98,5.77,26.96,8.66,4.38,1.41,8.76,3.05,13.21,4.24,.06,.02,.13,.04,.19,.06,1.84,.59,3.92-.69,4.41-2.51,.53-1.94-.65-3.82-2.51-4.41Z"/></g><g><g><rect class="ab" x="1213.05" y="834.91" width="16.7" height="93.55" transform="translate(-122.62 201.39) rotate(-8.98)"/><rect class="g" x="1213.12" y="835.88" width="4.36" height="93.55" transform="translate(-122.86 200.48) rotate(-8.98)"/><rect class="d" x="1213.13" y="835.94" width="3.52" height="93.55" transform="translate(-122.87 200.4) rotate(-8.98)"/></g><rect class="t" x="1229.34" y="859.46" width="7.42" height="58.66" transform="translate(-21.62 30.79) rotate(-1.42)"/><polygon class="m" points="1246.19 931.6 1238.77 931.61 1238.69 872.96 1242.39 861.56 1246.11 872.95 1246.19 931.6"/><rect class="q" x="1238.73" y="872.95" width="7.42" height="58.66" transform="translate(-1.18 1.62) rotate(-.07)"/><g><rect class="t" x="1250.11" y="854.85" width="3.45" height="57.97" transform="translate(65.33 -85.94) rotate(4.04)"/><rect class="i" x="1248.22" y="858.94" width="6.64" height="57.97" transform="translate(65.61 -85.89) rotate(4.04)"/><rect class="g" x="1249.79" y="859.01" width="7.37" height="2.98" rx=".34" ry=".34" transform="translate(63.68 -86.09) rotate(4.04)"/><rect class="g" x="1256.26" y="866.6" width="1.5" height="2.09" transform="translate(64.24 -86.39) rotate(4.04)"/><path class="i" d="M1257.09,886.94h0c-.49-.03-.86-.46-.83-.95l1.51-21.41c.03-.49,.46-.86,.95-.83l1.04,.07c.51,.04,.89,.49,.82,1l-2.55,21.34c-.06,.47-.47,.82-.95,.79Z"/></g><rect class="ab" x="1254.48" y="878.91" width="7.42" height="58.66" transform="translate(121.94 -148.59) rotate(7.1)"/><path class="af" d="M1239.85,984.76h-2.1c-10.64,0-19.43-6.99-20.08-15.96l-4.04-55.88h50.33l-4.04,55.88c-.65,8.97-9.45,15.96-20.08,15.96Z"/><path class="l" d="M1247.47,968.99h-2.1c-10.64,0-19.43-6.99-20.08-15.96l-2.9-40.11h-8.76l4.04,55.88c.65,8.97,9.45,15.96,20.08,15.96h2.1c10.64,0,19.43-6.99,20.08-15.96l.26-3.65c-3.48,2.4-7.91,3.83-12.72,3.83Z"/></g></g><g><path class="l" d="M697.51,1111.74s-5.43,74.22,4.65,147.52c10.08,73.3,13.74,92.39,11.91,100.25-1.83,7.87-24.75,32.51,.45,124.64,25.2,92.13,14.87,92.13,11.66,113.21-3.22,21.07-6.61,47.59,29.12,45.81,23.86-1.19,113.41,5.5,120.74-4.58,7.33-10.08-51.16-21.84-78.72-39.4-27.56-17.56-25.58-23.92-23.53-93.83,2.06-69.91-6.25-118.79,0-127.01,6.25-8.22,20.91-40.29,10.84-151.16-10.08-110.87-87.11-115.45-87.11-115.45Z"/><path class="af" d="M678.97,1031.92c.28,9.27-11.63,29.43-11.63,62.42s23.82,61.39,68.72,99.87c28.4,25.66,79.72,125.78,93.46,145.35,9.16,13.16-15.54,27.08-16.49,55.31-.95,28.23,6.04,173.96,2.1,202.43-3.94,28.47-17.82,35.8-7.21,52.29,10.61,16.49,39.38,8.42,60.93,10.76,21.55,2.35,74.29,8.93,83.45,0,9.16-8.93-43.98-28.17-62.31-37.34-18.33-9.16-36.65-22.69-33.9-42.5,2.75-19.81,46.73-197.56,50.39-211.31,3.66-13.74,21.69-29.32,4.89-69.64-16.8-40.32-101.24-219.98-103.46-231.4-2.22-11.41,1.45-32.49-4.97-59.98-6.41-27.49-123.98,23.71-123.98,23.71Z"/><path class="a`" d="M876.04,1638.6c7.33-10.08-51.16-21.84-78.72-39.4-26.64-16.98-25.68-23.49-23.73-87.02-10.09,2.24-28.09,6.31-50.13,6.91,13.4,57.64,5.48,60.29,2.73,78.28-3.22,21.07-6.61,47.59,29.12,45.81,23.86-1.19,113.41,5.5,120.74-4.58Z"/><path class="a`" d="M868.85,1660.36c21.55,2.35,74.29,8.93,83.45,0,9.16-8.93-43.98-28.17-62.31-37.34-18.33-9.16-36.65-22.69-33.9-42.5,.78-5.59,4.84-23.77,10.35-47.29-25.51,1.03-41.02-2.02-50.5-5.19,.6,31.33,.67,58.56-.81,69.25-3.94,28.47-17.82,35.8-7.22,52.29,10.61,16.49,39.38,8.42,60.93,10.76Z"/><path class="a`" d="M866.2,818.79s28.08-5.19,32.71-36.06c3.79-25.23,60.44-17.4,59.22-16.32-1.22,1.07-24.43,57.27-24.43,57.27h-17.71l-37.03,31.76-12.76-36.65Z"/><path class="y" d="M791.37,859.98s73.71-50.45,77.37-48.01c3.67,2.44,24.43,33.39,24.84,41.54,.41,8.14-109.54,86.05-109.54,86.05l7.33-79.58Z"/><path class="a`" d="M953.31,933.32c6.27,.97,36.2,15.75,39.48,15.51,25.85-1.88,51.73-7.18,62.51-2.82,22.09,8.93,43.43,31.39,8.65,21.98s-50.01,10.92-69.75,7.63c-19.74-3.29-60.74-13.63-60.74-13.63l19.85-28.67Z"/><path class="s" d="M683.84,999.47l-4.87,32.44s74.34,22.42,126.77-7.81l-2.79-21.88-119.11-2.75Z"/><path class="a`" d="M752.74,678.84c19.15-3.35,28.52-100.21-4.06-122.33-32.59-22.12-73.56-6.86-79.98,22.81-6.42,29.67,2.19,59.17,21.47,76.57,19.28,17.4,46.31,25.79,62.56,22.95Z"/><path class="ai" d="M686.59,695.85c-18.33,22.11-54.98,36.76-37.57,158.23,17.41,121.47,32.22,162.7,32.22,162.7,0,0,54.82,17.36,121.71-7.63,3.67-85.29,23.56-244.45-54.19-285.05-31.94-18.2-62.18-28.25-62.18-28.25Z"/><path class="y" d="M805.8,957.84c.31-5.67,.62-11.45,.89-17.31l-110.64-150.75s-27.73,12.92,30.13,97.17c31.61,46.03,60.19,64.03,79.62,70.9Z"/><path class="ai" d="M695.18,813.06c1.82,3.7,76.31,108.99,103.95,124.28,27.64,15.29,169.06,48.75,172.3,44.95,3.23-3.81-11.38-17.7,8.01-48.35-12.45-3.89-129.55-34.89-154.46-50.47-24.91-15.58-59.94-121.12-84.23-128.96-24.29-7.84-80.45-12.32-45.57,58.55Z"/><path class="a`" d="M729.04,668.28s-2.44,32.74,11.91,47.67c14.35,14.93,16.19,16.66,11.3,15.79-4.89-.86-68.41-28.43-65.67-35.9,2.75-7.47,3.67-25.04,3.67-25.04l-1.22-24.92,40.01,22.4Z"/><path class="s" d="M689.09,673.83c-3.88,3.91-33.28-26.39-41.43-41.1-8.15-14.71-13.77-23.59-7.63-49.83,6.14-26.24,16.02-36.83,38.97-48.05,22.95-11.22,35.46-17.22,37.19-22.12,1.73-4.9,10.36,4.55,7.99,9.08-2.37,4.54,8.35,.61,11-7.33,4.47-13.42,1.46-19.12,3.56-20.22,2.09-1.1,15.88,5.85,20.23,18.09,2.56,5.52,2.22-10.83,4.54-10.66,2.32,.17,16.01,8.37,16.91,34.18,.9,25.8-18.3,32.32-37.21,30.59-16.24-1.48-40.85-2.63-48.68,11.56-7.83,14.19,4.45,23.24,2.72,28.13-1.73,4.9-20.3-4.91-20.58,2.6s-2.57,11.12,14.54,26.47c5.85,14.23,7.31,29.09-2.1,38.6Z"/><path class="a`" d="M1001.32,948.54s19.76-8.17,29.58-8.95-11.29,15.07-11.29,15.07l-18.29-6.12Z"/><g><path class="ab" d="M884.4,782.54c4.73,7.15,13.03,14.92,19.77,17.24l.04,.25c2.04,14.04,12.74,24.3,25.22,24.3h8.52c15.02,0,23.25-16.99,25.53-29.3,2.83-15.32,4.84-31.06,3.13-52.31h-64.26c-.38,4.66-.61,9.32-.73,13.98-6.21-5.4-13.48-6.73-18.24-2.63-6.26,5.39-5.8,18.14,1.04,28.46Zm3.11-22.61c3.25-2.8,9.32,.03,14.02,6.32,.1,8.37,.62,16.74,1.55,25.11-4.26-2.03-9.83-7.78-13.17-12.83-4.81-7.27-5.88-15.59-2.4-18.59Z"/><path class="d" d="M917.4,810.62h8.52c15.02,0,23.25-16.99,25.53-29.3,2.19-11.83,3.87-23.92,3.74-38.59h11.4c1.71,21.25-.29,36.99-3.13,52.31-2.28,12.31-10.5,29.3-25.53,29.3h-8.52c-10.05,0-18.94-6.66-23.08-16.58,3.37,1.84,7.13,2.87,11.06,2.87Z"/></g><path class="a`" d="M898.47,774.17c.41-6.31,4.28-7.33,11.61-6.11,7.33,1.22-5.09,16.09-8.96,13.64-3.87-2.44-2.65-7.53-2.65-7.53Z"/><path class="a`" d="M966.63,751.68c6.15,.33,11.96,4.38,9.54,24.96-3.91,33.19-33.83,26.12-39.11,10.84-5.28-15.28,17.96-36.43,29.56-35.8Z"/><path class="af" d="M714,1509.21c-.81-5.77,19.55-.07,36.65-2.1,17.1-2.04,24.43-7.48,26.47-6.39,2.04,1.09,4.32,30,0,34.89-4.32,4.89-26.06,9.32-36.65,9.34-10.59,.02-18.81,1.25-21.34-4.05-2.53-5.29-5.13-31.7-5.13-31.7Z"/><path class="s" d="M876.04,1638.6c7.33-10.08-51.16-21.84-78.72-39.4-6.83-4.35-11.84-8.02-15.49-12.14-24.38-.92-41.02-3.03-52.15-5.2-1.08,5.2-2.58,9.5-3.49,15.5-3.22,21.07-6.61,47.59,29.12,45.81,23.86-1.19,113.41,5.5,120.74-4.58Z"/><path class="ac" d="M810.35,1510.73c2.2-4.43,15.79,2.09,34.04,4.12,18.25,2.04,24.87-2.54,28.43,0,3.56,2.54-1.65,27.06-6.11,31.76-4.45,4.7-52.04-1.71-56.36-6.76-4.32-5.05,0-29.13,0-29.13Z"/><path class="n" d="M952.3,1660.36c9.16-8.93-43.98-28.17-62.31-37.34-5-2.5-10-5.33-14.57-8.52-33.75-1.34-52.39-4.99-62.08-7.81-5.13,20.97-14.76,28.39-5.42,42.9,10.61,16.49,39.38,8.42,60.93,10.76,21.55,2.35,74.29,8.93,83.45,0Z"/><path class="x" d="M704.94,665.77c-5.71-2.98,5.54,18.07,25.87,28.17-1.28-6.24-1.75-12.34-1.88-17.04h0s-16.97-7.47-23.99-11.13Z"/><path class="s" d="M758.06,648.74c-35.84,.53-52.56-36.38-57.12-33.22,0,0-1.05,5.59,0,29.23,.47,10.54,5.54,21.81,15.03,27.59,16.91,10.44,26.86,11.89,37.44,10.04,7-1.22,14.85-16.15,14.85-36.51-2.82,2.87-6.96,2.82-10.19,2.87Z"/></g></g><g><g><path class="ai" d="M1436.22,1478.94c-1.1-7.04-4.62-13.12-8.66-18.86-1.03,.49-2.57-.76-1.95-2.15,.04-.11,.09-.23,.14-.34-4.26-5.79-8.81-11.44-11.88-17.96-3.58-7.6-4.88-15.93-5.69-24.22-.44-4.56-.72-9.15-1.19-13.7,0,0,0-.01,0-.02-.45-4.32-1.06-8.62-2.11-12.86-.25-1-.55-2-.88-2.98-2.48-7.46-6.82-14.32-8.17-22.11-.8-4.61-.27-9.24-.17-13.89,.1-5.15-.96-9.7-3.11-14.37-3.88-8.42-7.66-16.72-10.3-25.65-2.66-9-4.34-18.21-5.27-27.54-.44-4.34-.82-8.79-2.46-12.89-1.64-4.12-4.89-6.84-7.63-10.19-5.75-7.04-3.44-14.81-2.55-23.03,.97-8.95-3.46-15.67-7.29-23.35-1.68-3.36-3.07-6.83-3.65-10.56-.6-3.84-.57-7.72-.73-11.6-.02-.47-.04-.94-.07-1.42-.21-3.6-.69-7.28-2.51-10.44-2.01-3.48-5.65-5.47-8.1-8.59-.49-.63-.91-1.28-1.27-1.96h0c-1.56-2.9-2.14-6.24-2.88-9.43-1.18-5.08-2.36-10.16-3.55-15.23-1.85-7.96-3.7-15.93-5.55-23.88-.47-2.03-.94-4.05-1.42-6.08-1.55-6.68-3.38-13.38-4.82-20.13-.65-3.04-1.22-6.09-1.66-9.15-.67-4.71-.59-9.33,.01-14.05,.6-4.71,1.51-9.44,1.33-14.22,0-.07,0-.14-.01-.21-.24-5.05-2.14-9.74-3.48-14.58-1.22-4.36-1.86-8.89-1.84-13.42,.02-4.06,.59-8.08,1.59-12,.15-.58,.31-1.16,.47-1.73,1.34-4.68,3.07-9.29,3.25-14.21,.13-3.98-.49-7.92-.91-11.87-.1-.88-.18-1.75-.24-2.63-.35-4.79,.05-9.59,.86-14.32,.83-4.79,2.07-9.49,3.37-14.17,.7-2.52,1.64-6.39,5.14-5.62,3.04,.67,4.3,4.31,5.08,6.89,1.54,5.02,3.08,10.03,4.61,15.05,.91,2.97,1.82,5.95,2.73,8.92,1.62,5.28,3.24,10.57,4.85,15.85,.49,1.6,.98,3.2,1.47,4.8,4.34,14.2,8.68,28.41,12.36,42.8,1.28,4.98,2.46,9.98,3.56,15,1.36,6.31,2.56,12.64,3.59,19,1.29,7.94,2.32,15.93,3.11,23.94,.51,5.15,.91,10.31,1.22,15.48,.24,4.07,.52,8.17,1.42,12.15,.18,.83,.4,1.64,.65,2.46,1.23,4.06,3.26,7.8,5.35,11.47,2.02,3.56,4.17,7.12,5.86,10.86,1.46,3.24,2.58,6.62,2.99,10.21,1.03,9.06-3.14,18.2-.3,27.14,.74,2.33,1.82,4.5,3.09,6.59h0c2.32,3.85,5.25,7.38,7.85,10.95,1.32,1.82,2.62,3.72,3.74,5.7,2,3.53,3.44,7.32,3.52,11.46,.07,4.05-1.42,7.78-2.72,11.55-1.43,4.12-2.09,8.1-1.11,12.41,.32,1.38,.72,2.72,1.21,4.04,2.22,6.12,5.86,11.72,7.72,17.99,1.28,4.32,1.34,8.73,1.45,13.2,.03,1.22,.1,2.4,.22,3.53,.39,3.73,1.31,7.13,3,10.75,1.17,2.49,2.07,4.92,2.66,7.46,.34,1.47,.58,2.97,.69,4.55,.38,4.79,.57,9.59,1,14.37,.94,10.39,2.4,20.71,4.4,30.94,.63,3.27,1.35,6.51,2.09,9.75h0c.35,1.55,.7,3.08,1.05,4.61,.96,4.2,1.65,8.43,1,12.74-.47,3.06-1.33,6.03-1.96,9.04-.27,1.23-.49,2.47-.63,3.73h0s0,.02,0,.03h0s0,.01,0,.02c0,0,0,0,0,.01t0,.01s0,0,0,.01h0s0,0,0,.01h0s0,.02,0,.03c0,0,0,.02,0,.04-.03,.24-.06,.45-.08,.69-.08,.96-.13,1.93-.15,2.88-.07,3.22,.15,6.44,.52,9.63,1.72,14.91,6.89,30.43,1.59,45.04,4.62,6.39,8.75,13,9.99,21.02,.29,1.87-2.57,2.66-2.85,.78Z"/><path class="c" d="M1342.8,982.18c-.03,.78-.07,1.56-.12,2.34-.31-.1-.63-.16-.99-.15-1.83,.08-3.27,1.46-3.32,3.32-.02,1.1,.04,2.2,.18,3.29,.18,3.83,.27,7.66,.25,11.49-.75,.13-1.45,.5-1.95,1.07-.07-.57-.14-1.14-.21-1.7-.32-2.75-.59-5.5-.8-8.27-.13-1.66-1.17-3.02-2.88-3.26-1.45-.19-3.41,.75-3.64,2.38-.04,.3-.08,.59-.12,.88h0c-.33,2.46-.6,4.9-.81,7.35-.18-1.06-.35-2.12-.52-3.18-.26-1.63-2.18-2.57-3.64-2.38-.14,.02-.28,.05-.42,.1-.11-1.42-.24-2.84-.4-4.26-.15-1.34-.91-2.66-2.16-3.13,.42,3.95,1.05,7.89,.91,11.87-.18,4.92-1.9,9.53-3.25,14.21-.16,.58-.32,1.15-.47,1.73,.69,.6,1.64,.91,2.56,.82,.24,.84,.49,1.67,.76,2.51,.5,1.58,1.97,2.6,3.64,2.38,.14-.02,.27-.06,.39-.09,1.17,4.9,2.46,9.77,3.89,14.6,.49,1.66,2.35,2.88,4.08,2.32,1.87-.6,2.61-2.23,2.32-4.08-.3-1.88-.46-3.05-.66-4.65-.17-1.44-.32-2.88-.44-4.31,1.23,1.46,3,2.33,5.13,1.76,1.56-.42,2.26-1.73,2.43-3.2,.13-1,.22-1.99,.31-2.99,1.05-.46,1.88-1.5,1.98-2.95,.41-5.67,.6-11.35,.58-17.04,.99-.35,1.9-1.16,2.09-2.21,.04-.24,.09-.46,.13-.7-1.62-5.28-3.24-10.57-4.85-15.85Zm-2.74,39.03c.04,.05,.08,.1,.13,.17-.04-.01-.09-.09-.13-.17Z"/><path class="c" d="M1365.04,1060.64c-1.09-5.02-2.28-10.02-3.56-15,.03,.5,.06,1.01,.09,1.51-.18-.89-.37-1.78-.55-2.66-.33-1.62-2.11-2.59-3.64-2.38-1.64,.22-2.85,1.59-2.88,3.26-.07,3.76-.15,7.52-.23,11.29-.64-2.28-1.28-4.55-1.93-6.83-.45-1.59-2.01-2.6-3.64-2.38-1.5,.21-3.03,1.62-2.88,3.26,.37,4.07,.65,8.14,.83,12.21-.41-.05-.83-.02-1.24,.11-1.79,.58-2.71,2.26-2.32,4.09,.38,1.76,.71,3.53,1,5.3,.12,.76,.21,1.35,.29,1.92-.37-.15-.78-.24-1.24-.22-.93,.04-1.93,.51-2.6,1.25-1.21-4.26-2.42-8.5-3.63-12.75-.46-1.59-2.01-2.6-3.64-2.38-1.51,.2-3.02,1.61-2.88,3.26,.23,2.64,.39,5.28,.5,7.93-1.19-4.42-2.37-8.84-3.56-13.25-.63-2.34-3.21-2.9-4.94-1.87-.07-.14-.15-.29-.23-.43,0,.07,.01,.14,.01,.21,.18,4.78-.72,9.51-1.33,14.22-.6,4.72-.69,9.34-.01,14.05,.44,3.06,1.01,6.11,1.66,9.15,.68,.46,1.53,.67,2.35,.56,1.76-.24,2.67-1.59,2.88-3.26,.21-1.67,.27-3.33,.24-5,1.09,2.83,2.99,5.17,6.25,5.33,1.7,.08,2.99-1.34,3.26-2.91,.41,.91,.93,1.75,1.69,2.44,1.35,1.24,2.95,1.55,4.71,1.25,.9-.15,1.9-1.05,2.23-1.96l.04,.04c1.04,.89,2.32,1.24,3.63,.69,1.21-.51,2.03-1.7,2.04-3.03,.02-3.09-.1-6.17-.37-9.26,1.18-.44,2.12-1.51,2.13-3.02,0-1.03-.02-2.06-.04-3.09,.54,.15,1.11,.15,1.65-.07,1.99-.83,3.36-2.11,4.28-3.9,1.05,3.61,2.4,7.12,4.35,10.35,.73,1.21,2.35,1.98,3.75,1.52,.37-.12,.72-.3,1.05-.54-1.03-6.37-2.22-12.69-3.59-19Z"/><path class="c" d="M1374.38,1131.21c-1.65,.14-2.85-.9-3.44-2.4-.52-1.29-1.03-2.56-1.54-3.81,.17,1.75,.3,2.69,.65,4.62,.33,1.84-.47,3.49-2.32,4.09-1.31,.42-2.46-.11-3.27-1.02,.22,1.08,.46,2.18,.74,3.3,.4,1.62-.38,3.27-1.92,3.91-.61,.26-1.35,.3-2.05,.16,.32,1.1,.65,2.19,1,3.28,.51,1.59-.46,3.3-1.93,3.92-1.49,.63-3.33,.08-4.15-1.36-.71-1.25-1.42-2.5-2.13-3.75,.52,1.78-.63,3.53-2.32,4.08-1.37,.44-2.64-.18-3.45-1.21,.09,1.42-.66,2.74-2.01,3.31-1.28,.54-3.17,.18-3.97-1.08-.35,.78-1,1.44-1.77,1.76-1.18,.49-2.75,.24-3.67-.71,.21,.72,.43,1.44,.63,2.16,1.67,5.81,2.77,11.75,3.26,17.77-1.56-2.89-2.14-6.23-2.88-9.43-1.18-5.08-2.36-10.16-3.55-15.23-1.85-7.96-3.7-15.93-5.55-23.88,.24-.06,.49-.1,.73-.1,1.52-.07,2.72,1.1,3.2,2.43,.44,1.26,.9,2.49,1.36,3.7,.4-.78,1.07-1.39,2.01-1.69,1.28-.41,3.18,.25,3.75,1.53,.2,.45,.41,.9,.6,1.35,.38-.9,1.13-1.6,2.14-1.93,.77-.25,1.51-.14,2.17,.18,0-.08,0-.17,0-.25,.1-1.52,.98-2.73,2.44-3.2,1.31-.43,2.88,.24,3.64,1.36,.02-1.34,.61-2.53,1.97-3.11,1.33-.56,2.6-.19,3.56,.7-.06-1.21-.1-2.42-.1-3.62,0-1.5,1.05-2.75,2.43-3.2,1.46-.47,2.94,.35,3.75,1.52,.04,.05,.07,.1,.1,.15,.07-1.98,.23-3.95,.47-5.93,.19-1.52,.92-2.71,2.44-3.19,1.19-.39,2.88,.17,3.58,1.26-.02-.27-.04-.54-.07-.81-.13-1.48,1.14-2.78,2.44-3.2,.12-.04,.24-.07,.36-.09,.51,5.15,.91,10.31,1.22,15.48,.24,4.07,.52,8.17,1.42,12.15Z"/><path class="c" d="M1392.32,1205.24c.1,3.2-4.71,4.65-6.18,1.68-.02-.04-.04-.08-.06-.13-.37,.97-1.08,1.7-2.17,2.05-1.41,.46-3.01-.32-3.75-1.53-.86-1.39-1.66-2.82-2.43-4.26-.43,.71-1.11,1.25-1.95,1.52-.6,.2-1.37,.15-2.07-.1,.07,.43,.14,.86,.21,1.29,.48,2.88,.69,5.8-1.52,8.08-.93,.97-2.23,1.16-3.36,.77,.02,.13,.03,.27,.04,.41,.13,1.48-1.14,2.77-2.44,3.2-.91,.29-1.91,.07-2.7-.46-1.46,.66-3.42,.34-4.39-1.22-.8-1.28-1.55-2.57-2.29-3.87-.07,.05-.14,.1-.21,.15-1.68-3.36-3.07-6.83-3.65-10.56-.6-3.84-.57-7.72-.73-11.6-.02-.47-.04-.94-.07-1.42,1.03,.35,1.85,1.24,2.22,2.29,.3,.85,.62,1.7,.94,2.54,.22-1.36,1.56-2.45,2.85-2.63,.1-.01,.2,0,.29-.01-.13-.6-.25-1.21-.38-1.81-.4-1.82,.53-3.5,2.32-4.08,1.07-.35,2.29,.01,3.12,.77-.19-1.18-.39-2.36-.59-3.55-.28-1.66,.3-3.23,1.93-3.92,1.35-.57,3.5-.15,4.15,1.36,.24,.58,.49,1.17,.74,1.76,.25-1.14,1.03-2.07,2.3-2.48,1.48-.48,3.19,.38,3.87,1.74,.18-1.28,1.22-2.4,2.44-2.8,.99-.32,1.91-.08,2.66,.45-.34-1.53,.53-3.11,1.95-3.71,.45-.18,.97-.26,1.5-.23-.54-5.23-1.08-10.46-1.62-15.69-.17-1.64,1.39-3.05,2.88-3.26,.02,0,.04,0,.06,0,1.46,3.24,2.58,6.62,2.99,10.21,1.03,9.06-3.14,18.2-.3,27.14,.74,2.33,1.82,4.5,3.09,6.59h0c.14,1.78,.24,3.55,.3,5.32Z"/><path class="c" d="M1402.83,1255.99c.48,1.81,.86,3.64,1.05,5.55,.13,1.3-.92,2.57-2.04,3.04-1.31,.55-2.6,.2-3.63-.69-1.09-.94-1.98-2.07-2.78-3.26,.23,.85,.47,1.7,.74,2.54,.45,1.44-.32,2.97-1.53,3.75-1.14,.73-3.14,.57-4.03-.52-.7-.87-1.41-1.75-2.12-2.63,.11,1.39-.77,2.74-2.04,3.28-1.59,.67-3.2,.01-4.15-1.36-1.93-2.8-3.85-5.61-5.78-8.4-.93-1.35-1.86-2.71-2.79-4.06-.15-.21-.3-.42-.44-.63,.01,.06,.03,.11,.04,.17,.23,.74,.47,1.47,.75,2.18,.03,.08,.32,.8,.33,.86,.12,.27,.23,.52,.35,.78,.64,1.4,1.38,2.74,2.19,4.06,.97,1.58,.29,3.58-1.19,4.54-1.53,.99-3.62,.29-4.54-1.19-1.8-2.9-3.23-6.05-4.24-9.3-.9-2.89-1.38-6.4,1.03-8.73,2.79-2.7,6.71-1.42,9.16,.99,1.1,1.08,1.94,2.41,2.81,3.68,.09,.13,.18,.25,.27,.38,.29-.86,.84-1.55,1.78-1.95,1.11-.46,2.81-.33,3.63,.69,.48,.6,.97,1.2,1.45,1.8-.09-1.02-.16-2.04-.21-3.05-.04-1.16,.67-2.29,1.64-2.87,1.11-.65,2.24-.5,3.35,0,.33,.15,.64,.32,.95,.5-.69-2.8-1.09-5.66-.77-8.53,.17-1.53,.93-2.71,2.43-3.2,1.07-.35,2.34,.04,3.17,.8-.43-2.73-.86-5.46-1.28-8.19-.27-1.67,.29-3.23,1.92-3.92,.79-.33,1.62-.33,2.37-.07-.21-.75-.44-1.48-.67-2.22-.7-2.25,1.45-4.4,3.57-4.2,2,3.53,3.44,7.32,3.52,11.46,.07,4.05-1.42,7.78-2.72,11.55-1.43,4.12-2.09,8.1-1.11,12.41,.32,1.38,.72,2.72,1.21,4.04-.55,.12-1.13,.1-1.67-.06Z"/><path class="c" d="M1419.56,1308.98c-.38-.05-.76-.15-1.11-.32-.14,1.32-.49,2.59-1.28,3.66-.59,.8-1.29,1.39-2.23,1.58-.07,1-.22,1.99-.53,2.98-.4,1.28-1.44,2.2-2.76,2.38-1.2,.16-2.74-.4-3.31-1.58-.06-.13-.12-.27-.18-.41-.52,.77-1.25,1.31-2.27,1.45-1.29,.17-2.66-.43-3.31-1.59,0-.01-.01-.03-.02-.04-1.15,1.45-3.68,1.93-4.99,.35-2.63-3.17-5.19-6.42-7.66-9.71-.29,1.19-1.08,2.12-2.32,2.52-1.41,.45-3.01-.32-3.75-1.53-1.6-2.62-2.72-5.55-3.19-8.59-.3-1.84,.44-3.47,2.31-4.08,.22-1,.85-1.86,1.91-2.31,1.59-.67,3.2-.01,4.15,1.36,2.12,3.11,4.31,6.17,6.56,9.18,.18,.24,.37,.48,.55,.72-.47-2.43-.96-4.86-1.48-7.28-.39-1.82,.53-3.5,2.32-4.09,1.7-.55,3.64,.64,4.08,2.32,.07,.27,.15,.52,.23,.79,.38-.72,1.03-1.28,1.97-1.59,1.56-.5,3.11,.4,3.84,1.74,.38-.69,1.02-1.24,1.94-1.54,.86-.27,1.76-.11,2.5,.32-.01-.57-.03-1.14-.05-1.71-.04-1.5,1.07-2.75,2.43-3.2,.39,3.73,1.31,7.13,3,10.75,1.17,2.49,2.07,4.92,2.66,7.46Z"/><path class="c" d="M1429.79,1385.94c-.47,3.06-1.33,6.03-1.96,9.04-.21-.02-.41-.07-.61-.13,0,1.28-.01,2.57-.01,3.86h0s0,.02,0,.03h0s0,.01,0,.02c0,0,0,0,0,.01t0,.01s0,0,0,.01h0v.02s0,.01,0,.02c0,0,0,.02,0,.04,0,.82-.01,1.64-.01,2.46,0,.41-.07,.78-.21,1.12-.88,2.24-4.26,3.08-5.75,.9-.08,.36-.17,.72-.27,1.08-.97,3.22-5.38,3.08-6.4,0-.29-.89-.58-1.77-.88-2.65-.07,1.57-1.34,2.85-2.86,3.06-1.51,.2-3.33-.76-3.64-2.38-.05-.26-.1-.52-.16-.77,0,0,0-.01,0-.02-.45-4.32-1.06-8.62-2.11-12.86-.25-1-.55-2-.88-2.98,.15-.14,.3-.26,.48-.37,.65-.42,1.48-.52,2.26-.38-.03-1.65-.06-3.3-.09-4.95-.04-1.66,1.28-3.05,2.88-3.26,1.68-.22,3.11,.8,3.64,2.38,.47,1.39,.94,2.8,1.4,4.2,.07-.73,.17-1.46,.32-2.19,.53-2.65,4.18-3.07,5.75-1.31,0-.8,0-1.61,.01-2.42,0-1.66,1.25-3.04,2.88-3.26,1.31-.18,2.55,.45,3.23,1.52,.25-2.07,.5-4.12,.75-6.19,.04-.36,.12-.71,.23-1.03,.35,1.54,.7,3.07,1.05,4.6,.96,4.2,1.65,8.43,1,12.74Z"/></g><path class="q" d="M1460.62,1279.6c-.79,3.84-3.3,7.18-5.43,10.54-.97,1.53-1.76,2.99-2.29,4.44-.95,2.62-1.07,5.24,.05,8.34,1.5,4.13,2.47,7.69,1.35,12.01-.13,.49-.27,.98-.44,1.47-2.55,7.6-9.11,14.81-6.16,23,1.32,3.64,3.88,6.82,6,10.15-.72-.79-1.7-1.45-2.67-1.67-2.73-.62-6.23,.82-6.81,3.87-.37,1.95-.76,3.9-1.16,5.85-.62-.14-1.28-.17-1.95-.08-.53,.07-1.03,.21-1.49,.41-.12-.35-.24-.69-.36-1.05-.89-2.63-3.25-4.34-6.07-3.96-1.98,.27-3.7,1.62-4.43,3.44-.08-.29-.16-.58-.24-.87-.89-3.25-1.71-6.51-2.49-9.77-.63-2.68-3.45-4.32-6.07-3.96-.55,.07-1.06,.21-1.53,.42-.97-9.63-1.95-19.24-2.93-28.86-.06-.59-.12-1.18-.18-1.77-.49-4.84-1.32-9.56-2.38-14.23-1.67-7.47-3.88-14.79-6.09-22.17-1.79-6-3.57-12.04-5.05-18.23-.61-2.52-.8-5.16-.88-7.86-.19-7,.46-14.32-2.85-20.33-2.18-3.95-4.6-7.82-5.98-12.05-1.4-4.29-1.85-8.76-2.06-13.2-.1-2.15-.18-4.32-.27-6.47-.51-13.88-.66-27.79-.88-41.68h0c-.06-3.67-.13-7.32-.21-10.97-.19-8.52-.46-17.04-.49-25.56,0-1.65,0-3.31,0-4.96,.06-7,.66-13.93,1.28-20.87,.26-2.99,.53-5.97,.76-8.98,.74-9.74-2.35-19.17-2.44-28.89-.02-2.69,.07-5.38,.23-8.08h0c.46-7.41,1.48-14.8,2.25-22.15,.6-5.72,1.19-11.46,1.79-17.18,.91-8.69,1.81-17.38,2.72-26.06,1.1-10.58,2.21-21.15,3.3-31.72,1.58-15.1,3.15-30.2,4.73-45.3,.14-1.36,2.31-2.15,3.17-.75,2.53,4.12,4.71,8.39,6.55,12.77,3.04,7.24,5.2,14.71,7.01,22.24,.55,2.26,1.06,4.52,1.56,6.79,1.34,6.06,2.63,12.13,3.92,18.2,1,4.67,1.98,9.35,2.97,14.01,1.32,6.18,2.54,12.36,3.67,18.53,2.79,15.27,5.03,30.56,6.82,46.01,.03,.22,.06,.45,.08,.67,1.38,12.01,3.08,24.07,4.4,36.14,1.11,10.17,1.95,20.34,2.07,30.52,.04,3.56-.1,7.13-.24,10.68-.07,1.7-.13,3.4-.15,5.1-.1,5.28,.39,10.53,.88,15.79,.1,1.03,.18,2.05,.27,3.08h0c.84,9.52,1.55,19.06,2.81,28.54,.1,.79,.21,1.59,.34,2.38,.69,4.62,1.64,9.22,3.08,13.71,1.51,4.75,3.84,9.16,5.94,13.72,1.93,4.22,3.13,8.49,2.38,13.03-.69,4.15-3.26,8.98-1.57,13.13,.3,.72,.56,1.93,.78,3.42,.88,5.91,1.08,16.29,0,19.1-.69,1.78-1.22,4.19-1.5,6.71-.43,3.79-.29,7.83,.73,10.33,1.47,3.61,2.63,7.31,1.83,11.15Z"/><path class="q" d="M1460.15,1498.14c.75,1.79-2.54,2.56-3.28,.78-1.28-3.06-2.58-6.13-3.89-9.18-1.04,.48-2.61,.07-2.52-1.23,.1-1.33,.18-2.66,.28-4-.64-1.48-1.28-2.95-1.93-4.43-.95-2.18-1.92-4.27-2.89-6.45v-.09c-2.37-5.35-4.79-10.67-7.25-15.99-4.1-8.87-9.38-17.7-10.98-27.24-1.58-9.45-2.25-19.05-3.22-28.56-.49-4.92-1-9.83-1.5-14.75,.59,.13,1.21,.15,1.85,.06,.71-.1,1.42-.33,2.07-.69,.72,1.93,1.45,3.84,2.21,5.75,.52,1.32,1.21,2.6,2.54,3.3,1.12,.59,2.27,.83,3.53,.66,2.66-.36,4.85-2.66,4.8-5.44-.03-1.93-.06-3.87-.09-5.79,.63,.15,1.31,.18,2.03,.09,2.77-.37,4.68-2.65,4.79-5.43,0-.09,0-.18,.01-.27,1.75-.57,3.25-1.9,3.7-3.75,1.66-6.91,3.16-13.85,4.48-20.84,.23-1.17,.24-2.32-.15-3.41,1.99,3.52,3.1,7.14,2.88,11.12-.3,5.34-1.68,10.7-2.63,15.98-.97,5.44-1.95,10.87-2.93,16.3-1.79,9.98-5.3,21.13-2.75,31.23h0c.07,.33,.16,.66,.26,.97,.05,.17,.1,.34,.16,.5,.55,1.7,1.34,3.31,2.17,4.91h0c1.31,2.52,2.74,4.99,3.58,7.65,1.55,4.91,1.03,10.07,.69,15.08-.33,4.84-.66,9.68-1,14.52-.33,4.86-.66,9.72-1,14.58,2.02,4.67,4.02,9.35,5.98,14.04Z"/><path class="p" d="M1421.13,945.63c-.5-2.26-1.02-4.53-1.56-6.79-.67,.9-1.07,2.01-1.05,3.2,.04,2.9,.07,5.81,.11,8.71-.28,1.27-.66,2.51-1.12,3.72-.24,.51-.49,1-.74,1.5-.3-.1-.61-.18-.94-.22-.27-.04-.53-.05-.79-.05-.12-.99-.3-1.96-.63-2.88-.52-1.44-1.18-2.74-2.28-3.83-1.45-1.42-3.16-1.92-5.12-2.15-1.16-.13-2.48,.52-3.35,1.19-.97,.74-1.62,1.69-1.98,2.88-.1,.35-.21,.7-.32,1.05-.81-1.05-1.92-1.84-3.25-2.08-1.1,10.57-2.21,21.15-3.3,31.72l.09-.15c.94-1.78,1.76-3.62,2.49-5.48,.87,.75,1.84,1.22,3,1.38,2.42,.32,4.67-.94,5.72-3.07,.24,.79,.63,1.51,1.28,2.17,.96,.96,2.54,1.68,3.91,1.62,1.87-.08,3.48-.97,4.48-2.35,.83,.3,1.73,.41,2.63,.29,1.16-.15,2.36-.63,3.17-1.52,1.06-1.16,1.43-2.38,1.62-3.92,.01-.1,.02-.2,.04-.3,.26-1.82,.61-3.61,1.23-5.34,.18-.38,.38-.75,.58-1.11-1.28-6.07-2.58-12.13-3.92-18.2Z"/><path class="p" d="M1438.5,1042.38c-.36,.49-.82,.92-1.24,1.25-.8,.61-1.62,.95-2.62,1.08-2.18,.3-4.39-.72-5.51-2.64-.42-.71-.83-1.42-1.25-2.13-.3,.78-.61,1.56-.94,2.33-.73,1.73-3.02,2.74-4.77,2.74-1.23,0-2.6-.48-3.61-1.31-.07,.06-.14,.13-.22,.18-.8,.61-1.62,.95-2.62,1.09-1.13,.15-2.26-.02-3.27-.55-.58,.41-1.22,.73-1.77,.86-.97,.22-1.97,.22-2.94,0-.05-.01-.1-.03-.14-.04-.99,4.85-1.98,9.71-2.96,14.58-.43,2.13-2.56,3.69-4.6,3.96-1.22,.16-2.46-.03-3.53-.66-.72-.42-1.64-1.22-1.98-1.98-1.41-3.17-2.52-6.39-3.19-9.79-.66-3.36-1.04-6.78-1.28-10.19-.01-.18-.02-.36-.04-.55-.18,1.08-.35,2.18-.49,3.26,.03-.2,.05-.4,.08-.6-.21,1.44-.57,2.6-1.57,3.7,.46-7.4,1.48-14.8,2.25-22.14,.6-5.72,1.19-11.46,1.79-17.18h.02c2.54-.12,4.54,1.83,5.34,4.06,1.93,5.45,2.62,11.12,2.99,16.82,1.09-2.72,2.55-5.28,4.6-7.55,1.49-1.64,4.09-1.97,6.05-1.14,2.04,.86,3.36,2.83,3.4,5.05,0,.26,0,.52,0,.77,.77-.53,1.64-.89,2.5-1,1.13-.15,2.43,.1,3.53,.68,.06-.35,.13-.69,.18-1.05,.16-1.12,1.12-2.21,1.98-2.88,.8-.61,1.62-.95,2.62-1.08,1.9-.26,3.83,.49,5.04,1.95,.72-8.23,1.13-16.49,1.22-24.76,0-.41,.05-.8,.14-1.18,2.79,15.27,5.03,30.56,6.82,46.01Z"/><path class="p" d="M1445.05,1109.72c-.13-10.18-.97-20.35-2.07-30.52-1.61,3.55-2.41,7.38-2.99,11.25-.34-1.52-.69-3.03-1.03-4.55-.48-2.12-2.54-3.68-4.6-3.96-1.01-.13-1.93-.02-2.86,.38-1,.42-2.21,1.23-2.65,2.26-1.73,4.09-3.08,8.28-3.96,12.56-.91-1.53-2.89-2.43-4.59-2.43-1.81,0-3.56,.92-4.57,2.43-1.29-.96-2.94-1.53-4.49-1.53-2.65,0-5.02,1.37-6.66,3.38-2.14-3.09-5.91-4.96-9.61-3-.89,.47-1.6,1.11-2.19,1.87-.44-1-.91-1.98-1.42-2.96-.42-.82-1.08-1.47-1.88-1.93-.62,6.94-1.22,13.87-1.28,20.87-.01,1.65-.01,3.31,0,4.96,.13,.11,.27,.21,.42,.31,.94,.72,2.14,1.25,3.36,1.19,2.58-.11,4.46-1.67,5.33-4.06,.46-1.25,.9-2.5,1.34-3.75,.26,.61,.52,1.22,.78,1.84,.45,1.05,1.66,1.84,2.65,2.26,1.14,.49,2.38,.6,3.6,.28,2.3-.6,3.95-2.07,5.13-3.94,.13,.4,.24,.79,.37,1.19,.8,2.65,3.32,4.34,6.07,3.97,1.42-.19,2.57-.86,3.38-1.82,2.04,2.07,5.71,2.29,7.92,.08,.65-.64,1.23-1.35,1.76-2.11,1.53-.36,2.84-1.31,3.62-2.6,1.16,2.89,2.53,5.36,4.51,7.79,.55,.66,1.64,1.2,2.44,1.42,1.21,.33,2.47,.2,3.61-.28,.12-.05,.24-.1,.35-.16,.13-3.56,.28-7.12,.24-10.68Zm-43.56-2.63c-.27,.46-.41,.35,.03-.1,0,.03-.02,.07-.03,.1Z"/><path class="p" d="M1448.96,1175.28c-.18,5.67-.35,11.33-.52,17-.07,2.05-1.36,4.05-3.16,5.02-.02,.43-.04,.86-.07,1.29-.13,2.53-1.64,4.55-4.06,5.33-1.17,.38-2.51,.18-3.61-.28-.66-.27-1.41-.72-1.98-1.31-1.08,1.69-3.36,2.5-5.27,2.24-1.93-.26-3.6-1.53-4.36-3.31-.41,1.13-.91,2.23-1.55,3.3-1,1.68-2.81,2.74-4.77,2.74-2.12,0-3.58-1.13-4.78-2.74-.22-.3-.44-.61-.63-.93-.84,.72-1.88,1.19-2.92,1.34-2.69,.36-5.34-1.31-6.07-3.97-2.18-7.92-4.35-15.84-6.53-23.77-.19,.91-.38,1.81-.57,2.72-.91,4.32-1.81,8.64-2.72,12.97-.51,2.43-3,3.95-5.33,4.06-.1,0-.2,0-.3,0-.51-13.88-.66-27.79-.88-41.68,.53,.61,.94,1.34,1.05,2.02,.32,2,.66,4,.98,6,.86-1.7,2.04-3.2,3.8-4.33,1.46-.94,3.32-1.5,5.07-1.47,1.13,.02,2.61,.28,3.58,.9,1.42,.92,2.24,2.21,2.69,3.84,.66,2.41,1.33,4.82,1.99,7.23,.36,1.32,.72,2.64,1.08,3.95,.49-.32,1.01-.57,1.56-.72,1.76-.49,4.17-.06,5.38,1.42,1.24,1.5,2.24,3.11,3.02,4.83,.75-1.63,1.72-3.16,2.91-4.57,2.63-3.13,8.42-1.46,9.24,2.43,.23,1.08,.47,2.15,.72,3.22,1.09-.41,2.32-.42,3.45-.16,.71,.16,1.6,.66,2.3,1.27,.13-4.08,.25-8.16,.38-12.24,.24-7.49,.28-15.3,4.12-21.99,.81-1.42,2.14-2.28,3.61-2.57,.84,9.52,1.55,19.05,2.81,28.53,.1,.79,.21,1.59,.34,2.38Z"/><path class="p" d="M1459.57,1232.3c-1.86,.46-3.56,1.91-4.01,3.84-.46,2.04-.85,4.09-1.14,6.17-.74,.27-1.45,.7-2.05,1.27-1.95,1.81-3.64,4.04-4.79,6.45-.38,.8-.73,1.61-1.05,2.43-.37-.02-.74-.02-1.14,.03-.55,.07-1.09,.24-1.61,.48-.85-2.15-1.92-4.19-3.74-5.67-2.14-1.75-4.81-2.74-7.56-1.81-1.7,.58-2.89,1.59-3.79,2.88-.42-.89-.84-1.78-1.26-2.67-.95-2-1.94-3.84-3.95-5-2.8-1.63-6.26-.94-8.5,1.27-.64,.63-1.14,1.38-1.55,2.19-1.32-1.19-2.88-2.01-4.82-2.05-2.64-.06-4.88,1.49-6.29,3.61-.66,1-1.06,2.16-1.38,3.33,.07,2.7,.27,5.35,.88,7.86,1.48,6.19,3.26,12.23,5.05,18.23,1.81-.94,3.27-2.81,3.13-4.94-.21-3.48-.13-6.97,.21-10.44,.14,.38,.3,.75,.44,1.14,.77,2.23,2.8,4.17,5.33,4.06,.98-.04,1.93-.3,2.79-.75,1.08-.57,2.34-2.07,2.54-3.3,.1-.58,.19-1.14,.29-1.72,1.09,2.32,2.19,4.65,3.29,6.97,.93,1.97,3.51,2.91,5.51,2.64,2.01-.27,4.2-1.83,4.6-3.96,.14-.77,.3-1.55,.47-2.32,.04,.12,.08,.24,.13,.35,.91,2.51,1.81,5.02,2.71,7.52,.8,2.23,2.8,4.18,5.34,4.06,2.35-.1,4.79-1.63,5.33-4.06l1.08-4.82c1.34-.18,2.62-.75,3.75-1.73,1.59-1.37,2.09-3.22,2.45-5.18,.07-.38,.15-.75,.25-1.13,.49,.28,1,.48,1.53,.6,.28-2.52,.81-4.93,1.5-6.71,1.09-2.81,.89-13.2,0-19.1Zm-53.61,19.92c-.06-.08-.12-.16-.15-.22,.03,.04,.07,.09,.13,.16,.02,.03,.04,.06,.06,.09l-.03-.03Zm31.75,2.46s.02-.06,.03-.09c.04-.08,.07-.15,.07-.17,.02,.07-.02,.15-.1,.26Zm20.81-1.48s.01-.01,.01-.02c.04-.05,.07-.1,.11-.15,0,0,0,0,.01-.01,.27-.32,.6-.55-.14,.18Z"/><path class="p" d="M1452.95,1302.92c-1.12-3.11-1-5.72-.05-8.34-1.76-1.36-4.31-1.79-6.17-.45-1.97,1.42-3.32,3.11-3.97,5.47-.25,.93-.37,1.89-.47,2.85-.72-.49-1.55-.82-2.46-.94-1.87-.25-3.22,.38-4.65,1.53-.1,.08-.2,.16-.29,.25-.69-.98-1.65-1.72-2.92-2.07-1.76-.49-4.17-.06-5.38,1.42-.58,.71-1.05,1.42-1.47,2.14,0-.01-.02-.03-.03-.04-1.06-1.29-2.48-2.29-4.09-2.77-.83-.25-1.72-.36-2.59-.32-.73,.03-1.38,.19-2.03,.36,.07,.07,.13,.14,.18,.2-.07-.07-.13-.13-.18-.2h0s-.02-.02-.03-.04c-.01-.02-.03-.04-.04-.06-.12-.18-.24-.35-.36-.52-.29-.44-.59-.88-.88-1.32-.65-.94-1.31-1.93-2.11-2.77,1.05,4.67,1.89,9.39,2.38,14.23,.06,.59,.12,1.18,.18,1.77,.26,0,.52,0,.78-.03,.42-.04,.81-.12,1.2-.21,.02,.03,.04,.06,.06,.09,1.09,1.73,2.38,3.5,4.24,4.47,2.53,1.31,5.47,1.25,7.85-.13,1.28,1.12,2.96,1.79,4.66,1.8,2.96,.01,5.58-1.83,7.12-4.27,.12-.18,.22-.37,.32-.56,1.58,.21,3.21,.05,4.72-.54,.61-.24,1.19-.52,1.73-.83,1.37,1.82,3.29,3.15,5.67,3.31,.17-.49,.32-.97,.44-1.47,1.12-4.32,.15-7.88-1.35-12.01Zm-36.08,9.22s.03,.04,.04,.05c0,.01,.02,.03,.02,.04-.02-.03-.04-.06-.07-.1Zm10.6-4s-.02-.03-.04-.04c0-.01-.01-.03-.03-.04,.13,.12,.28,.27,.48,.49-.13-.13-.27-.27-.41-.4Z"/><path class="p" d="M1416.39,1302.01h0l-.09-.1,.03,.04,.05,.06Z"/><path class="o" d="M1454.89,1354.67c-1.32,6.99-2.82,13.93-4.48,20.84-.45,1.86-1.95,3.19-3.7,3.75,0,.09,0,.18-.01,.27-.11,2.78-2.02,5.06-4.79,5.43-.72,.1-1.39,.06-2.03-.09,.03,1.93,.06,3.86,.09,5.79,.04,2.77-2.14,5.07-4.8,5.44-1.25,.17-2.4-.07-3.53-.66-1.33-.7-2.01-1.98-2.54-3.3-.76-1.91-1.49-3.83-2.21-5.75-.64,.35-1.36,.59-2.07,.69-.64,.09-1.26,.07-1.85-.06-.5-5.01-1.01-10.02-1.52-15.03-1-9.94-2.01-19.88-3.02-29.81h0c.46-.21,.98-.35,1.53-.43,2.62-.35,5.44,1.28,6.07,3.96,.78,3.27,1.61,6.53,2.49,9.77,.08,.29,.16,.58,.24,.87,.73-1.81,2.44-3.17,4.43-3.44,2.83-.38,5.18,1.34,6.07,3.96,.12,.35,.24,.7,.36,1.05,.46-.2,.96-.35,1.49-.41,.66-.09,1.33-.06,1.95,.08,.4-1.95,.79-3.89,1.16-5.85,.58-3.05,4.08-4.48,6.81-3.87,.97,.22,1.95,.89,2.67,1.67,.24,.36,.46,.72,.68,1.09,.12,.19,.23,.39,.33,.58,.01,.01,.01,.03,.02,.04,.39,1.09,.38,2.24,.15,3.41Z"/><path class="p" d="M1454.71,1351.22c-.1-.19-.21-.39-.33-.58-.22-.37-.44-.73-.68-1.09,.25,.28,.46,.57,.63,.86,.15,.27,.28,.54,.38,.81Z"/><path class="q" d="M1621.01,1187.53c-1.39,3.78-3.78,7.01-6.17,10.23-1.01,1.36-2.02,2.74-2.94,4.15-1.7,2.58-3.12,5.3-3.75,8.35-.77,3.72-.63,7.57-1.42,11.29-1.22,5.74-5.15,9.83-9.46,13.54-3.08,2.65-6.73,5.33-8.98,8.84-.57,.88-1.05,1.81-1.41,2.81-1.31,3.61-.48,7.44-.74,11.17-.11,1.53-.42,2.97-.95,4.33h0c-.5,1.34-1.22,2.58-2.15,3.75-3.36,4.21-8.46,6.59-11.79,10.82-3.09,3.91-2.71,8.62-2.32,13.34,.21,2.54,.43,5.09,.11,7.51-.66,5.02-3.47,9.25-7.15,12.61-7.71,7.05-18.88,10.98-24.05,20.55-1.43,2.64-2.35,5.46-3.05,8.36h0c-1.73,7.1-2.13,14.67-5.33,21.18-.75,1.52-1.65,2.99-2.76,4.37-2.29,2.86-5.64,4.82-8.59,7.13h-.01c-1.1,.87-2.14,1.78-3.04,2.81,0,0,0,0,0,0,0,0,0,0,0,0h0c-.8,.91-1.5,1.92-2.03,3.07-2.85,6.17-.46,13.45-2.87,19.78-2.07,5.41-7.03,8.36-11.2,12-.08,.07-.15,.14-.24,.21-1.95,1.73-3.8,3.72-4.54,6.28-1,3.42-.09,7.06-.1,10.54,0,3.22-.85,6.23-3.12,8.59-1.98,2.07-4.6,3.34-6.81,5.13-.12,.09-.23,.18-.35,.28-2.82,2.4-3.34,5.64-4.42,9.01-.83,2.57-2.13,4.86-3.93,6.87-5.42,6.05-13.79,8.41-20.24,13.09-2.01,1.46-3.84,3.14-5.34,5.24-.26,.37-.6,.55-.97,.62-.02,1.56-.04,3.13-.05,4.71-.01,1.53-.04,3.05-.05,4.57-.01,1.9-2.98,1.9-2.96,0,.04-3.61,.07-7.21,.12-10.81v-.3c.08-7.32,.15-14.63,.24-21.94,.07-6.93,.13-13.93,1.72-20.7,.39-1.69,.88-3.36,1.43-5h0c.27-.8,.55-1.6,.86-2.4,1.53-4.09,3.39-8.07,5.18-12.04,2.66-5.9,5.31-11.81,7.97-17.71,.4-.89,.8-1.79,1.2-2.68,2.71-6.03,5.39-12.19,9.36-17.53,3.37-4.54,9.18-8.45,9.68-14.5,.25-3.08,.18-5.96,1.84-8.69,1.36-2.24,3.34-4,4.99-6.01,2.17-2.65,2.88-5.86,3.62-9.08,.58-2.54,1.17-5.07,2.51-7.35,2.6-4.45,7.55-6.51,10.72-10.41,1.6-1.97,1.98-4.19,2.05-6.57,.01-.53,.01-1.08,0-1.62-.04-3.05,.25-5.82,1.53-8.62,2.28-4.99,6.83-8.92,7.79-14.49,.58-3.37,.04-6.83,.53-10.22,.43-3,1.67-5.82,3.32-8.36,2.22-3.42,4.94-6.54,7.74-9.57,0,0,0,0,0,0,1.82-1.98,3.66-3.91,5.42-5.87,3.47-3.87,6.93-7.74,10.41-11.6,1.42-1.59,2.85-3.17,4.27-4.76,2.18-2.43,5.05-4.96,6.05-8.17,.82-2.64,.36-5.52,1.31-8.14,1.82-4.96,6.93-5.37,11.41-6.25,1.93-.38,3.96-.91,5.18-2.5,.13-.16,.25-.34,.35-.52,.8-1.4,1.02-3.08,1.53-4.6,.37-1.1,.85-2.18,1.44-3.18,2.59-4.41,7.03-7.39,11.62-9.43,.35-.15,.72-.31,1.08-.45,9.57-3.89,22.14-4.45,28.71-13.27,.67-.9,2.46-1.04,2.71,.35,.46,2.67,.24,5.31-.69,7.86Z"/><path class="p" d="M1614.84,1197.76c-1.01,1.36-2.02,2.74-2.94,4.15-1.7,2.58-3.12,5.3-3.75,8.35-.77,3.72-.63,7.57-1.42,11.29-1.22,5.74-5.15,9.83-9.46,13.54-3.08,2.65-6.73,5.33-8.98,8.84-.45-1.23-.54-2.57-.21-3.92,.3-1.22,.94-2.38,1.64-3.49-1.97,1.42-4.68,1.39-6.62-.1-.97-.75-1.6-1.71-1.98-2.88-.47-1.47-.04-2.93,.56-4.26,.19-.43,.39-.86,.58-1.28-1.32,.13-2.67-.21-3.84-1.11-2.22-1.71-2.74-4.69-1.43-7.13,.5-.93,.98-1.86,1.46-2.8-.99-.25-1.93-.75-2.67-1.43-1.29-1.19-1.76-3.04-1.5-4.75,.13-.16,.25-.34,.35-.52,.8-1.4,1.02-3.08,1.53-4.6,.37-1.1,.85-2.18,1.44-3.18,2.59-4.41,7.03-7.39,11.62-9.43,.35-.15,.72-.31,1.08-.45,.39,1.22,.39,2.46,.14,3.68,.07,.07,.14,.15,.2,.23,.69,.89,1.08,1.95,1.14,3.04,.63,.21,1.22,.49,1.72,.89,.94,.73,1.66,1.7,1.98,2.87,.23,.83,.33,2.13,0,2.94l-.07,.15c.3,.04,.6,.1,.91,.19,1.98,.6,3.39,2.09,4.01,3.97,3.79-3.75,7.59-7.51,11.38-11.26,.86-.86,1.98-1.37,3.15-1.53Z"/><path class="p" d="M1585.16,1262.24c-.5,1.34-1.22,2.57-2.15,3.75-3.36,4.21-8.46,6.59-11.79,10.82-3.09,3.91-2.71,8.62-2.32,13.34-.13,.05-.27,.1-.4,.15-2.13,.72-4.36,.66-6.54,.24-1.14-.23-2.18-1.09-2.87-1.98-.22-.28-.42-.6-.61-.94-1.6,.09-3.27-.51-4.45-1.58-.41-.38-.75-.88-1.01-1.42-3.29,3.35-6.36,6.9-9.4,10.47-1.63,1.9-4.65,1.95-6.7,.86-2.12-1.11-3.22-4-2.54-6.25,1.55-5.11,3.61-10.1,6.17-14.8-.49-.07-.97-.19-1.45-.4-.69-.29-1.3-.72-1.81-1.24-1.03,.9-2.09,1.78-3.17,2.63-1.23,.95-2.35,1.55-3.92,1.62-1.21,.05-2.41-.47-3.35-1.19-.97-.75-1.61-1.71-1.98-2.88-.48-1.5-.02-2.9,.56-4.26,1.59-3.7,3.19-7.41,4.77-11.12,0,0,0,0,0,0,1.82-1.98,3.66-3.91,5.42-5.87,3.47-3.87,6.93-7.74,10.41-11.6,1.61,5.3-1.06,10.98-3.22,15.94,.4,.15,.75,.33,1.08,.55,3.09-3.37,6.47-6.45,10.15-9.27,1.35-1.03,3.46-.89,4.92-.28,1.59,.68,2.71,1.92,3.21,3.58,1.46,4.91,.16,9.61-2.1,13.89,3.56-1.9,8.28,.63,8.19,4.84,0,.32-.02,.64-.04,.96,.37,.34,.7,.73,.97,1.17,.44,.75,.83,1.92,.75,2.8-.04,.38-.07,.75-.1,1.14,1.82-1.98,3.59-3.98,5.55-5.83,3.03-2.86,6.31-5.49,9.78-7.83Z"/><path class="p" d="M1531.72,1342.26c-.94,.94-1.87,1.9-2.81,2.85,.49-.83,.98-1.67,1.48-2.5,1.43-2.35,2.98-4.85,2.72-7.73-.38-4.24-3.81-8-8.33-7.39-2.69,.36-4.88,2.03-6.9,3.76-2.23,1.92-4.03,4.28-5.8,6.63-.22-.6-.46-1.19-.74-1.8-.05-.11-.12-.22-.19-.33,2.4-6.11,3.55-12.75,3.26-19.3-.13-2.99-2.45-5.28-5.14-5.51-.07,2.38-.45,4.6-2.05,6.57-3.17,3.9-8.12,5.96-10.72,10.41-1.33,2.27-1.93,4.81-2.51,7.35,1.96-2.09,4.03-4.06,6.2-5.94,.65-.56,1.31-1.1,1.97-1.64-.44,1.64-.97,3.26-1.6,4.85-.83,1.87-1.78,3.67-2.87,5.4-1.25,1.99-.89,5.09,.86,6.7,.71,.65,1.53,1.13,2.44,1.42,.46,.15,.92,.21,1.38,.2,0,.04,0,.09,0,.13-.15,.83-.35,1.64-.63,2.45-.72,2.07,.35,4.54,1.98,5.81,1.84,1.42,4.09,1.42,6.14,.44,.74-.36,1.45-.77,2.12-1.22-2.06,4.71-3.81,9.56-5.07,14.55-.58,2.29,.36,5.09,2.54,6.25,1.74,.92,3.84,.97,5.53,.02h0s0,0,0,0c0,0,0,0,0,0,.41-.23,.8-.52,1.15-.88,.63-.63,1.26-1.28,1.89-1.92h.01c3.78-3.85,7.56-7.68,11.34-11.51,3.2-6.51,3.61-14.07,5.33-21.17-1.02,1.03-2.02,2.05-3.03,3.08Zm-21.17-2.35s-.03,.03-.04,.05c.04-.05,.08-.11,.14-.18-.03,.04-.07,.08-.1,.13Zm14.99-.66c.06-.07,.12-.13,.18-.18,.08-.07,.16-.14,.25-.21,.03-.02,.06-.04,.09-.06-.29,.27-.45,.4-.52,.44Z"/><path class="p" d="M1498.9,1409.53c-.08,.07-.15,.14-.24,.21-1.95,1.73-3.8,3.72-4.54,6.28-1,3.42-.09,7.06-.1,10.54,0,3.22-.85,6.23-3.12,8.59-1.98,2.07-4.6,3.34-6.81,5.13-.79-1-1.25-2.26-1.27-3.49-.08-5.69,1.34-11.12,2.74-16.55-1.11,1.7-2.34,3.3-3.81,4.74-1.62,1.56-3.99,2.01-6.05,1.14-.24-.1-.49-.24-.72-.38,0,.01,0,.04-.01,.05-.66,2.69-3.43,4.32-6.06,3.97-1.24-.17-2.26-.69-3.18-1.53-.77-.71-1.54-2.19-1.63-3.39-1.39,2.51-2.94,4.89-5,6.95-1.59,1.58-4.01,2-6.04,1.14-.42-.18-.81-.4-1.17-.66h0c-.6-.43-1.1-.97-1.48-1.61-.43-.74-.86-1.93-.75-2.8,.02-.17,.04-.35,.06-.52,.15-1.29,.29-2.57,.44-3.87,1.53-4.09,3.39-8.07,5.18-12.04,2.66-5.9,5.31-11.81,7.97-17.71,.59,.91,1.03,2.07,.91,3.03-.32,2.93-.66,5.85-.99,8.78,1.11-1.05,2.35-1.98,3.72-2.74,1.75-.96,3.84-1.02,5.58,0,.98,.58,1.62,1.33,2.04,2.2,1.16-.44,2.5-.49,3.59-.18,.94,.26,1.78,.77,2.45,1.44,.88-1.7,1.81-3.39,2.91-4.95,1.76-2.47,3.64-4.43,6.08-6.23,1.39-1.03,3.44-.91,4.93-.28,1.62,.69,2.65,1.91,3.2,3.58,1.23,3.73,1.47,7.44,1.17,11.12Z"/><g><path class="ai" d="M1541.12,1071.91c-.61,5.36-2.42,10.42-6.19,14.6-2.54,2.83-5.75,5.38-6.84,9.18-.2,.68-.33,1.36-.42,2.06-.44,3.33,.22,6.82,.38,10.13,.17,3.47-.18,6.89-1.87,9.98-.18,.34-.38,.67-.58,1-1.47,2.3-3.42,4.27-5.27,6.26-2.51,2.71-4.93,5.61-5.29,9.43-.39,4.23,1.11,8.39,1.31,12.61,.07,1.32,.02,2.63-.1,3.92-.61,6.21-3.15,12.13-5.1,18.02-.21,.64-.42,1.29-.62,1.94-.97,3.17-1.74,6.42-1.81,9.75-.08,4.01,.91,7.9,1.92,11.75,.4,1.53,.81,3.09,1.18,4.67,1.28,5.52,1.94,11.27-.97,16.39-1.87,3.3-5.11,5.6-6.84,8.98-.27,.52-.49,1.03-.68,1.58h0c-1.21,3.49-.95,7.38-.73,11.01,.43,6.93,.5,13.84,.29,20.75-.07,2.66-.2,5.32-.36,7.97-.16,2.7-.35,5.41-.55,8.11-.48,6.5-1.08,13-1.82,19.46-.26,2.24-.57,4.48-1.04,6.69-.4,1.89-.91,3.75-1.62,5.56-1.48,3.82-4.08,7.16-5.28,11.09-.38,1.22-.59,2.47-.69,3.72-.55,6.11,1.32,12.48-1.03,18.36-.18,.45-.38,.88-.6,1.28-1.48,2.64-3.83,4.37-5.85,6.66-2.71,3.11-2.68,7.1-2.39,10.99,.07,1.07,.18,2.14,.25,3.21,.18,2.39,.26,4.79-.18,7.16-.6,3.2-2.35,5.86-4.57,8.2-2.21,2.34-4.85,4.32-6.78,6.92-2.57,3.45-2.44,7.31-1.69,11.38,.1,.58,.22,1.15,.32,1.73,.62,3.21,1.19,6.43,.55,9.69-.68,3.48-2.63,6.56-4.46,9.53-2.18,3.53-3.97,6.99-4.36,11.18-.07,.76-.11,1.53-.13,2.29-.07,3.07,.24,6.14,.42,9.21,.22,3.74,.3,7.58-.66,11.23-.91,3.49-2.88,6.42-5.27,9.07-2.52,2.8-5.59,5.3-7.38,8.68,0,0,0,.01,0,.03,2.54,7.15,6.14,14.05,9.56,20.43,.9,1.68-1.65,3.18-2.55,1.5-2.1-3.92-4.17-7.88-6.03-11.92-.85-1.84-1.66-3.72-2.42-5.61-.27,2.07,.11,4.16,1.64,5.79,1.3,1.39-.79,3.49-2.1,2.09-2.04-2.19-2.84-4.97-2.51-7.94,.18-1.66,.64-3.14,1.28-4.51-1.56-4.57-2.68-9.29-3.09-14.12-.35-4.1-.09-8.26,.84-12.27,.97-4.15,2.97-7.93,4.05-12.03,.18-.66,.31-1.32,.41-1.99h0c.58-3.91-.03-7.86-.54-11.76-.62-4.78-1.28-9.55-1.93-14.32-.03-.24-.07-.49-.1-.74-1.24-9.29-2.38-18.62-2.94-27.98-.17-2.88-.26-5.75-.27-8.6-.05-8.51,.58-16.93,1.7-25.3,.82-6.2,1.92-12.38,3.22-18.57,.27-1.31,.55-2.6,.84-3.91,1.76-7.89,3.61-15.73,5.56-23.55,1.5-6.09,3.08-12.16,4.71-18.23,1.17-4.38,2.38-8.76,3.62-13.12,.62-2.19,1.24-4.37,1.87-6.56h0c.66-2.39,1.34-4.76,2.01-7.13,1.28-4.52,2.72-9.1,3.01-13.82,.47-7.72-4.6-14.56-3-22.28,.41-1.99,1.11-3.83,2.01-5.55,0,0,0-.01,0-.02,2-3.9,4.96-7.27,7.84-10.7,2.99-3.58,5.89-7.21,7.47-11.57,.34-.95,.59-1.92,.73-2.89,.22-1.56,.17-3.13-.24-4.69-.97-3.74-3.18-6.88-2.77-10.91,.74-7.24,7.03-12.45,9.12-19.29,.07-.21,.13-.43,.18-.65,1.79-6.83,1.17-14.13,3.22-20.87,.26-.86,.56-1.7,.92-2.54,2.79-6.54,9.84-10.98,11.26-18.11,.17-.84,.24-1.67,.26-2.5,.04-1.56-.16-3.11-.47-4.65-.63-3.21-1.73-6.4-2.15-9.63-.28-2.12-.28-4.25,.32-6.42,1.31-4.74,4.68-8.31,7.68-12.11,1.46-1.85,2.83-3.75,3.82-5.87,1.2-2.54,1.92-5.24,2.49-7.97,1.09-5.21,1.64-10.58,3.95-15.43,2.75-5.78,8.01-11.01,14.82-10.7,.59,.02,1.34,.43,1.43,1.08,.63,4.7,1.28,9.4,1.91,14.1,.42,3.11,.91,6.23,1.37,9.35,.8,5.38,1.5,10.8,1.6,16.19,.03,1.81-.04,3.6-.24,5.36Z"/><path class="c" d="M1541.12,1071.91h-.01c-1.84-.42-2.64-2.38-2.32-4.09,.09-.46,.17-.92,.26-1.38-.38,.09-.78,.11-1.21,.05-.17-.02-.32-.07-.46-.1-.57,1.1-1.17,2.18-1.82,3.23-.88,1.42-2.61,2.01-4.15,1.36-.7-.3-1.19-.75-1.51-1.31-.45,1.14-.88,2.27-1.28,3.42-.63,1.76-2.23,2.74-4.09,2.32-.27-.07-.52-.18-.75-.3-.44,.93-.89,1.87-1.34,2.8-.72,1.5-2.74,1.95-4.15,1.36-1.41-.59-2.2-2.06-1.98-3.54-.71,.38-1.56,.51-2.45,.31-1.87-.43-2.61-2.38-2.32-4.08,.1-.6,.27-1.67,.31-2,0-.07,.02-.15,.04-.28,.02-.18,.04-.35,.07-.52,.04-.35,.08-.71,.11-1.06,.07-.6,.12-1.22,.16-1.83-.42,.06-.86,.04-1.28-.05-.37-.09-.7-.23-.98-.43,1.46-1.85,2.83-3.75,3.82-5.87,1.2-2.54,1.92-5.24,2.49-7.97,.04,0,.08,.01,.13,.02,1.49,.34,2.33,1.78,2.44,3.2,.01,.23,.02,.46,.04,.69,.33-.55,.67-1.1,1.02-1.64,1.8-2.76,6.08-1.67,6.19,1.68,.03,.91,.03,1.82,0,2.73,.41-.04,.82-.02,1.2,.07,.14,.03,.27,.08,.4,.13,.58-1.1,1.18-2.18,1.81-3.26,1.12-1.91,4.03-2.08,5.41-.54,.71-.9,1.86-1.39,3.04-1.23,.15,.02,.29,.06,.44,.1,.46-1.17,.92-2.35,1.38-3.53,.8,5.38,1.5,10.8,1.6,16.19,.03,1.81-.04,3.6-.24,5.36Z"/><path class="c" d="M1503.96,1084.22c-.74-.17-1.4-.13-1.98,.1,.43,3.23,1.53,6.42,2.15,9.63,.72-1.88,1.43-3.76,2.15-5.65,.62-1.62-.68-3.71-2.32-4.08Zm24.09,23.67c-.16-3.31-.82-6.79-.38-10.13-.2,.43-.4,.86-.59,1.29-.18-1.09-.85-2.04-1.95-2.51-1.51-.64-3.3-.08-4.15,1.36-.21,.36-.42,.73-.63,1.09-.11-1.08-.64-2.05-1.67-2.66-.97-.58-2.1-.75-3.19-.45-1.8,.49-2.9,1.91-3.8,3.44-.09,.15-.18,.3-.27,.45,.27-1.61-.37-3.16-1.93-3.82-1.51-.63-3.3-.07-4.15,1.36-.25,.42-.49,.85-.74,1.28-.02,.83-.09,1.66-.26,2.5-1.42,7.13-8.48,11.57-11.26,18.11-.36,.84-.66,1.69-.92,2.54,.59-.03,1.14-.21,1.61-.5,0,1.34,.71,2.57,2.01,3.11,1.39,.59,3.46,.15,4.15-1.36,1.34-2.93,2.67-5.85,4.05-8.76,.71,2.68,4.48,3.64,6.07,.95,.86-1.47,1.72-2.93,2.58-4.39,.09,1.19,.23,2.38,.43,3.56,.22,1.27,1.59,2.22,2.76,2.38,1.01,.13,2.16-.22,2.88-.99,.38,1.29,1.16,2.42,2.6,3.17,1.19,.62,2.91,.55,3.94-.4,.12,.12,.24,.24,.38,.34,.2-.32,.4-.66,.58-1,1.68-3.09,2.04-6.51,1.87-9.98Z"/><path class="c" d="M1516.26,1151.09c-.61,6.21-3.15,12.13-5.1,18.02-.21,.64-.42,1.29-.62,1.94-.82,1.22-1.96,2.13-3.42,2.61-1.19,.39-2.27,.01-3.04-.74-.83,.71-2.09,.93-3.11,.69-.38-.09-.74-.27-1.06-.51-1.24,4.16-2.55,8.3-3.95,12.41-.6,1.76-2.24,2.74-4.09,2.32-1.54-.35-2.35-1.79-2.38-3.25-.36,1.19-.72,2.38-1.08,3.58-.52,1.78-2.3,2.72-4.09,2.32-1.81-.41-2.68-2.39-2.32-4.09,.52-2.41,.98-4.83,1.39-7.27,.07-.41,.13-.82,.2-1.22-.31,.13-.63,.22-.97,.26,.22-1.56,.17-3.13-.24-4.69-.97-3.74-3.18-6.88-2.77-10.91,.74-7.24,7.03-12.45,9.12-19.29,.1,0,.2,.03,.3,.05,1.31,.3,2.58,1.82,2.44,3.2-.29,2.83-.66,5.66-1.11,8.47,.83,.35,1.5,1.01,1.78,1.9,1.96-4.97,4.03-9.91,6.21-14.79,.53-1.19,2.11-1.74,3.3-1.59,1.23,.17,2.48,1.11,2.76,2.38,1.17,5.27,.55,10.54-.6,15.73,.27,.17,.51,.38,.72,.63,.63-.18,1.3-.2,1.89-.07,.78,.18,1.38,.66,1.79,1.29,1.59-2.74,3.52-5.28,5.45-7.8,.69-.91,1.58-1.5,2.57-1.6Z"/><path class="c" d="M1510.86,1213.61c-1.87,3.3-5.11,5.6-6.84,8.98-.27,.52-.49,1.03-.68,1.58-.1-.38-.18-.75-.26-1.13,0,.01-.01,.02-.02,.03-.74,1.14-1.95,1.77-3.3,1.59-1.23-.16-2.48-1.1-2.76-2.38l-.73-3.32c-.05,.11-.11,.21-.17,.32-.85,1.77-3.95,2.3-5.21,.67-.06-.07-.1-.14-.16-.21-.11,.17-.24,.34-.34,.52-1.28,2.08-4.5,2.23-5.74,0-.34-.62-.63-1.25-.89-1.89-.46,.72-.93,1.44-1.39,2.15-.73,1.14-1.96,1.76-3.3,1.59-1.14-.15-2.57-1.11-2.76-2.38-.01-.13-.03-.24-.04-.36-.89,.49-2.05,.52-2.94,.15-1.26-.53-1.98-1.69-2.04-3.03-.07-1.53-.15-3.05-.22-4.57-.07,.24-.14,.49-.21,.74-.51,1.79-2.32,2.72-4.09,2.32-1.74-.4-2.79-2.42-2.32-4.09,.72-2.52,1.43-5.05,2.15-7.57,0,0,0-.01,0-.02,2-3.9,4.96-7.27,7.84-10.7,.99,.8,1.48,2.15,1.12,3.43-.55,1.95-1.11,3.9-1.66,5.85,.56,.14,1.08,.37,1.56,.74,1.83,1.41,2,3.6,2.07,5.74,1.37-.72,3.14-.17,4.12,1.02,.45-.7,.9-1.4,1.34-2.1,.91-1.4,2.6-2.01,4.15-1.36,1.63,.69,2.21,2.26,1.92,3.92-.01,.07-.02,.12-.03,.16-.01,.17-.03,.33-.04,.5-.02,.36-.03,.72-.03,1.08,0,.02,0,.04,0,.05,.15-.14,.29-.3,.44-.43,1.19-1.03,2.73-1.12,3.91-.51,.49-.76,1-1.51,1.53-2.24,.81-1.11,1.9-1.77,3.31-1.59,1.22,.17,2.48,1.11,2.76,2.38,.25,1.15,.5,2.29,.75,3.44,.72-1.22,1.44-2.45,2.13-3.69,.81-1.45,2.66-1.98,4.15-1.36,.52,.22,.92,.54,1.23,.91,.94-3.44,1.72-6.93,2.3-10.45,.06-.34,.18-.64,.35-.91,1.28,5.52,1.94,11.27-.97,16.39Z"/><path class="c" d="M1502.89,1255.93c-.07,2.66-.2,5.32-.36,7.97-.16,2.7-.35,5.41-.55,8.11-.71-.47-1.22-1.22-1.39-2.05-.85,1.86-1.72,3.71-2.65,5.53-1.03,2.04-4.04,2.05-5.42,.49-.38,1.11-.75,2.23-1.11,3.34-.53,1.59-1.97,2.6-3.64,2.38-1.48-.2-3.05-1.62-2.88-3.26,.05-.54,.11-1.07,.16-1.61-.02,.07-.04,.15-.06,.23-.88,3.33-5.48,2.93-6.37,.07-.79,1.95-1.73,3.81-3.08,5.52-.81,1.03-2.52,1.16-3.63,.69-1.15-.48-2.11-1.72-2.04-3.03,.1-1.75,.13-3.5,.13-5.25-.69,1.39-2.34,2.07-3.86,1.73-1.87-.43-2.61-2.38-2.32-4.09,.25-1.47,.45-2.77,.63-4.03-.69,1.21-1.5,2.35-2.51,3.37-.94,.95-2.41,1.19-3.62,.69-.44-.18-.89-.5-1.24-.9,1.17-4.38,2.38-8.76,3.62-13.12,.62-2.19,1.24-4.37,1.87-6.56,.15,1.09,.28,2.19,.38,3.29,1.08-2,2.44-3.79,4.38-5.27,2.04-1.56,5.06,.56,4.99,2.86-.04,1.92-.14,3.83-.27,5.74,.2,0,.4,0,.6,.02,1.17,.15,2.55,1.11,2.76,2.38,.25,1.51,.46,3.02,.63,4.55,1-1.74,2.26-3.3,3.97-4.62,.91-.69,2.43-.54,3.36,0,.13,.07,.24,.15,.35,.24,.59-1.22,1.2-2.43,1.84-3.61,.63-1.17,2.04-1.76,3.3-1.59,1.17,.15,2.54,1.11,2.76,2.38,.01,.07,.01,.14,.03,.21,.71-.73,1.7-1.13,2.8-.98,1.5,.2,2.8,1.49,2.86,3.05,.35-.89,.69-1.78,1.02-2.71,.47-1.28,1.39-2.2,2.76-2.38,.57-.07,1.2,0,1.78,.24Z"/><path class="c" d="M1499.11,1298.15c-.4,1.89-.91,3.75-1.62,5.56-1.48,3.82-4.08,7.16-5.28,11.09-.38,1.22-.59,2.47-.69,3.72-.26,.11-.54,.18-.83,.23-1.22,.16-2.73-.41-3.31-1.59-.72-1.45-1.32-2.93-1.87-4.43-1.41,2.8-2.82,5.61-4.23,8.42-.67,1.34-2.37,1.84-3.75,1.52-1.49-.34-2.32-1.78-2.43-3.2-.1-1.19-.2-2.37-.29-3.56-.14,.35-.28,.7-.42,1.05-.57,1.48-1.09,2.98-1.59,4.49-.52,1.59-1.97,2.6-3.64,2.38-1.66-.22-2.83-1.6-2.88-3.26-.06-1.83-.13-3.66-.18-5.49-1.43,2.1-2.7,4.31-3.81,6.59-.65,1.35-2.39,1.84-3.75,1.53-1.37-.32-2.49-1.81-2.43-3.2,.03-.94,.09-1.87,.15-2.8-.85,1.48-1.7,2.96-2.54,4.44-.83,1.45-2.65,1.99-4.15,1.36-1.64-.69-2.18-2.26-1.92-3.91,.08-.53,.16-1.05,.25-1.59-.63,.16-1.31,.15-1.94-.02,.27-1.31,.55-2.6,.84-3.91,1.76-7.89,3.61-15.73,5.56-23.55,.94,.82,1.31,2.21,1.08,3.46-.49,2.57-.98,5.15-1.48,7.72,.8-.38,1.74-.45,2.66-.07,1.17,.49,1.77,1.44,1.93,2.54,1.01-1.21,2.24-2.16,3.85-2.46,2.56-.48,4.62,1.48,4.09,4.08-.1,.46-.18,.94-.27,1.4,.83-.96,1.67-1.9,2.56-2.8,1.86-1.89,4.86-.77,5.52,1.52,.62-1.22,1.26-2.44,1.92-3.64,.74-1.32,2.33-1.84,3.75-1.52,1.5,.34,2.32,1.78,2.44,3.19,.11,1.34,.22,2.67,.33,4,.9-1.8,1.81-3.6,2.71-5.41,1.3-2.58,5.39-1.86,6.07,.8,.24,.91,.47,1.83,.72,2.74,.48-1.36,.96-2.71,1.44-4.07,.52-1.46,1.74-2.43,3.27-2.39,.64-.78,1.65-1.29,2.66-1.34,.56-.02,1.07,.11,1.51,.35Z"/><path class="c" d="M1489.6,1338.11c-1.53-.21-3.32,.75-3.64,2.38-.04,.2-.08,.41-.12,.6-1.17,.01-2.09,.65-2.8,1.62-.72,.97-1.39,1.98-2.03,2.99-2.46,1.48-4.17,3.98-5.54,6.46-.04,.07-.08,.15-.13,.23-.33-.5-.8-.91-1.44-1.18-1.21-.52-2.69-.27-3.63,.69-.58,.59-1.08,1.23-1.52,1.91-.24-.02-.47-.03-.72-.01,.04-.86,.08-1.71,.13-2.57,.08-1.64-1.33-3.05-2.88-3.26-.74-.1-1.42,.06-2.01,.38,0-.37,0-.74,0-1.11,.01-1.65-1.28-3.05-2.88-3.26-1.52-.2-3.33,.75-3.64,2.38,0,.02,0,.04-.01,.06-1.12-1.24-3.16-1.61-4.51-.57-.03-.12-.06-.24-.08-.35-.05-.23-.15-.44-.25-.65-.06-.6-.13-1.21-.24-1.82-.04-.24-.13-.46-.22-.66-.02-.13-.04-.27-.07-.41-.27-1.62-2.16-2.57-3.64-2.38-1.08,.14-1.9,.75-2.39,1.61-.38-1.34-.87-2.65-1.47-3.95-.24-.5-.65-.89-1.14-1.17-1.12,8.37-1.75,16.79-1.7,25.3,.57,.58,1.34,.94,2.24,.91,.53-.02,1.01-.16,1.45-.38,.01,.27,.02,.54,.04,.8,.04,.79,.36,1.56,.86,2.16,.43,1.85,1.11,3.64,2.15,5.28,.72,1.14,1.96,1.77,3.31,1.59,1.09-.15,1.84-.75,2.37-1.6,.46,.35,1.01,.63,1.66,.85,1.25,.41,2.83-.2,3.62-1.28,.21,.07,.42,.13,.63,.15,.59,.07,1.14,0,1.64-.2,.15,.6,.35,1.2,.65,1.76,.84,1.61,2.42,2.69,4.26,2.72,1.95,.03,3.54-1.34,4.4-2.98,.71,1.29,2.27,1.97,3.81,1.63,5.64-1.22,5.99-8.21,7.4-12.66,.12-.37,.24-.73,.38-1.1-.07-1.07-.18-2.14-.25-3.21-.29-3.89-.32-7.89,2.39-10.99,2.02-2.29,4.37-4.02,5.85-6.66-.1-.02-.2-.04-.3-.05Zm-22.1,30.19s.04,.08,.07,.14c-.01,0-.04-.06-.07-.14Z"/><path class="c" d="M1469.57,1404.11c-.68,3.48-2.63,6.56-4.46,9.53-2.18,3.53-3.97,6.99-4.36,11.18-.07,.76-.11,1.53-.13,2.29-.09,0-.18,0-.28-.02-.73-.1-1.39-.45-1.91-.96-.07,.1-.15,.21-.24,.3-1.12,1.22-3.13,1.34-4.51,.55-.22-.13-.42-.28-.6-.44-.77,.78-1.87,1.17-3.13,.83-1.6-.44-2.56-1.39-3.13-2.61h0c.58-3.91-.03-7.86-.54-11.76-.62-4.78-1.28-9.55-1.93-14.32-.03-.24-.07-.49-.1-.74,1.62,0,3.4,1.63,3.2,3.32-.1,.77-.17,1.53-.24,2.3,1.32-.76,2.96-.34,3.97,.72,.05-.17,.09-.33,.14-.5,1.05-3.62,6.47-2.85,6.52,.89v.06c.98-1.14,2.6-1.71,4.01-.87,.31-.74,.67-1.48,1.1-2.18,.79-1.28,2.09-1.73,3.3-1.54,.43-1.32,.9-2.63,1.44-3.92,.31-.74,.75-1.37,1.33-1.8,.62,3.21,1.19,6.43,.55,9.69Z"/></g><g><path class="q" d="M1422.54,1475.12c-2.18-1.87-4.06-4.05-5.64-6.45-2.11-3.21-3.63-6.71-4.7-10.36-8.16-6.4-13.36-16.55-13.37-26.97,0-1.39,.11-2.77,.29-4.15,.23-1.62,.78-3.31,.62-4.95-.17-1.77-1.5-2.95-2.7-4.12-1.03-1-2.02-2.02-2.94-3.11-2.36-2.78-4.34-5.84-5.94-9.11-1-2.04-1.84-4.16-2.52-6.34-.85-2.73-1.45-5.54-1.77-8.39-.35-2.98-.4-6-.13-8.99,.26-2.88,.79-5.73,1.63-8.5,.53-1.75,1.34-3.52,1.47-5.36,.12-1.65-.54-2.98-1.62-4.17-1.52-1.67-3.26-3.07-4.88-4.63-.58-.57-1.14-1.16-1.67-1.77-1.97-2.32-3.68-4.86-5.08-7.55-.85-1.64-1.59-3.34-2.21-5.07-1.4-3.86-2.21-7.91-2.41-12.02-.16-3.26,.34-6.36,.69-9.58,.36-3.18-.69-5.31-3.1-7.29-2-1.64-4.29-2.91-6.16-4.72-1.93-1.87-3.21-4.27-3.68-6.91-.14-.76-.22-1.5-.26-2.26h0c-.31-5.09,1.18-10.16,.94-15.25-.16-3.29-1.41-6.07-3.34-8.39-1.64-1.99-3.78-3.63-6.15-4.97-2.77-1.56-5.72-2.64-8.72-3.62-2.9-.95-5.83-1.81-8.66-2.92-2.97-1.16-5.82-2.55-8.36-4.5-.05-.02-.08-.05-.12-.08-2.79-2.14-5.02-4.69-8.53-5.67-3.41-.97-7.02-.96-10.51-1.37-1.33-.15-2.66-.35-3.96-.62-2.02-.42-3.99-1.03-5.85-1.96-4.31-2.18-7.53-5.98-10.84-9.53-1.08-1.15-2.16-2.27-3.3-3.31-4.92-4.48-10.45-8.26-16.39-11.27-.8-.4-1.6-.79-2.41-1.16-2.22-1.03-4.49-1.93-6.8-2.73-2.47-.85-5.2-1.79-6.58-4.18-.78-1.34-.94-2.88-.94-4.41,0-.21,0-.42,0-.64,.04-1.31,.11-2.67-.48-3.87-.69-1.39-2.08-2.37-3.27-3.3-1.48-1.16-2.98-2.31-4.46-3.47-6.25-4.86-12.51-9.7-18.77-14.56-1.17-.91,.11-3.11,1.47-2.54,3.25,1.37,6.66,2.11,10.17,2.33,7.29,.46,14.55-.87,21.8-1.48,1.31-.11,2.62-.19,3.93-.23,5.47-.2,10.96,.17,16.37,1.13,4.33,.76,8.58,1.87,12.72,3.34h0c8.38,2.97,16.26,7.33,23.18,12.91,.2,.17,.41,.32,.6,.49,2.76,2.27,5.18,4.67,8.9,5.07,2.45,.26,4.76,.37,7.04,1.01,.75,.21,1.49,.48,2.23,.82,5.32,2.48,9.11,7.25,14.14,10.18,2.76,1.6,5.82,2.29,8.93,2.84,2.98,.54,6.01,.94,8.87,1.95,.31,.11,.6,.22,.91,.34,.32,.13,.64,.26,.96,.42,4.49,2.09,8.24,5.5,11.44,9.3,1.14,1.34,2.2,2.73,3.22,4.12,5.63,7.79,9.46,16.67,12.46,25.81,1.34,4.08,2.51,8.2,3.59,12.3,.1,.37,.2,.74,.29,1.11,.88,3.38,1.65,6.79,2.14,10.25,.54,3.81,.58,7.54,.52,11.36-.05,3.44,.54,6.4,2.69,9.14,1.74,2.22,3.92,4.06,5.81,6.15,.61,.67,1.19,1.37,1.73,2.1,1.22,1.68,2.19,3.52,2.69,5.59,.4,1.66,.53,3.35,.53,5.03s-.13,3.26-.25,4.88c-.27,3.57-.51,7.16,.64,10.61,1.07,3.21,2.83,6.13,3.25,9.55,.84,6.68-3.07,12.58-3.97,19.02-.35,2.56,.03,5.04,.73,7.47,.31,1.08,.68,2.15,1.08,3.21,1.24,3.3,2.55,6.53,3.34,9.98,.02,.08,.04,.14,.05,.22,3.22,14.43-.2,29.07-.22,43.6,0,5.5,.5,11.23,1.96,16.62,2.1,1.51,4.39,2.76,6.86,3.65,1.82,.66,1.03,3.59-.81,2.92-1.57-.57-3.08-1.25-4.54-2.05,1.8,4.49,4.43,8.59,8.24,11.89,1.48,1.28-.67,3.41-2.14,2.14Z"/><g class="w"><path class="o" d="M1409.79,1386.15c-.4-1.06-.77-2.13-1.08-3.21-.5,.59-.9,1.29-1.18,2.08-.1,.27-.2,.54-.3,.8-.69-.24-1.4-.39-2.14-.43-1.78-.11-3.66,.63-4.9,1.92-.09,.1-.16,.2-.24,.3-.32-.06-.65-.1-1-.1-1.19,0-2.35,.31-3.37,.92-.55,.33-.98,.7-1.34,1.12-1.7-.69-3.51-.66-5.2,.3-.76,.43-1.39,.99-1.93,1.63-1.04-.32-2.17-.45-3.25-.31,.32,2.85,.92,5.66,1.77,8.39,.68,2.18,1.53,4.3,2.52,6.34,1.64,.1,3.29-.4,4.64-1.46,.61-.47,1.15-1,1.61-1.59,1.7,1.04,3.99,.97,5.69-.02,.77-.45,1.37-1.05,1.82-1.74,.68,.05,1.38,.02,2.1-.16,1.83-.45,3.31-1.62,4.24-3.17,1.58-.08,3.23-.6,4.54-1.43,.11-.08,.23-.15,.34-.23-.79-3.44-2.1-6.68-3.34-9.98Zm-13.6,11.84c-.08-.09-.17-.19-.28-.32,.08,.11,.2,.19,.29,.28,0,.02,0,.02-.02,.04Zm.09,.08s0-.03,0-.05c0,0,0,0,0,0,.13,.12,.25,.24,.36,.36-.08-.05-.21-.16-.38-.32Zm8.68-7.39l-.18-.18-.02-.02s-.07-.07-.1-.1c.88,.41,.72,.72,.29,.29Zm1.56-3.69s-.02,0-.02,0c.02-.04,.08-.1,.17-.2,0,0,.02,0,.02,0-.07,.07-.13,.14-.18,.2Z"/><path class="o" d="M1407.59,1331.96c.25-.16,.49-.35,.72-.54,0-1.68-.13-3.37-.53-5.03-.5-2.07-1.47-3.91-2.69-5.59-.07-.02-.14-.03-.22-.05-2.07-.41-4-.12-5.88,.82-3.35,1.66-4.61,5.37-4.83,8.85-.15,2.5-.04,5.04-.04,7.56,0,1.27,.04,2.57,.06,3.86-.56-.35-1.11-.72-1.68-1.04-1.99-1.1-4.27-1.93-6.58-1.77-1.28,.08-2.4,.42-3.44,1.22-.87,.67-1.87,1.8-2.02,2.95-.05,.32-.11,.65-.15,.97-.48-.25-.94-.5-1.41-.75-2.77-1.47-5.93-.55-7.5,1.73,.62,1.74,1.36,3.44,2.21,5.07,1.4,2.7,3.11,5.23,5.08,7.55,.53,.62,1.09,1.21,1.67,1.77,.44-.6,.76-1.29,.94-2.05,.02,.02,.05,.02,.07,.04,3.25,1.72,7.27,.23,8.32-3.38,.16-.53,.29-1.06,.43-1.6,1.02,.57,2.08,1.07,3.27,1.34,3.98,.87,8.59-.09,10.74-3.91,1.83-3.28,1.31-7.42,1.31-11.05,0-2.04-.09-4.13-.06-6.2,.76-.07,1.52-.31,2.22-.76Zm-7.75-2.03c.18,.27,.39,.52,.61,.76-.23-.23-.45-.47-.61-.76Z"/><path class="o" d="M1392.2,1281.79c-.45,.23-.93,.42-1.42,.57,0,.73-.02,1.47-.02,2.21-.03,2.21-.05,4.55-1.2,6.52-1.79,3.07-5.1,4.41-8.54,3.68-2.06-.44-3.98-1.75-5.8-2.77-1.65-.91-3.28-1.84-4.92-2.75-1.31-.73-2.62-1.47-3.93-2.19,.43,2.84,.71,5.69,.58,8.55-.09,2.08-.69,4.12-2.23,5.6-1.92,1.86-4.88,2.41-7.37,1.49-.29-.11-.59-.23-.88-.34h0c-.31-5.09,1.18-10.16,.94-15.25-.16-3.29-1.41-6.07-3.34-8.39,.29-1.22,.91-2.37,1.75-3.25,3.05-3.16,7.44-2.73,11.09-1.04,2.9,1.34,5.66,3.12,8.45,4.68,1.38,.76,2.75,1.58,4.12,2.37v-1.22c.03-2.38,.06-4.76,.08-7.13,.04-2.85,2.14-5.2,4.92-5.57,1.28-.17,2.46,.07,3.61,.67,.08,.04,.16,.09,.23,.14,1.34,4.08,2.51,8.2,3.59,12.3,.1,.37,.2,.74,.29,1.11Z"/><path class="o" d="M1361.2,1229.15c-.32-.15-.63-.29-.96-.42-.03,.06-.05,.11-.07,.17-.28-.17-.56-.35-.84-.51-1.05-.65-2.09-1.3-3.14-1.94-1.65-1.02-4-1-5.72,0-.42,.23-.82,.54-1.14,.89-1.82,1.99-1.99,4.48-.88,6.86,1.6,3.47,3.24,6.92,4.86,10.38-.89-.25-1.84-.29-2.87,0-1.35,.37-2.7,1.35-3.45,2.63-.32-.18-.63-.37-.93-.57-.06-.05-.13-.1-.2-.16,.06,.05,.12,.11,.19,.18-.29-.29-.66-.54-.99-.81-1.8-1.49-3.93-2.12-6.18-1.17-2.02,.85-3.54,2.91-3.48,5.17,.02,1,.05,2,.08,3-1.52,.25-3.02,.91-4.06,2.01-1.37,1.46-2.09,3.44-1.88,5.33-1.29-.14-2.59-.09-3.85,.35-1.34,.47-2.54,1.21-3.51,2.16,2.54,1.95,5.39,3.34,8.36,4.5,2.83,1.11,5.76,1.97,8.66,2.92,.77-.69,1.42-1.52,1.9-2.4,.61-1.14,1-2.37,1.17-3.61,2.14-.85,3.72-2.73,4.33-4.98,.04-.12,.06-.23,.08-.35,.39,.03,.79,.05,1.19,.04,1.65-.06,3.35-.52,4.84-1.32,2.82,1.8,5.8,3.32,9.01,4.57,1.24,.48,3.28,.13,4.36-.57,1.29-.83,2.1-1.93,2.61-3.39,1.15-3.31,.1-6.63-1.24-9.67-.57-1.28-1.16-2.56-1.75-3.84,.75-.02,1.49-.17,2.19-.47,1.74-.73,2.6-1.96,3.28-3.67,.2-.51,.37-1.03,.51-1.55,.34-.13,.66-.28,.97-.47-3.2-3.79-6.95-7.2-11.44-9.3Z"/><path class="o" d="M1345.85,1246.47c-.73-.7-.36-.3,0,0h0Z"/><path class="o" d="M1324.18,1216.99c-.57,.97-1.4,1.77-2.34,2.37,.35,1.19,.57,2.38,.57,3.54,.02,3.18-2.06,5.87-5.01,6.87-1.68,.57-3.59,.45-5.29,0-.14-.03-.26-.08-.4-.11-.52,1.65-1.5,3.1-3.16,4.06-.86,.49-1.74,.76-2.64,.85,.05,.69,.08,1.37,.06,2.05-.05,1.78-.83,3.28-2.06,4.3,.76,2.2,1.2,4.51,1.32,6.83,.09,1.77-.89,3.41-2.23,4.45-1.03,.8-2.18,1.18-3.4,1.19-.11,.56-.3,1.09-.57,1.57-2.02-.42-3.99-1.03-5.85-1.96-4.31-2.18-7.53-5.98-10.84-9.53,1.32-.22,2.51,.11,3.75,.67,.11-.38,.25-.75,.44-1.1,.83-1.57,2.45-2.46,4.15-2.69-.03-.03-.06-.07-.1-.11-.48-.51-1-.97-1.53-1.41-2.17-1.81-2.03-5.38-.44-7.44,.94-1.22,2.33-1.98,3.81-2.17-.99-1.87-.63-4.31,.63-5.94,1.31-1.7,3.81-2.74,5.95-2.03,.32,.11,.63,.21,.94,.32,0-3.47,3.73-6.67,7.22-5.45,.03,.02,.06,.02,.1,.04-.26-.28-.51-.57-.79-.84-2.02-2-2.14-5.24-.44-7.44,.69-.91,1.59-1.51,2.56-1.85,.2,.17,.41,.32,.6,.49,2.76,2.27,5.18,4.67,8.9,5.07,2.45,.26,4.76,.37,7.04,1.01,.08,1.53-.21,3.06-.99,4.39Z"/><path class="o" d="M1285.43,1193.11c-4.14-1.47-8.39-2.58-12.72-3.34-5.41-.95-10.9-1.32-16.37-1.13,.05,1.37,.56,2.7,1.62,3.65,.52,.46,1.03,.94,1.53,1.44-.36,.21-.71,.48-1.04,.81-1.49,1.48-1.9,3.5-1.46,5.51,.36,1.6,1.06,3.1,1.72,4.59,.13,.34,.25,.69,.35,1.03-.03,.02-.06,.04-.09,.05-.23,.07-.48,.13-.72,.19-1.53,.09-3.04-.04-4.55-.2-.89-.09-2.11,.33-2.86,.77-1.06,.63-1.84,1.59-2.32,2.71-.91,2.17-.37,4.46,1.17,6.18,.11,.13,.23,.26,.33,.39-1.36-.02-2.73-.04-4.09-.02,0,.22,0,.43,0,.64,0,1.53,.16,3.07,.94,4.41,1.38,2.39,4.11,3.33,6.58,4.18,2.31,.8,4.58,1.71,6.8,2.73,.06,0,.13,0,.19,.02,1.72,.18,3.45-.94,4.45-2.24,.99-1.28,1.68-3.33,1.01-4.93-.66-1.58-1.39-3.09-2.17-4.55,1.42-.61,2.73-1.49,3.84-2.72,1.92-2.11,3.16-4.91,2.91-7.82,0-.03,0-.05-.02-.08,.49,0,.97-.03,1.46-.17,1.19-.32,2.2-1.06,2.94-2.02,1.49-1.93,1.41-4.15,.45-6.29-.85-1.87-1.87-3.68-3.03-5.4,4.27,1.21,8.71,1.77,13.15,1.59Zm-23.85,3.01c.08,.05,.3,.27,.43,.45,0,.02,.01,.02,.02,.04-.27-.29-.41-.43-.45-.48Z"/></g></g><polygon class="d" points="1528.01 1434 1355.64 1434 1377.56 1652.99 1506.09 1652.99 1528.01 1434"/><polygon class="t" points="1528.01 1434 1355.64 1434 1377.56 1652.99 1506.09 1652.99 1528.01 1434"/><path class="i" d="M1390.38,1507.36l-7.34-73.35h-27.4l21.92,218.99h128.52l3.76-37.54h0c-61.67,0-113.32-46.73-119.46-108.1Z"/></g></svg>