<?xml version="1.0" standalone="no"?>
<!DOCTYPE svg PUBLIC "-//W3C//DTD SVG 20010904//EN"
 "http://www.w3.org/TR/2001/REC-SVG-20010904/DTD/svg10.dtd">
<svg version="1.0" xmlns="http://www.w3.org/2000/svg"
 width="1560.000000pt" height="1560.000000pt" viewBox="0 0 1560.000000 1560.000000"
 preserveAspectRatio="xMidYMid meet">
<metadata>
Created by potrace 1.14, written by Peter Selinger 2001-2017
</metadata>
<g transform="translate(0.000000,1560.000000) scale(0.100000,-0.100000)"
fill="#000000" stroke="none">
<path d="M3 9224 c2 -1446 6 -2645 9 -2664 3 -19 9 -66 13 -105 4 -38 9 -72
10 -75 2 -3 6 -26 10 -50 3 -25 18 -97 32 -160 247 -1118 1114 -2020 2223
-2313 91 -24 210 -51 275 -61 221 -34 311 -41 540 -40 166 1 336 12 422 28 10
2 40 7 67 10 71 10 176 33 286 62 1210 323 2104 1338 2266 2573 11 84 13 112
19 231 18 398 17 389 35 479 97 494 417 914 868 1141 55 27 104 50 107 50 4 0
21 6 38 14 55 25 159 55 267 77 147 31 419 34 575 8 567 -97 1031 -474 1244
-1012 33 -83 76 -237 86 -312 4 -27 10 -61 13 -75 2 -14 6 -266 8 -560 9
-1294 11 -1456 16 -1475 3 -11 16 -60 27 -110 68 -286 218 -545 429 -739 l32
-30 -3 1465 c-2 805 -7 1480 -10 1499 -4 19 -11 67 -17 106 -16 104 -53 248
-95 365 -112 313 -298 598 -538 824 -126 120 -214 186 -402 303 -111 69 -355
170 -510 211 -255 67 -593 85 -865 46 -132 -18 -424 -100 -454 -127 -6 -4 -16
-8 -23 -8 -43 0 -430 -221 -495 -282 -7 -7 -36 -31 -63 -53 -50 -40 -194 -181
-250 -246 -253 -289 -444 -714 -490 -1084 -4 -27 -8 -57 -11 -65 -2 -8 -6 -76
-9 -150 -9 -245 -17 -370 -28 -435 -3 -16 -9 -50 -12 -75 -4 -25 -9 -52 -10
-60 -5 -23 -36 -164 -39 -175 -105 -390 -316 -785 -565 -1059 -50 -54 -158
-163 -212 -211 -88 -81 -305 -241 -369 -272 -14 -7 -41 -23 -60 -34 -206 -126
-614 -273 -844 -304 -46 -6 -122 -17 -138 -20 -9 -2 -67 -7 -128 -10 -306 -19
-545 1 -815 70 -55 14 -108 28 -117 30 -30 7 -221 77 -273 100 -106 47 -153
70 -240 119 -360 199 -689 506 -914 851 -207 319 -355 717 -396 1070 -4 33
-10 69 -13 80 -4 11 -8 1177 -9 2590 -2 1414 -5 2575 -7 2582 -4 10 -76 35
-141 49 -102 23 -184 35 -262 40 l-93 6 3 -2628z"/>
<path d="M970 9927 c0 -856 2 -1557 3 -1557 2 0 32 37 68 83 111 144 216 252
386 399 286 246 749 462 1143 532 19 3 46 8 59 11 167 32 515 48 681 30 91 -9
195 -23 230 -30 110 -21 150 -31 259 -61 405 -113 793 -338 1097 -636 l81 -79
44 68 c50 77 188 262 224 301 14 15 25 32 25 38 0 17 -171 174 -290 266 -312
239 -634 404 -1010 517 -133 40 -328 84 -425 96 -27 4 -61 8 -75 11 -149 24
-607 24 -750 0 -14 -3 -45 -7 -70 -10 -344 -45 -763 -187 -1072 -364 -21 -12
-54 -31 -73 -42 l-35 -20 -1 488 c0 268 -2 503 -4 522 -28 349 -193 700 -444
945 l-51 49 0 -1557z"/>
<path d="M7579 9926 c-2 -2 -38 -6 -79 -10 -41 -3 -88 -8 -105 -11 -16 -3 -43
-7 -60 -10 -16 -3 -49 -8 -71 -11 -33 -4 -164 -33 -267 -59 -158 -39 -412
-137 -592 -230 -407 -208 -732 -473 -1014 -825 -303 -378 -508 -807 -610
-1280 -26 -118 -36 -178 -56 -342 -2 -21 -7 -95 -10 -165 -13 -300 -15 -329
-35 -438 -16 -85 -19 -97 -51 -195 -95 -293 -272 -554 -510 -753 -281 -233
-656 -370 -1014 -369 -654 0 -1251 406 -1493 1013 -38 96 -75 222 -88 294 -2
17 -7 37 -9 45 -9 34 -18 151 -18 255 -2 270 51 493 174 740 75 152 165 278
283 397 142 144 242 219 406 306 527 278 1139 243 1645 -96 108 -73 277 -229
347 -320 23 -31 45 -59 48 -62 10 -9 76 -114 110 -174 l33 -59 23 95 c27 112
92 310 140 426 20 49 31 89 27 97 -19 33 -157 176 -248 258 -187 166 -439 315
-680 402 -101 37 -302 89 -385 100 -25 3 -70 9 -100 13 -72 9 -388 9 -463 0
-508 -65 -941 -278 -1289 -634 -181 -185 -337 -420 -429 -644 -82 -198 -136
-398 -154 -562 -3 -29 -8 -71 -10 -93 -6 -52 -6 -308 0 -360 21 -192 49 -325
102 -489 104 -319 295 -622 544 -861 295 -282 630 -460 1044 -551 229 -50 625
-52 845 -3 25 5 54 11 65 13 121 23 369 116 511 191 80 43 230 136 273 170
216 172 360 324 498 530 129 192 222 401 289 650 7 27 36 175 40 210 3 22 7
51 10 65 2 14 6 81 9 150 12 307 19 392 40 515 13 79 20 113 46 215 112 451
336 847 674 1194 87 88 183 171 330 283 102 78 340 212 495 278 157 67 432
148 570 168 19 3 55 8 80 12 25 3 59 8 75 11 54 10 459 13 520 4 33 -5 83 -11
110 -14 192 -19 481 -101 705 -200 194 -86 404 -214 580 -355 95 -77 278 -253
337 -326 18 -22 52 -65 76 -95 74 -91 191 -273 253 -394 l59 -114 61 118 c351
671 974 1152 1714 1324 210 49 325 61 570 61 211 0 295 -6 435 -30 50 -9 99
-18 110 -19 112 -20 364 -101 505 -163 437 -192 830 -519 1100 -915 215 -316
369 -707 421 -1073 6 -44 14 -93 17 -110 3 -16 7 -759 9 -1650 2 -891 7 -1623
11 -1626 9 -8 126 -44 172 -53 98 -19 153 -27 233 -32 l88 -6 -4 1688 c-3 929
-7 1703 -10 1719 -3 17 -10 68 -17 115 -6 47 -18 114 -25 150 -8 37 -16 78
-19 92 -2 14 -18 77 -35 139 -105 393 -308 794 -561 1107 -103 128 -112 138
-243 271 -327 331 -751 593 -1207 745 -102 34 -310 88 -385 100 -21 4 -40 8
-44 10 -4 3 -36 8 -71 11 -36 4 -67 8 -70 10 -41 26 -759 25 -800 0 -3 -2 -35
-7 -70 -10 -36 -4 -68 -9 -71 -11 -4 -2 -24 -6 -44 -10 -56 -9 -62 -10 -172
-38 -113 -28 -279 -81 -381 -121 -112 -44 -381 -180 -487 -246 -246 -153 -503
-369 -674 -567 l-54 -62 -61 67 c-200 219 -424 407 -681 569 -145 91 -397 211
-599 283 -116 42 -375 109 -486 126 -19 3 -62 9 -95 15 -33 5 -80 12 -105 16
-50 6 -545 15 -551 10z"/>
<path d="M12270 8944 c-155 -20 -179 -24 -279 -50 -750 -194 -1333 -771 -1529
-1514 -22 -80 -46 -207 -59 -305 -4 -33 -8 -775 -8 -1649 l0 -1589 68 -22 c38
-13 83 -25 100 -28 18 -4 59 -11 92 -17 33 -6 99 -13 148 -16 l87 -6 1 1589
c1 873 3 1611 5 1638 4 45 26 188 38 240 55 241 194 506 365 698 229 256 543
440 866 508 137 28 193 34 345 33 271 0 471 -45 705 -159 333 -162 591 -419
750 -750 47 -96 105 -256 119 -326 17 -83 29 -149 33 -179 3 -19 7 -296 9
-615 8 -1145 11 -1400 17 -1427 4 -16 9 -38 11 -50 55 -301 233 -618 455 -812
l22 -20 -4 1465 c-3 1341 -4 1473 -20 1569 -49 287 -116 478 -271 765 -24 44
-122 184 -175 250 -208 260 -501 485 -798 614 -91 40 -271 100 -353 119 -85
20 -105 24 -125 28 -11 1 -54 8 -95 14 -105 17 -407 19 -520 4z"/>
</g>
</svg>
